<?xml version="1.0" standalone="no"?>
<!DOCTYPE svg PUBLIC "-//W3C//DTD SVG 1.1//EN" "http://www.w3.org/Graphics/SVG/1.1/DTD/svg11.dtd" >
<svg xmlns="http://www.w3.org/2000/svg">
<metadata></metadata>
<defs>
<font id="sphereographic_penbold" horiz-adv-x="671" >
<font-face units-per-em="2048" ascent="1638" descent="-410" />
<missing-glyph horiz-adv-x="673" />
<glyph horiz-adv-x="0" />
<glyph unicode="&#xd;" horiz-adv-x="681" />
<glyph unicode=" "  horiz-adv-x="673" />
<glyph unicode="&#x09;" horiz-adv-x="673" />
<glyph unicode="&#xa0;" horiz-adv-x="673" />
<glyph unicode="!" horiz-adv-x="446" d="M63 883q18 262 107 317q45 27 63.5 26t42.5 -30q25 -31 54 -22q23 8 22 -21q0 -14 -4 -41q-2 -12 -12 -76.5t-12 -92.5t-6.5 -82t-1.5 -98t12 -89q12 -63 2 -66q-2 0 -4 2q-20 12 -29 -20q-6 -25 8 -39q29 -29 14.5 -33t-43.5 27q-29 29 -66.5 43t-51.5 22q-10 8 -6 4 q2 -4 18 -20q35 -35 22.5 -36t-55.5 32q-90 72 -74 293zM106.5 336.5q2.5 69.5 45.5 120.5q33 39 59.5 46t69.5 -11q29 -14 8 -15q-18 0 14 -20q8 -6 16 -11q37 -18 52.5 -30.5t9.5 -31.5t-17.5 -32.5t-48.5 -50.5q-72 -72 -57 -72q10 0 61 43q43 33 41 19 q-20 -51 -91.5 -68.5t-123.5 17.5q-41 27 -38.5 96.5zM167 664.5q-1 -5.5 1 -12.5t5 -14t6 -11t5 -4q4 2 6.5 15t-3 24.5t-13.5 9.5q-6 -2 -7 -7.5zM211 1139q14 -4 31 20q12 18 -2 29q-19 10 -27 -17q-14 -31 -2 -32zM240 367q2 -25 18 -13q20 14 12 31q-2 6 -14 8 q-16 1 -16 -26z" />
<glyph unicode="&#x22;" horiz-adv-x="626" d="M66 993q-25 20 36.5 99.5t100.5 87.5q23 0 60.5 -56.5t37.5 -89.5q0 -51 -40 -104t-83 -58q-37 -4 -37 2q-2 4 6 15q8 6 24.5 56t31.5 54q29 8 12 23q-10 8 -33 6q-14 -2 -36.5 3t-36 4t-19.5 -17q-4 -12 2 -16.5t27 2.5q25 2 24 -7q-8 -12 -36.5 -13t-40.5 9z M156 1089.5q4 -8.5 14 -8.5t14 8.5t0 16.5t-14 8t-14 -8t0 -16.5zM360 1076.5q5 19.5 37 56.5q23 27 79 23.5t79 -32.5q20 -29 0 -129t-55 -135q-29 -29 -37 -31t-31 19q-20 16 -22 26.5t14 26.5q18 18 23.5 37.5t-4 32t-27.5 12.5q-33 0 -49 43q-12 31 -7 50.5zM424 1083 q-10 -12 8 -24q17 -11 17 12t-7.5 26t-17.5 -14zM465 977q0 -23 7 -26t17 14q10 12 -8 24q-16 11 -16 -12z" />
<glyph unicode="#" horiz-adv-x="1181" d="M61 508q0 12 33 16t33 17q0 16 23 16q41 0 90 40t57 79q14 78 7 96.5t-54 9.5q-57 -8 -57 6q0 16 -43 5q-33 -10 -35 2t20 22q6 2 12 2q6 -6 60 35q35 27 20 31q-35 0 -12 20q18 16 64 33q51 16 60 30.5t13 82.5q8 90 17 96q10 8 30 39q31 53 50 33q6 -6 6 -27 q0 -35 19.5 -66.5t25.5 -60.5q16 -59 32 -55q6 0 18.5 1t30 2t29.5 1q41 2 49.5 9t8.5 46q0 45 16 68.5t41 15.5q10 -4 18.5 8.5t10.5 32.5q8 45 19 48t26 -38q16 -41 35 -41q16 2 6 33q-10 33 6 33q8 0 12 -4t4 -16.5t-3 -33t-9 -57.5q-10 -53 -6 -61t35 -8q35 0 60.5 -5.5 t37.5 -15.5t8 -20q-10 -20 37 -13q37 4 35 -4q0 -2 -2 -6q-12 -20 -97 -20q-63 0 -65 -7q-2 -4 16 -10q20 -8 26.5 -19t-2.5 -19.5t-32 -8.5q-33 0 -49 -19.5t-27 -66.5q-8 -45 -3 -53t42 -8q47 -2 43 -15q-6 -14 90 -14q72 0 95.5 -8t25.5 -41q-8 -4 -178 -21.5t-176 -23.5 q-25 -8 -62 -113q-35 -94 -60.5 -134t-51.5 -40q-18 0 -19.5 3t17.5 18q27 20 37 57t-7 45q-6 4 -11 -2t-5 -21q0 -16 -8 -30.5t-17.5 -18.5t-17.5 2q-8 8 6 95q12 76 2 77q-4 2 -24 -2q-80 -23 -104.5 -41t-18.5 -57q4 -14 -14.5 -69.5t-59.5 -55.5q-25 0 -30 11.5 t4.5 24.5t15.5 28.5t0 21.5q-6 16 -29 -27q-2 -6 -6 -14q-29 -66 -51 -61q-20 2 -12 59q8 41 3 48t-30 -1q-33 -10 -35 4q0 14 29 27l12 4q43 10 41 18q-2 16 -98 11q-98 -6 -99 10zM129 860q-4 8 0 16.5t14.5 8.5t14.5 -8.5t0 -16.5t-14.5 -8t-14.5 8zM484 680q8 -4 81 16 q27 8 40 28.5t36 90.5q10 25 0 31t-55 6q-37 0 -54.5 -7t-21.5 -15.5t-8 -38t-10 -50.5q-16 -57 -8 -61zM786 1087q-2 -49 5 -49q2 0 4 6q8 23 0 50q-6 23 -9 -7zM833.5 909.5q4.5 -8.5 14.5 -8.5t14 8.5t0 16.5t-14 8t-14.5 -8t0 -16.5z" />
<glyph unicode="$" horiz-adv-x="827" d="M61 911q0 37 40 81t92 61q39 14 68.5 63t29.5 98q0 23 22.5 21t26.5 8q0 18 14.5 18.5t12.5 -39.5t-15 -55q-12 -8 -12 -34q2 -27 25 0q2 4 4 6q18 25 20 24.5t-4 -28.5q-8 -37 21 -37q16 0 28 11t12 23.5t-12 20.5q-18 10 0 21q21 7 21 30q0 29 18.5 69t40.5 38 q14 0 18.5 -15.5t-0.5 -68.5q-4 -57 0.5 -68.5t26.5 -5.5l25 4q-2 -4 -21 -18q-25 -16 -23.5 -24.5t27.5 -31.5q37 -35 25 -53q-10 -20 18 -43q25 -16 15 -18q-4 -2 -35 -2q-86 0 -86 -123q0 -29 26.5 -48.5t133.5 -70.5q57 -27 79.5 -61.5t22.5 -94.5q0 -76 -87 -183 t-153 -112q-35 -2 -42 -18t-13 -109q-8 -104 -20 -96q-12 31 -11 41q6 33 -2 58.5t-24 25.5q-23 0 -23 -8q0 -6 12 -41q10 -25 5 -31t-31 -6q-25 0 -35 13.5t-27 60.5l-22 74q-4 -37 -4 -115l-13 63q-10 68 -34 72q-16 4 -16.5 -41t18.5 -108q12 -49 22 -52q6 0 13 13 q16 33 32 28q10 -2 2 -22q-10 -29 -38.5 -34t-45.5 17q-18 23 -30 121q-8 68 -16.5 84.5t-41.5 20.5q-37 6 -45 26q-6 12 13 13q12 2 36 -5q47 -14 43 7q-2 20 -30 28q-8 2 -15 2l-37 9q10 6 29 14q35 16 41 35.5t10 130.5q2 29 2 47l7 190q-6 4 -29 18.5t-37 25t-31.5 25.5 t-27 30.5t-9.5 29.5zM225 487q0 -78 15 -77q6 -4 8 12q6 57 -12 121q-8 25 -11 -6v-50zM306 679q1 -65 9.5 -144.5t16.5 -92.5q12 -18 24 23q15 57 15 176q0 70 -9.5 86t-50.5 27q-6 -10 -5 -75zM307 922q0 -6 1 -10.5t5 -3.5t10.5 4t16.5 10q33 22 33 32q0 12 -21.5 11.5 t-32.5 -11.5q-12 -8 -12 -32zM332 868q-12 0 4 -14q2 0 4 -2q25 -16 41 -16t-8.5 16t-40.5 16zM344 776q4 -12 33 -2q14 6 0 8q-4 2 -10 2q-23 0 -23 -8zM428 655q-6 -104 2 -116l4 14q8 53 0 106q-4 33 -6 -4zM442 838q-4 -33 9 -31q16 10 24 78q8 57 -8 63q-4 2 -6 -6 q-4 -8 -6 -29q0 -35 -13 -75zM473 469l45 49q39 37 42 87t-36 79q-23 16 -30 12t-13 -37q-8 -45 -8 -190zM494 307q0 -4 22 -8q37 -9 64 20q29 29 16 31q-10 2 -59 -18q-43 -18 -43 -25zM587 695q1 -3 5 -7t10 -8q14 -6 16 6q0 18 -16 19q-10 0 -13 -3.5t-2 -6.5zM635 672 q0 -21 16 -25q16 -6 17 8q0 20 -17 25q-16 6 -16 -8zM695 631.5q7 -17.5 20.5 -31.5t17.5 -10q8 6 1 22.5t-20.5 31.5t-17.5 11q-8 -6 -1 -23.5z" />
<glyph unicode="%" horiz-adv-x="1259" d="M63.5 845.5q-8.5 41.5 24.5 117.5q69 160 225 219q41 23 93.5 11.5t80.5 -7.5q47 8 79 -37t24 -109q-16 -139 -173 -225t-294 -31q-51 20 -59.5 61.5zM88 834.5q2 -17.5 16 -23.5q16 -6 17 14q-2 27 -17 27q-18 0 -16 -17.5zM141 924q8 -12 29 26q16 33 8 33 q-6 0 -24 -25q-23 -24 -13 -34zM156 829q-2 -2 8 -12q21 -20 31 -10q10 4 -15 16q-23 12 -24 6zM193 854q12 -20 47.5 -22.5t70.5 14.5q41 23 62 22q27 0 67.5 50.5t40.5 82.5q0 37 -39 76q-39 35 -56 33t-64 -49q-96 -104 -82 -135q4 -10 24 -2q8 4 10 2q0 -4 -22 -25 q-41 -33 -55 -33q-12 0 -4 -14zM195 1008q4 -2 59 49q16 16 34.5 32.5t30 25.5t13.5 11q0 2 -8 4q-49 -4 -107 -86q-25 -35 -22 -36zM254 451q-6 6 45 73q188 233 360 506q109 176 165.5 246t76.5 61q23 -8 33 9q16 27 15 8t-17 -54q-4 -8 -78 -160.5t-134.5 -270 t-86.5 -156.5q-213 -295 -334 -338q14 33 49 101.5t45 88.5l17 37q-4 -2 -41 -45q-52 -56 -52 -76q0 -14 -26.5 -27.5t-36.5 -2.5zM440 1149l49 -41q70 -57 70 -41q0 6 -10 18q-18 19 -14 37q2 12 -95 27zM444 1231q18 25 37 6q6 -4 8 -10q12 -18 1.5 -26.5t-33.5 1.5 q-31 8 -13 29zM618 610q23 55 69 108.5t67 45.5q14 -6 28.5 15.5t26.5 15t17 10t20 10.5q20 -8 48.5 7.5t20.5 31.5q-6 14 7 14q18 -2 26 -18q6 -8 -6 -14q-18 0 -18 -19q2 -14 26.5 -10t32.5 -6q16 -14 39 8q14 18 24.5 18t38.5 -20q61 -39 76 -47q33 -18 37 -63.5 t-22 -86.5q-35 -55 -97.5 -127.5t-70.5 -66.5q-6 6 -54 -15q-90 -47 -206 0q-182 78 -130 209zM629 526q4 -2 26 37q8 18 33 64q14 25 24.5 47t14.5 34.5t2 12.5q-14 0 -49 -61.5t-45 -98.5q-8 -35 -6 -35zM766 479q4 -4 8 6q2 9 2 19q0 35 55 117q80 119 23 65 q-10 -12 -29 -31q-33 -33 -54 -96t-5 -80zM825 723q-2 -4 4 0q4 2 17 12q28 25 28 29q0 23 -34 -23q-12 -14 -15 -18zM829 467q18 -2 52 12q41 18 91 93t46 108q-6 33 -45 35q-43 2 -96 -78q-102 -158 -48 -170zM870 408q0 -4 4 -7q16 -10 96.5 47t90.5 84q10 25 -6 23 q-14 -4 -58 -35q-127 -90 -127 -112zM967 518q6 6 33.5 26.5t44 38t14.5 27.5q-8 19 12 29q20 12 12 51q-2 25 -5 27t-7 -10q-4 -6 -12 -27q-14 -33 -92 -162zM1139 727q0 -14 14 -47q14 -28 14 -8q0 29 -14 49t-14 6z" />
<glyph unicode="&#x26;" horiz-adv-x="1097" d="M63 387q-10 82 34 140.5t206 189.5q14 12 57 23.5t68 11.5q2 2 -8 16t-29 37q-45 53 -33 100q20 100 66.5 157.5t146.5 106.5q86 45 88 29q0 -6 -14 -24q-16 -18 -3 -34t34 -3q6 4 13 -4.5t11 -22.5q8 -39 23 -16q14 20 41 12q14 -6 17 -2t-1 24q-8 37 6 33q16 -4 52 -55 q27 -37 31.5 -61.5t-3.5 -81.5q-8 -53 -23.5 -82t-60.5 -74t-55 -65.5t0 -47.5q55 -143 86 -133q27 8 62.5 85t37.5 126q0 31 5.5 45t13.5 12q20 -8 39 11q27 27 28 0q2 -14 -10 -37q-20 -39 -4 -78q8 -20 21 -12q12 6 4 37q-6 18 0 18q2 0 8 -4q18 -10 18 -68.5t-16 -93.5 q-16 -33 -88 -108q-20 -23 -33.5 -40.5t-15.5 -26.5t4 -13q20 -8 19.5 -22.5t-23.5 -14.5q-39 0 -19 -27q12 -14 41 -31q49 -25 60 -45q6 -10 -17 0q-12 6 -49 27q-63 29 -65 25q10 -14 -5 -15q-16 0 -51 25q-27 16 -48 13t-114 -38q-90 -37 -120.5 -42t-96.5 7 q-229 41 -256 17q-27 -20 -48 4.5t-32 89.5zM121 397q0 -16 16.5 -28.5t24.5 -3.5q12 2 -15 26q-24 22 -26 6zM186 506q0 -25 35 12q18 20 31 43q14 29 4 29q-14 0 -42 -34t-28 -50zM279 459q-8 -37 6 -43q8 -6 12 10q10 37 0 61q-6 12 -14 -10q-2 -8 -4 -18zM279 606 q25 2 30 17q10 16 4.5 16t-28.5 -16q-20 -14 -6 -17zM358 563q-76 -111 35 -166q43 -20 41 -28q0 -4 -14 -11q-23 -10 -8 -12h22q37 -2 109.5 24.5t99.5 49.5q18 16 8 16q-4 0 -24 -4q-25 -6 -27 -4t10 10l4 4q20 12 16.5 26.5t-42.5 66.5q-58 76 -58 90q0 6 -20.5 9t-47 1 t-44.5 -8q-23 -8 -60 -64zM432 854q1 -18 17 -18q12 -2 16 4q4 10 -16 20q-14 6 -17 -6zM475 674q-10 -17 4 -19q10 -2 15.5 5.5t3.5 16.5t-9 11q-6 4 -14 -14zM499 794q1 -3 5 -7.5t10 -8.5q14 -6 16 6q0 18 -16 19q-10 0 -13 -3t-2 -6zM532.5 696.5q4.5 -8.5 14.5 -8.5 t14 8.5t0 16.5t-14 8t-14.5 -8t0 -16.5zM557 662q-6 -2 13.5 -38t42 -68t26.5 -26q6 4 -12.5 40t-41 68t-28.5 24zM570.5 989.5q-23.5 -108.5 17.5 -160.5q16 -23 25.5 -23.5t37.5 19.5q47 29 61.5 94.5t-12.5 120.5q-10 23 -27.5 40.5t-27.5 17.5q-51 0 -74.5 -108.5z M686 664q18 -92 55 -142q9 -12 11 -4q8 18 -33 107q-27 59 -33 55q-2 -2 0 -16zM696 778q4 -6 17.5 4.5t22.5 25.5t3 19q-4 6 -17 -5t-22.5 -26.5t-3.5 -17.5zM799 852q8 0 26 33q12 29 11 33q-4 2 -15 -15q-33 -47 -22 -51zM801 1064q-2 -11 2 -44q10 -68 16 -68q6 3 6 52 q0 57 -16 69q-6 2 -8 -9z" />
<glyph unicode="'" horiz-adv-x="333" d="M63 1014q8 84 36 157.5t53 73.5q10 0 13 5t1 11.5t2 11.5t16 5q23 0 55.5 -43t32.5 -72q0 -16 -49 -61q-45 -41 -64.5 -111.5t9.5 -97.5q16 -16 12 -20.5t-30 -4.5q-100 0 -87 146zM92 944q-2 -25 6 -22q10 0 6 26q0 4 -2 6q-4 12 -8 4q-2 -4 -2 -14z" />
<glyph unicode="(" horiz-adv-x="606" d="M64.5 740.5q15.5 244.5 111.5 361.5q53 61 152.5 135t132.5 74q41 0 49 16q6 12 10 14t9.5 -3t11.5 -21q4 -18 -4 -17q-14 8 -43 -30.5t-19 -55.5q8 -16 -16 -36q-37 -33 -115 -244q-74 -207 -16 -404q12 -39 34.5 -160.5t51.5 -179.5q55 -109 37 -120q-6 -4 -23 18 q-25 31 -66 21q-43 -12 -71 6q-27 14 -77 83.5t-87 141.5q-78 156 -62.5 400.5zM176 1034q0 -4 17 10q2 3 8 9q29 29 20 39q-4 2 -13 -6.5t-18 -24.5q-12 -23 -14 -27zM213 614q0 -45 4 -41q10 8 4 56q0 8 -2 14q-4 23 -6 -4v-25zM244 207q4 -6 10 -17q27 -49 76 -55 q41 -4 32 10q-10 14 -59 41q-39 23 -35 39q2 6 -5 11.5t-17 5.5q-20 0 -2 -35zM305 391q-4 -45 23 -86q14 -25 14 4q0 14 -4 37q-20 63 -29 62q-4 -1 -4 -17z" />
<glyph unicode=")" horiz-adv-x="653" d="M66 -63q14 29 81 129q49 80 23 81q-10 0 -16.5 -24.5t-16.5 -24.5q-14 0 -14 8q2 12 53 111q121 229 158 506q14 100 9 142t-48 173q-51 150 -56.5 193t25.5 51q29 8 60 0q29 -8 101.5 -80t72.5 -92q6 -23 33.5 -92.5t41 -129t15.5 -138.5q6 -166 -13.5 -238t-105.5 -178 q-100 -123 -227 -261.5t-135.5 -130t-32.5 -12.5q-18 -14 -8 7zM193 168q2 -12 22 20q24 39 6 41q-12 0 -24.5 -26.5t-3.5 -34.5zM258 283q2 0 8 2q16 8 42 58t20 71q-6 16 -23 -19q0 -4 -2 -6q-20 -51 -37 -82q-12 -25 -8 -24zM301 1180q0 -10 3 -13.5t6 -2.5t7.5 5.5 t8.5 10.5q6 14 -7 16q-18 0 -18 -16zM386.5 1147q-5.5 0 2.5 -21q4 -10 5 -26.5t5.5 -24.5t16.5 -10q8 2 12 5t4 7v7t-4 8.5t-7 9.5t-7 11t-8 11q-14 23 -19.5 23zM424 1032q0 -8 4 -39q6 -47 23 -51q8 0 12 10q2 7 2 21q0 18 -23 49q-18 23 -18 10zM506 416q6 0 31 51 q29 59 22 86q-4 16 -20 -18q-6 -14 -13 -35q-29 -84 -20 -84z" />
<glyph unicode="*" horiz-adv-x="821" d="M59 494q-2 6 60 59q74 66 61 84q-8 14 -33.5 12t-33.5 6q-8 10 6 24.5t82 70.5l39 32l-50 72q-123 186 -67 195q27 4 92 -39q86 -57 86 -33q0 23 16.5 22.5t12.5 -12.5q-2 -14 11 -41.5t24 -27.5q8 18 12 103t15 152.5t42 63.5q6 -2 8 -9t1 -15.5t-2 -15.5t2 -12t12 -5 q23 0 28 20q2 25 19 2q16 -25 0 -22q-8 4 -9 -59.5t4 -127t9 -59.5l61 24q31 12 77 19.5t81 4.5t35 -13q2 -8 -53.5 -47t-109.5 -78t-50 -51q-4 -8 27.5 -46t61.5 -75t21 -43q-8 -4 -9 -35t-23 -25q-25 8 -37 -12q-10 -16 -58 8q-51 27 -65 22t-25 -46q-14 -63 -43 -60 q-35 4 -45 84q-2 16 -2 37q0 70 -12 70l-55 -35q-14 -10 -50 -33q-172 -121 -174 -110zM498 686q3 -32 32 -55q33 -29 33 -17q-2 14 -33 54q-33 39 -32 18z" />
<glyph unicode="+" horiz-adv-x="935" d="M61 655q2 10 27 17.5t23 23.5q0 25 4 27q2 0 50 4t90 9t46 9q12 -6 21.5 82t17.5 180.5t12 94.5q8 10 27 -2q23 -18 43 2q16 12 17 10t-13 -18q-23 -16 -5.5 -36t15.5 -30q-8 -51 6 -49q8 2 17 20q12 25 15 27t7 -12q2 -8 8 -39q14 -94 13 -189q254 0 272 -16 q6 -12 49 -16t49 -15q8 -14 -21.5 -32.5t-64.5 -18.5q-20 0 -38.5 -23.5t-30.5 -25.5q-18 0 -10 12q6 14 -93 -4l-102 -18l-12 -72q-16 -96 -28.5 -128t-51.5 -77q-68 -78 -70 -39q-2 10 2 31q2 10 3 17.5t1 12.5t-1 8t-4 4t-6 0l-9 -3q-16 -6 -28.5 12.5t-14.5 53t4 79.5 l12 66l-80 -10q-109 -16 -125 -14.5t-14 32.5q8 37 -10.5 37t-18.5 16zM424 492q2 2 14 20q16 29 11 49q-8 29 -9 0l-12 -49zM424 1145q6 4 22 2q25 -1 25 -17q-2 -14 -31 -2q-27 10 -16 17zM436 836q-12 -33 4 -52q15 -12 15 23q2 37 -6 43q-6 4 -13 -14zM719 729 q0 -2 10 -4q37 -8 74 0q27 4 -6 6q-84 6 -78 -2z" />
<glyph unicode="," horiz-adv-x="485" d="M61 279q-4 53 37 98t117 72q66 23 102.5 24t36.5 -22q0 -29 35 -95q39 -72 33 -149q-4 -70 -27.5 -116t-50.5 -36q-23 8 -22 -8q0 -18 -33 2q-37 20 -66 0q-35 -23 -33 6q0 23 13 31q18 8 24 66q8 49 -3 57t-99 10q-41 2 -51.5 11.5t-12.5 48.5zM98 305q-10 -23 4.5 -44 t32.5 -13q16 8 -4 47q-8 14 -12 21.5t-7 7.5t-6.5 -4.5t-7.5 -14.5zM190 360q0 -10 3.5 -13t6.5 -2t7 5t8 10q8 16 -10.5 16.5t-14.5 -16.5zM289 184q0 -32 16 11q16 41 10 57q-6 18 -18 -16q-10 -27 -8 -52zM309 88q8 -12 29 27q16 33 8 32q-6 0 -24 -24q-23 -25 -13 -35z " />
<glyph unicode="-" d="M62.5 588q0.5 10 25.5 35q61 61 309 67q119 4 138 17q8 16 49 -17q41 -39 14 -49q-23 -14 -12 -47q8 -20 -4.5 -29.5t-63.5 -21.5q-102 -25 -222 -37t-122 2q-10 10 -44 19.5t-48 27.5q-20 23 -19.5 33zM532 619.5q1 -33.5 15 -37.5q10 -6 14 14q8 41 -8 57q-2 2 -6 2 q-16 -2 -15 -35.5z" />
<glyph unicode="." horiz-adv-x="458" d="M61.5 309.5q1.5 18.5 24.5 46.5q37 43 61 43q27 -3 27 9q53 31 129 0t92 -84q8 -27 -50 -87.5t-85 -50.5q-20 6 -20 -6q0 -20 -44 -27.5t-71 9.5q-33 18 -51 86q-14 43 -12.5 61.5zM223 301q0 -31 25 -6q25 23 24 27q-2 4 -24 6q-10 0 -17.5 -8.5t-7.5 -18.5z" />
<glyph unicode="/" horiz-adv-x="729" d="M63 414q-8 2 22 71.5t91 188.5q135 264 178 358q47 113 97 176q51 68 71 62q8 -4 16.5 -5t11.5 -2t5 -7.5t2 -18.5q0 -33 96 -29q8 2 11.5 -5t-0.5 -19q-14 -51 -85 -243.5t-87 -252.5q-43 -145 -54 -147q-2 0 -10 14q-14 23 -22 -6q-6 -16 -3 -19q2 0 7 2q16 10 16 -2 q-2 -18 -37 -69q-10 -16 -26.5 -46t-31 -49.5t-30.5 -29.5q-16 0 -35.5 -15.5t-19.5 -27.5q0 -10 9 -9t16.5 4t7.5 -7q0 -12 -4.5 -16.5t-15.5 -5.5t-19 -7q-14 -8 -20.5 0t-6.5 22.5t-6 23.5t-19 3q-18 -10 -73 14q-29 12 -38 24.5t-3 33.5q6 35 -11 41zM213 393 q0 -12 5 -14t10.5 2t9.5 12q6 14 -7 17q-18 0 -18 -17zM221 461q12 4 58 86q20 37 12 37q-2 2 -14.5 -14.5t-28.5 -45.5q-35 -66 -27 -63zM317 641q4 2 19 21q24 37 24 47q0 35 -24 -19q-2 -6 -6 -14z" />
<glyph unicode="0" horiz-adv-x="991" d="M70 868q16 72 81.5 182.5t110.5 143.5q59 41 146.5 79t126.5 38q49 0 73 16q39 23 80 10.5t103 -63.5q47 -41 65 -76t31.5 -100.5t25.5 -104.5q25 -76 13 -213q-10 -106 -27.5 -156.5t-58.5 -88.5q-35 -32 -35 -50q0 -16 -69.5 -86.5t-84.5 -70.5q-10 0 0 20q6 8 -16 -4 q-10 -6 -29 -18q-78 -57 -159.5 -68.5t-139.5 31.5q-16 12 -46 11t-38 9q-8 18 -49 19q-39 0 -63 45q-25 49 -40.5 237.5t-0.5 257.5zM117 453q0 -18 21.5 -63.5t29.5 -45.5t11 2t2 10.5t-6 19.5t-17 34q-27 53 -37 51q-4 -2 -4 -8zM252 664q-6 -61 2 -62q2 0 4 8q8 27 0 58 q-4 18 -6 -4zM274 554q0 -13 17 -36q14 -23 20 -19.5t19 36.5q82 215 194 428q31 59 35 53q12 -20 35 35q22 59 12 92q-20 61 -51 26q-12 -12 -80 -20q-66 -80 -123 -230.5t-61 -267.5q0 -31 -8.5 -57.5t-8.5 -39.5zM322.5 435.5q-3.5 -17.5 3 -30t22.5 -12.5q27 0 19 -28 q-2 -8 -3.5 -13.5t5 -6.5t15.5 0t28 5q106 20 196 244q68 172 43 158q-4 -2 -12 -15q-10 -16 -10 0q0 10 4 41q2 14 9 59.5t9 69t1 60.5t-9 65l-14 58q-10 -57 -45 -129t-47 -111q-25 -78 -86 -201q-49 -106 -64 -106q-4 -2 -8 8q-12 47 -33 -33q-2 -4 -4 -10l-6 -21 q-4 -8 -7 -21t-6.5 -30.5zM575 444q0 -10 21 21q59 86 53 125q-6 0 -40 -67.5t-34 -78.5zM659 1174q-2 -25 7 -25q10 2 4 25q0 6 -2 10q-7 8 -9 -10zM805 1229q-18 0 10 -49q37 -61 37 -35q-2 10 -12 41q-21 43 -35 43z" />
<glyph unicode="1" horiz-adv-x="622" d="M61 844q0 57 13 57q4 -6 73 74q199 225 213 237q25 25 27 19q12 -20 23.5 -20.5t31.5 16.5q12 10 20.5 12t10.5 -4q2 -47 1 -135t-1 -197.5t1 -206t7 -160t17 -57.5q18 -8 26 -32.5t23 -38.5q29 -27 0 -41q-20 -10 -80 -29q-31 -8 -23 -23q10 -16 -196 -8q-111 4 -119 15 q-6 8 15.5 19t-3.5 21q-31 18 27 52q31 18 74 28l57 15l-8 481l-49 -51q-49 -51 -81 -76t-55 -25q-29 0 -37 9.5t-8 48.5zM340 496q0 -16 17.5 -28.5t25.5 -4.5q14 0 -16 26q-25 21 -27 7zM360 745q0 -45 7 -40q10 8 6 53q-2 10 -4 16q-4 25 -9 -4v-25zM362 997 q-4 -39 3 -41q2 -2 4 7q8 18 0 41q-4 14 -7 -7z" />
<glyph unicode="2" horiz-adv-x="935" d="M74 260q-12 0 20 21q96 57 154 69h6q27 2 146.5 155.5t172.5 250.5q47 92 54.5 127t-13.5 96q-16 47 -67 74q-35 18 -43 -4q-6 -16 -29 0q-20 16 -95 -23t-126 -92q-45 -47 -96.5 -66.5t-75.5 0.5q-43 35 -2 118t113 112q18 6 83.5 32.5t92.5 36.5q25 8 111.5 -13 t111.5 -42q29 -25 35 -2q10 31 71 -29q41 -39 66 -86q61 -121 -19.5 -284.5t-277.5 -315.5l-41 -30q43 -4 94.5 2t57.5 22q-2 12 49 16.5t104 8.5t55 12q25 39 60 -8q39 -51 24 -111q-14 -57 -92 -73.5t-313 -10.5q-287 8 -309 19q-27 12 -82 18zM584 1138.5q-4 8.5 0 16.5 t14 8t14 -8t0 -16.5t-14 -8.5t-14 8.5zM623 242q-10 -12 34 -13q92 2 136 27q4 2 6 4q12 12 6 14h-10q-162 -20 -172 -32z" />
<glyph unicode="3" horiz-adv-x="827" d="M61 1079q0 14 45.5 43t66 29t3.5 18q-16 18 43 37q14 4 27.5 6t20.5 2t7 -4q-2 -10 13 -12q12 -4 14 4q2 2 -2 8t7 13.5t30 9.5q51 6 123.5 -10.5t89.5 -38.5q10 -12 11 -55.5t-5 -107t-6 -75.5q14 -16 74.5 -72.5t101.5 -102.5t41 -69q0 -41 -56.5 -156.5t-95.5 -150.5 q-45 -43 -131 -69.5t-123 -10.5q-41 16 -129 -2q-92 -23 -106 0q-31 51 41 60q100 14 235.5 112.5t135.5 157.5q0 25 -25 75t-57 89q-23 29 -54.5 26.5t-142.5 -36.5q-125 -39 -127 -35q-12 6 6 49q12 29 21 12q8 -16 84 15q66 29 108.5 84t30.5 94q-12 41 -55 62.5 t-88 13.5q-45 -10 -87 -15.5t-66 -4.5t-24 7zM334 360q27 0 74 21t47 31q0 6 -4.5 10t-8.5 2q-31 -2 -96 -49q-20 -14 -12 -15zM483 1196q-16 0 4 -25q29 -33 31 -12q0 20 -20 33q-7 4 -15 4zM520 854q1 -18 17 -18q12 -2 16 4q4 10 -16 20q-14 6 -17 -6zM700 713 q1 -25 17 -25q14 2 2 31q-10 27 -17 16q-4 -6 -2 -22z" />
<glyph unicode="4" horiz-adv-x="1030" d="M61 553q0 35 129 152q137 125 244 274q150 209 176 223q14 8 33 -6q16 -14 23.5 -11t13.5 25q8 37 22 15q14 -20 35 0q27 27 39 18q6 -2 0 -12q-8 -16 10 -23q16 -6 25 -96q4 -84 -10 -63q-23 37 -27 4q-2 -16 4 -45q6 -37 15 -35q4 0 10 18q8 18 8 -14q0 -25 -4 -105 l-2 -86q4 0 78 31q86 39 86 14q0 -10 -15 -32q-16 -25 -26 -83.5t-39 -86.5q-45 -45 -90 -35q-23 4 -33 4t-12 -4q8 -33 -96.5 -191.5t-125.5 -146.5q-18 8 -49 -23q-35 -29 -41 -8q-4 14 -19 11t-17 8q0 18 12 18q14 0 41.5 59.5t19.5 73.5q-10 14 4 15q6 0 12.5 7 t11.5 19.5t9 23.5t9 24.5t7 19.5q-231 -4 -350 -37q-119 -37 -110 -18q2 6 26 16q33 14 35 20.5t-20 26.5q-33 25 -41 16q-4 -8 -9 9q-2 6 -2 16zM274 698q4 -18 25 9q16 20 6 22q-4 4 -8 4t-8 -3t-7 -8t-5.5 -11.5t-2.5 -12.5zM328 643q6 -6 121.5 20.5t123.5 36.5 q12 16 5 222q-14 -16 -80 -86t-114 -124.5t-56 -68.5zM475 903q5 0 23 27q29 39 18 49q-10 6 -27 -25q-27 -51 -14 -51zM653 1077q1 -45 15 -45q8 2 12 5t4 9.5t-2 11.5t-7 15t-7 17q-12 20 -15 -13zM670 477q14 4 26 41q4 12 0 17q-4 2 -9 -3.5t-9 -15.5q-16 -41 -8 -39z M743.5 1133.5q-10.5 -17.5 12.5 -19.5q23 -4 26 16q2 14 -14 17q-14 4 -24.5 -13.5zM752 819l14 21q18 31 12 57q-4 18 -6 18t-4 -18q0 -8 -12 -57z" />
<glyph unicode="5" horiz-adv-x="761" d="M63 784q6 20 29 58q33 51 51 129q16 68 65.5 123t84.5 45q33 -10 41 16q10 29 24 6q10 -18 73 -16t73 20q10 14 57 0q49 -12 51 -47q2 -14 0 -22.5t-10 -12.5t-13 -5t-21.5 -2t-22.5 -1l-86 -6q-53 -6 -86 -57q-33 -55 -30 -73.5t50 -29.5q45 -10 105.5 -42.5t99.5 -67.5 q35 -35 68.5 -105.5t33.5 -115.5q0 -102 -139 -216t-270 -118q-57 -2 -81 7t-60 46q-8 8 -23 22q-33 33 -33 41.5t62 -2.5q61 -12 73 7q8 14 13 8q0 -10 44 5t95 39.5t70 43.5q66 66 61 90q0 6 -6 6q-12 0 -6 31q8 33 -41 82t-114.5 73.5t-97.5 24.5t-59 -27 q-29 -25 -28 -10q-2 31 -19.5 43t-44.5 -2q-45 -25 -33 12zM274 934q0 -10 3.5 -13t6.5 -2t7 5t8 10q6 14 -6 16q-18 0 -19 -16zM299 1016q-6 -15 6 -17t17.5 13.5t-5.5 19.5q-10 4 -18 -16zM422 772q0 -18 16 -18q12 -2 17 4q4 10 -17 20q-14 6 -16 -6zM430 836 q-6 -15 6.5 -17t17.5 13.5t-5 19.5t-19 -16zM479 803q-8 -17 15 -17q20 -2 24 5q8 8 -12 18q-18 6 -27 -6zM574 701q-2 -1 6 -17q4 -12 10 -18q8 -8 10 4q0 10 -12 22q-12 10 -14 9z" />
<glyph unicode="6" horiz-adv-x="876" d="M62.5 553q11.5 166 99.5 340q51 106 81.5 147t59.5 41q10 0 14.5 4.5t-0.5 8.5q-6 6 8.5 27.5t36 40t33.5 18.5t-33 -41q-29 -29 -20 -31q10 -14 49 20q43 35 113 56q113 41 108 18q0 -2 -2 -6q-8 -16 -30 -16q-35 0 -133.5 -156t-168 -311.5t-34.5 -155.5q14 0 6 -16 q-12 -20 10 -43q14 -14 10 -17q-2 0 -12 2q-33 10 -33 -6q0 -14 24.5 -28.5t24.5 -26.5q-2 -8 -10 -5t-15 1t-7 -15q0 -18 11 -24t24.5 1t17.5 26q6 23 8 6q2 -6 2 -15q4 -39 39 -55q18 -8 16 -9t-45 5q-53 8 -53 -2q0 -2 4 -6q12 -12 43 -21.5t53.5 -9.5t26.5 10 q0 18 55 19q35 0 61.5 17t78.5 75q63 70 72.5 91t0.5 85q-12 86 -28 96q-18 12 2 13q25 0 14 20q-10 20 -33 23q-10 2 -18 -4.5t-8 -16.5q0 -23 -47 -22q-37 0 -85 -35t-48 -62q0 -18 -19 -18q-16 0 -6 -35q8 -31 -4 -31q-18 0 -37 39q-4 6 -6 15q-10 27 -1 49t54 73 q74 80 143 123q49 31 70 36t45 -9q29 -16 42 -40t40 -44q35 -27 61.5 -81t26.5 -99q0 -129 -119 -246q-115 -111 -137 -109q-6 0 0 13q10 18 -4 16q-20 0 -29 -16q-8 -16 -140 -7t-167 27q-33 20 -72 109q-18 37 -30.5 55t-17.5 17t-1 -23.5t19 -61.5q18 -53 12 -55 q-2 0 -8 8q-70 74 -58.5 240zM135 708.5q8 -8.5 13 0.5t32 75q31 82 21 76t-39 -67q-35 -76 -27 -84.5zM262 809q-2 -6 4 2q39 49 88 158q12 27 11 30q-2 6 -23 -20q-20 -27 -53 -96.5t-27 -73.5zM424 1192q-4 12 10 12q4 0 12 -2q53 -22 0 -22q-18 -2 -22 12z" />
<glyph unicode="7" horiz-adv-x="790" d="M70 1010q-20 55 14 55q23 0 96 41q63 35 176 62.5t199 27.5q78 0 88 16q8 14 33 5q14 -4 17 -21.5t-3 -62.5q-10 -59 -37.5 -170t-42.5 -148q-8 -18 0 -23.5t45 -5.5q59 0 70 -20q10 -16 -19.5 -38.5t-62.5 -22.5q-88 0 -139 -205q-33 -123 -33 -164q0 -33 -25 -57 q-18 -16 -25 -10.5t-22 59.5q-6 20 -12 4q-2 -2 -6 -13q-4 -14 -49 -122q-6 -12 -4 16q0 10 2 25q6 51 2 51t-21 -23q-51 -76 -51 4q4 104 53 234q43 109 43 119q0 16 -53 16q-39 2 -42 5t22 22q20 14 22 22t-14 17q-23 14 -8 18q113 14 114 18q10 20 47 153.5t33 135.5 q-10 10 -145 -18q-244 -51 -262 -2zM266 1114q-4 -6 6 -8q39 -6 76 14q4 2 6 4q0 4 -10 5t-22.5 1t-25.5 -2t-21.5 -6t-8.5 -8zM348 1081q-37 -14 2 -14t47 14q18 31 -49 0zM513 1117q-10 -17 13 -19q25 -2 25 18q2 12 -14 14q-14 4 -24 -13z" />
<glyph unicode="8" horiz-adv-x="874" d="M61 436q0 145 168 281l-24 57q-61 113 5 218.5t169 119.5q141 18 141 -2q0 -16 21 -8q16 6 39.5 -10.5t91.5 -79.5q41 -39 51 -58.5t4 -48.5q-10 -41 -51 -78q-68 -57 -12 -59q31 -2 76.5 -60.5t60.5 -121.5q14 -49 12 -70.5t-25 -58.5q-106 -186 -452 -217 q-123 -10 -125 12q-2 6 18 14q14 4 -4 8q-8 2 -20 2q-35 0 -92 46q-33 29 -42.5 49t-9.5 65zM226 777q1 -3 5.5 -7t10.5 -8q14 -6 16 6q0 18 -16 18q-10 0 -13.5 -3t-2.5 -6zM241 432.5q1 -16.5 23 -33.5q31 -23 45 -12q14 4 15 -8q0 -14 -17 -19h-10q-23 0 -14 -18 q8 -16 77.5 -13t90 19.5t20.5 5.5q0 -6 55 37q41 33 43 17q10 -18 33 10q18 20 8 20q-4 -2 -14 -6q-51 -18 2 53q2 4 4 7q27 33 27 22q0 -2 -4 -14q-8 -20 -4 -23q4 0 10 6q29 45 -19 142q-31 59 -51 55q-4 -2 -8 -8q-10 -12 -20.5 -3t-24.5 23.5t-19 12.5q-23 -4 -69.5 -29 t-46.5 -35q0 -14 -21 -8q-25 8 -52.5 -29t-45.5 -102q-14 -53 -13 -69.5zM315 827q25 -8 72 -8q80 0 143 51q100 80 82 111q-10 14 -92 14t-90 -14q-6 -10 -39 -2q-20 6 -43.5 -14.5t-30 -44t8.5 -35.5q14 -10 12 -14.5t-19 -12.5q-47 -16 -4 -31zM528 360q-6 -14 6.5 -16 t17.5 13.5t-5 19.5t-19 -17z" />
<glyph unicode="9" horiz-adv-x="827" d="M64.5 816.5q-17.5 101.5 39.5 178.5q33 47 94.5 85t118.5 48q57 12 175 0q86 -6 111.5 -17t70.5 -62q61 -66 76.5 -108t15.5 -146q0 -139 -42 -227.5t-155 -184.5q-195 -166 -213 -109q-6 18 -39 2q-45 -25 -43 -2q2 18 45 58q57 55 56 63q-4 12 90 84q90 70 131 142 q37 63 20 65q-10 0 -47 -24q-41 -29 -155.5 -36.5t-163.5 17.5q-14 6 -49 21.5t-47 21.5q-72 29 -89.5 130.5zM221 831q0 -37 8.5 -48t38.5 -17q49 -8 84 0t76 28.5t74 28.5q51 14 63.5 26.5t14.5 55.5q4 43 -14.5 78t-43.5 29q-10 -4 -57 20q-45 23 -74 -2q-16 -12 -17 -8 t4 17.5t-9 17.5q-17 8 -17 -8q0 -18 -41 -33q-37 -14 -63.5 -68.5t-26.5 -116.5zM238 721q0 -18 17.5 -16t23.5 16q6 16 -15 16q-27 -2 -26 -16zM319 721q0 -10 25 -13t51.5 2t32.5 15q2 4 -10 8q-45 10 -88 -2q-12 -4 -11 -10zM501 1105q1 -3 5 -7t10 -8q14 -6 16 6 q0 18 -16 18q-10 0 -13 -3t-2 -6zM563 705q19 4 25 24q8 25 2 23q-4 0 -25 -23q-16 -25 -2 -24zM600 944q-2 -25 6 -22q10 0 6 26q0 4 -2 6q-4 12 -8 4q-2 -4 -2 -14z" />
<glyph unicode=":" horiz-adv-x="438" d="M63 232.5q0 7.5 13 48.5q33 74 125 100q47 12 105.5 -13.5t58.5 -58.5q0 -41 -40 -95t-85 -75q-53 -27 -98.5 -16.5t-53.5 49.5q-4 18 -14.5 35.5t-10.5 25zM70 709q0 41 37.5 95t82.5 73q57 25 78 24q18 0 56 -30.5t43 -47.5q0 -6 8 -55q12 -72 -91.5 -120t-172.5 -3 q-41 27 -41 64zM163 244q7 -10 32 -2q18 8 21 -10.5t-15 -18.5q-16 0 -17 -16q0 -10 14.5 -14.5t34 0.5t31.5 18q31 31 15 41q-6 4 -19 0q-10 -4 -15 0t-3 16q2 27 -25 33t-45 -17q-16 -20 -9 -30zM172 731q2 -10 49 -10q41 2 41 12q-6 8 9.5 37t4.5 41q-4 14 -10 19.5 t-14 2t-18.5 -14.5t-26.5 -32q-37 -45 -35 -55zM190 645q4 -10 29 -2q16 4 2 8q-4 2 -10 2q-23 0 -21 -8zM252 780q-2 7 0 17q2 18 6 16q8 -2 6 -29q0 -8 -4 -10q-4 -6 -8 6zM292 320.5q-1 -5.5 1 -12.5t5 -14t6 -11t5 -4q4 2 6 15t-3 24.5t-13 9.5q-6 -2 -7 -7.5zM326 756 q-8 -17 6 -19q12 -2 15 13.5t-5 19.5t-16 -14z" />
<glyph unicode=";" horiz-adv-x="522" d="M61.5 -30.5q-0.5 14.5 22.5 14.5q45 0 115 94q66 86 37 102q-4 2 -9 2h-29.5t-20.5 1t-18 6.5t-26 15.5q-39 25 -41 78t33 98q35 43 92 41q29 -2 49.5 4t30.5 4t35 -22q25 -23 30 -48.5t0 -99.5q-8 -133 -55 -209t-143 -108q-66 -20 -82 -4q-20 16 -20.5 30.5zM88 701.5 q-2 29.5 49 82.5q59 61 103 82q100 39 150 -13t-19 -124q-37 -41 -29 -49t33.5 22.5t54.5 77.5q23 39 31 17q6 -18 -15 -56q-23 -43 -102 -90q-55 -30 -55 -10q-4 16 -19.5 3t-5.5 -23q8 -10 -12 -15q-51 -6 -100 23q-4 2 -7 4q-55 39 -57 68.5zM195 733q1 -12 24 -12 q31 0 4 -16q-31 -18 -8 -29q14 -6 37 6q10 6 30.5 8t33 8.5t14.5 22.5q2 12 -7.5 16t-19.5 5t-16 8.5t-2 21.5q10 29 2 29t-45 -19q-51 -25 -47 -49zM209 284q2 -38 14 -38q18 0 34.5 26.5t8.5 46.5q-16 43 -47 13q-12 -10 -10 -48z" />
<glyph unicode="&#x3c;" horiz-adv-x="739" d="M61 506q4 16 19 18q16 0 10 21q-8 27 99.5 129t222.5 180q174 117 157 78q-4 -8 -16 -23q-14 -14 -12 -17t18 3q29 8 29 37q0 37 10 2q4 -14 18.5 -28.5t13.5 -21.5t-20 -36l-18 -25l8 6q33 21 35 9q0 -16 -53.5 -65.5t-71.5 -51.5q-18 0 -27 -23q0 -10 -56 -40.5 t-117.5 -60.5t-65.5 -34q-12 -10 43 -47t140 -78t153 -61q51 -14 77.5 -45t16.5 -59.5t-58.5 -32.5t-114 13t-135 47t-131 73t-94.5 86q-35 45 -57 37q-20 -8 -23 10zM176 528q2 -20 25 -36q25 -16 24 -5q-2 20 -24 37q-25 16 -25 4z" />
<glyph unicode="=" horiz-adv-x="1021" d="M76 610q-10 31 6 120t31 89q4 0 5 -10t0 -22.5t-2 -24.5t2 -19.5t11 -5.5q8 -2 12 6.5t5 17.5t6.5 15t13.5 2q16 -12 72 15q53 27 227 46t190 3q14 -14 85 -1t89 31q6 8 30 -4t28 -6q4 4 12 -10q4 -10 8 -25q10 -41 37 -41q10 0 13.5 -2t1 -7t-12.5 -15 q-6 -6 -19.5 -22.5t-22.5 -25.5t-25.5 -17.5t-34.5 -8.5q-41 0 -41 -18.5t-45 -7.5q-27 6 -156 -1.5t-269 -18.5t-149 -11q-57 -4 -75 -23q-25 -18 -33 2zM78 430q-41 14 22 23q66 10 277 14q301 8 305 12q10 8 82 8t78 -10q6 -14 43 -6q29 8 28 -8q0 -14 -16 -74 q-12 -43 -25.5 -52t-38 -4t-69.5 -5q-449 -109 -584 -54q-51 23 -66.5 42.5t-15.5 64.5q0 41 -20 49zM137 375q6 -33 37 -64q20 -18 21 -14q0 4 -5 18q-4 16 3.5 23.5t31.5 9.5q25 4 27 6l-35 4q-45 4 -51 17t27 33q25 16 8 14q-10 0 -43 -8q-27 -6 -21 -39zM264 776 q-10 -10 109 4q98 13 127 25q20 8 6 10h-39q-53 0 -123 -13.5t-80 -25.5zM545 385q0 -2 6 -4q22 -8 49 0q23 6 -6 8q-49 4 -49 -4zM768 367q8 0 27 4q49 10 55 16t-6 6q-43 2 -74 -16q-18 -12 -2 -10z" />
<glyph unicode="&#x3e;" horiz-adv-x="1005" d="M61 846l31 -12q27 -12 39 -21q18 -10 4 -10q-29 0 -53 26q-18 14 -21 17zM92 225q-4 8 19.5 22.5t42 30t4.5 25.5q-4 6 0 14.5t21.5 20.5t47.5 27q268 133 424 186q98 33 99 39q0 2 -7 8q-8 8 -67.5 20.5t-116.5 18.5t-57 0q-10 -14 -74 16q-27 14 -25 21q0 12 -69 31 q-80 20 -118 43.5t-71 74.5q-41 66 -24 76q45 29 242.5 -15t273.5 -100q47 -30 57 -30q6 0 80 -33t82 -33q27 0 42 -26.5t-1 -43.5q-16 -20 -8 -30t33 -2q23 8 22 -8q0 -20 -311 -191q-510 -279 -506 -233q0 14 55 63q66 57 45 57q-12 2 -57 -26q-74 -39 -78 -23zM264 862 q23 -8 24 6.5t-16 16.5h-8q-53 0 0 -23zM332 852q12 -15 145 -33q-72 35 -133 47q-31 4 -12 -14z" />
<glyph unicode="?" horiz-adv-x="743" d="M64 784.5q-5 24.5 2 96.5q10 86 36.5 144t53.5 48q10 -4 12 0q0 2 -2 8q-2 8 7 16.5t30 16.5q29 10 86 41q82 45 82 2q0 -16 52 -34.5t56 -26.5q8 -14 64 -39q51 -20 87 -74.5t36 -112.5q0 -66 -63.5 -177t-125.5 -154q-66 -47 -88 -47q-12 -2 -17 -8.5t-5 -26t-2 -27.5 q-6 -33 0 -35t51 17q104 41 184 34q18 -2 24.5 -5t4.5 -9t-13 -18q-14 -18 -10 -19l4 2q27 16 31 -20q4 -33 -16 -70q-18 -37 -15 -37q2 -2 6 2q18 18 41 82q16 41 19 43q4 4 4 -4q2 -6 2 -18q2 -70 -121 -167t-190 -81q-47 12 -59.5 73.5t18.5 133.5q8 20 4 24t-33 -4 q-45 -8 -45 11q0 20 -16 -5q-25 -39 -25 2q0 18 6 52q4 27 74 111.5t76 97.5q0 8 43 28.5t74.5 96t21.5 131.5q-6 39 -15.5 46t-37.5 -1q-29 -6 -31 -2q0 2 10 10q39 29 -28 43q-35 6 -43 -21q-10 -25 -33 -6t-82 -41q-47 -47 -53.5 -77.5t18.5 -96.5q10 -29 -25 -43 q-25 -10 -42 -3t-46 38q-33 35 -38 59.5zM397 215q-8 -16 6 -18q12 -2 15.5 13t-4.5 19t-17 -14zM420 301q-2 -16 24 -27q25 -8 52 23q20 23 18 27t-31 4q-59 0 -63 -27zM446 211q3 -12 23 -14q31 -2 32 12t-24 16q-23 0 -31 -14z" />
<glyph unicode="@" horiz-adv-x="1167" d="M62.5 624.5q5.5 94.5 33.5 170.5q49 133 177 263t192 113q39 -8 39 6.5t31 6.5q27 -6 77 18q49 27 131 27q55 0 83 -12.5t92 -65.5q92 -82 92 -107q2 -12 6 -18t10 -4q16 10 37 -45q18 -55 33 -162q14 -100 10 -135t-39 -129q-35 -96 -75.5 -159.5t-67.5 -63.5 q-18 0 18 37q43 45 35 50t-55 -36q-59 -51 -86 -51q-18 0 -18.5 2t20.5 18q20 16 10 21q-6 2 -37 4q-51 8 -90 30q-29 16 -42 14.5t-61 -24.5q-94 -47 -150 -22.5t-89 127.5q-27 82 -16.5 141t59.5 127q86 121 182 123q59 4 64 14q6 10 38.5 -17.5t67.5 -67.5t43 -64 q14 -41 -7.5 -130t-51.5 -116q-27 -20 -6 -43q23 -27 53.5 -19.5t64 51.5t66.5 115q29 61 16 156q-12 76 -12 121q0 6 -2 11t-4 7t-6 0q-2 -2 -6 3t-9.5 15.5t-7.5 24.5q-10 47 -63 92q-33 27 -55.5 33t-67.5 0q-205 -27 -293 -104q-76 -70 -80 -115q-2 -14 8 -16 q20 -6 17.5 -21.5t-23.5 -15.5q-25 0 -56.5 -69.5t-33.5 -125.5q0 -33 5 -42t20 -3q14 4 16 1t-8 -23q-43 -84 18 -144q45 -45 70 -78q20 -33 45 -36.5t135 0.5q152 8 176 18q16 8 21.5 1t3.5 -34q-2 -29 -17.5 -42t-64.5 -29q-51 -18 -85 -19.5t-120 15.5q-125 23 -176 55 q-41 25 -117 108.5t-100 130.5q-23 43 -17.5 137.5zM289 311q-33 0 4 -24q8 -4 18 -11q27 -16 27 -12q2 2 -12 19q-23 28 -37 28zM412 662q-8 -43 22 16q6 8 10 18q41 80 37 84t-19.5 -16.5t-30.5 -51t-19 -50.5zM500 519q4 -19 20.5 -22t26.5 -3t38.5 9t35.5 11 q33 6 57 104q23 78 -6 107q-25 27 -8 29q18 2 24 -21q6 -10 10 6q0 29 -30 35q-25 2 -25 -4q2 -4 -2 -9t-14.5 -10.5t-22.5 -9.5q-86 -31 -104 -168q-4 -35 0 -54zM633 199q12 2 41 12q29 12 14 20q-23 10 -47 -10q-33 -25 -8 -22zM879 410q20 2 26 18q14 23 3 24.5 t-27 -18.5q-23 -27 -2 -24z" />
<glyph unicode="A" horiz-adv-x="983" d="M61 188q6 106 14.5 140t63.5 157q28 56 28 85q0 9 -3 16q-8 27 12 41q10 12 -29 12q-31 0 -32 2q-2 2 6 8q10 4 47 21q43 20 59.5 39.5t28.5 64.5q23 74 39 86q18 16 55 96q30 66 30 83q0 4 -1 5q-5 6 -10 6q-17 0 -39 -53q-6 -14 -11 -30q-17 -59 -24 -59h-1q-2 1 -2 9 q0 16 11 60q12 43 64.5 114.5t72.5 71.5q10 0 11 -37q2 -20 4 -20t20 39l25 55q4 -4 17 -18.5t21.5 -23.5t21 -18.5t22.5 -9.5q20 0 86 -139q48 -101 72 -123q20 -19 62 -19q7 0 15 1q16 2 24.5 -5t2.5 -17.5t-25 -14.5q-23 -6 -14 -27q8 -18 24 -8q12 6 15 -10 q2 -27 -13 -31h-4q-10 0 -14 -9t2 -36.5t19.5 -69.5t37.5 -116q40 -117 48 -153q2 -12 3 -22q0 -21 -10 -36q-8 -12 -16 -46t-31 -38q-96 -14 -108 -21q-17 -8 -27 -8q-8 0 -10 6q-6 12 8 60q17 56 17 115q0 34 -6 68q-16 95 -62 149q-31 35 -31 55q0 21 -28 21 q-22 0 -60 -13q-12 -4 -27 -10q-27 -10 -63.5 -18.5t-54 -13.5t-38 -23.5t-32.5 -53.5q-18 -49 -131 -163.5t-121 -131.5zM170 369q78 86 106 139q8 12 13.5 24.5t5.5 18.5t-2 6q-18 0 -92 -131zM442 823q-4 -11 -4 -19q0 -19 22 -18h7q33 2 57 23q33 20 54 14q20 -7 20 7 q0 16 -49 108q-53 94 -55 94q-4 -12 -26 -104t-26 -105z" />
<glyph unicode="B" horiz-adv-x="864" d="M61 246q0 66 20 66t3 12q-6 5 -6 35q0 49 16 167q31 219 31 392q0 203 20 219q18 18 25 2q14 -39 32.5 -49.5t61.5 -2.5q59 10 59.5 43t18.5 33q10 -4 8 -19.5t0 -20.5t35 3q48 13 122 13q15 -1 33 -1q96 -4 132 -22q56 -32 74 -146q5 -31 5 -57q0 -70 -34 -106l-35 -37 l45 -59q75 -89 75 -250q0 -155 -77 -240q-72 -76 -102 -78q-88 -4 -144 -26q-66 -29 -162 -41q-41 -5 -67 -6q-36 0 -45 10q-16 18 4 12q12 -4 30 -4q27 0 69 8q70 14 77 33q6 16 -6 16t-27.5 -5t-19.5 7q-6 13 -37 17q-18 0 -97 7t-100 7q-25 0 -31 12.5t-6 55.5zM100 348 q6 -2 13 12q12 28 12 53q0 11 -2 21t-10 -8q-4 -10 -9 -27q-7 -26 -7 -39q0 -9 3 -12zM129 485v-9q0 -16 6 -13q10 0 6 26q0 4 -2 7q-4 12 -8 4q-2 -5 -2 -15zM150 571q-2 -16 -2 -25q0 -15 4 -16q2 -2 4 7q8 18 0 41q-4 14 -6 -7zM233 272q-4 -9 -4 -15q0 -10 11 -11 q12 0 61 6q141 23 143 35q0 4 -10 10q-23 14 12 14q29 0 105 77t90 116q2 7 2 16q-1 20 -13 52q-18 46 -16 57q4 16 -16 35.5t-37 13.5q-10 -8 -54 9.5t-56 2.5q-25 -27 -35 -18q-8 6 6 24q16 20 4 21q-8 0 -45 -8q-53 -14 -71.5 -48t-18.5 -126q0 -125 -58 -263zM270 896 q10 -114 23 -189l84 32q82 33 130 67q41 29 41 48q0 3 -1 6q-8 23 24 51q27 25 30 53.5t-19 49.5q-23 16 -45 -2q-25 -25 -13 8q6 16 -4 26.5t-45 18.5q-52 14 -92 14q-78 0 -113 -53q-5 -8 -5 -42q0 -32 5 -88zM360 301q-2 1 -2 3q0 3 9 5q6 2 16 0q18 -2 16 -6 q-2 -8 -28 -6q-9 0 -11 4zM412 156q-2 -2 6 -4q9 -4 19.5 -4t21.5 4q14 4 -6 6q-39 4 -41 -2zM722.5 380q1.5 0 12.5 9q12 14 12 22q0 4 -2 7q-1 1 -2 1t-3 -1q-3 -2 -7 -7t-6 -14q-6 -17 -4.5 -17z" />
<glyph unicode="C" horiz-adv-x="974" d="M61 522q0 49 31 153.5t68 176.5q98 197 336 272q58 18 130 20q9 0 18 1q56 0 65 -15q8 -16 63 -16q58 0 76 -26q8 -12 9 -32q0 -22 -11 -52q-16 -49 -21 -50q-4 0 -6 33q-2 27 -14 39t-41 18q-49 8 -57 23q-16 4 -57.5 -12.5t-92.5 -42t-53 -27.5q-72 -33 -140 -168 q-55 -109 -54 -182q0 -17 3 -33q10 -57 70.5 -143t99.5 -101l72 -30q12 -6 33 -6q47 0 136 32q128 46 169 101q20 18 20 4q0 -25 -36 -62q-31 -35 -21 -35q4 -2 12 3q12 4 20.5 6t8.5 0q0 -12 -86 -65.5t-121 -61.5q-25 -8 -38 -16q-11 -6 -11 -12q0 -9 -154 -9 q-207 0 -207 44q0 3 1 7q2 2 4 6q2 6 -3.5 10.5t-15.5 4.5q-25 0 -14 -21l4 -10l-4 2q-6 8 -11 16t-8.5 14.5t-11.5 14.5t-22 16q-41 27 -89.5 101.5t-48.5 109.5zM162 723q14 4 26 41q4 12 0 16q-4 2 -9 -3t-9 -15q-11 -27 -11 -36q0 -4 3 -3zM258 377q0 -21 16 -25 q5 -2 8 -2q8 0 9 10q0 20 -17 25q-16 6 -16 -8zM274 951q0 -2 5 1q4 2 16 13q29 24 29 28q0 23 -35 -22q-15 -18 -15 -20zM291 469q0 -29 26 -53q14 -18 17 -21l-12 31q-12 27 -21 39q-10 18 -10 4zM821 1048q4 -4 10 -8q4 -2 8 -2q7 0 9 9q0 18 -17 18q-10 0 -13 -3 q-2 -2 -2 -4q0 -4 5 -10z" />
<glyph unicode="D" horiz-adv-x="978" d="M63 164q-1 10 -1 31.5t1 54.5q18 301 25 364q14 163 14 236q0 55 -8 59q-4 2 -10 -2q-12 -6 -4 -26q4 -8 3 -10.5t-9 1.5q-16 10 -7 60.5t29 50.5q23 0 23 25q-2 16 39 38.5t32 38.5q-2 6 0.5 12.5t12.5 10.5t25.5 7t40 5t71.5 10.5t82 13.5q29 4 62 4h13q40 -1 66 -13 q39 -18 53 -18q7 0 7 5q-2 4 -7 13q-10 14 9 10l12 -4q10 -4 48 -18.5t65.5 -28t42.5 -27.5q66 -61 114 -244q12 -46 12 -99q0 -86 -32 -188q-51 -164 -142 -235q-68 -53 -180 -104.5t-168 -55.5q-43 -2 -77 -14t-91 -12q-80 0 -98 32q-14 20 -21.5 22.5t-23.5 -13.5 q-20 -18 -23 8zM74 713q-2 28 -2 45q0 26 5 26h1l2 -10q4 -18 4 -34t-4 -31q-4 -20 -6 4zM154 1075q-1 4 -1 8t1 9q0 16 3 16h1q8 -2 8 -29q0 -8 -4 -10q-4 -6 -8 6zM160 197q16 -18 56 -17.5t77 19t29 39.5q-10 25 6 24q12 0 30 -18q6 -6 19 -6q31 0 101 42q97 58 149 121 q97 127 97 267q0 62 -19 127q-17 66 -17 76q0 21 -51 59q-55 40 -107 55q-70 18 -77 33q-6 14 -47 14q-33 0 -47.5 -59.5t-45.5 -317.5q-29 -240 -120 -381q-34 -53 -34 -71q0 -4 1 -6zM178 160q-3 -2 -3 -4q0 -4 9 -9q25 -16 62 -16t37 16q6 6 -19 13q-32 6 -53 6t-33 -6z M268 934q4 -2 8 12q8 30 8 55q0 15 -3 27q-2 4 -5 4l-8 -22q-9 -38 -9 -57t9 -19zM760 649q0 -5 -1 -9q0 -15 6 -15h1q6 1 6 10q0 5 -2 14q0 6 -2 10q-2 2 -3 2q-4 0 -5 -12z" />
<glyph unicode="E" horiz-adv-x="763" d="M61 285q-2 29 35 198q18 86 50 323.5t38 336.5q1 32 13 32q11 0 30 -24q18 -25 98.5 -25t178.5 25q41 9 63 9t25 -9q8 -21 37 -21q12 0 30.5 -11t28.5 -24.5t4 -17.5q-18 -12 -133 -39.5t-190 -40.5q0 -2 -4.5 -71.5t-4.5 -109.5t9 -54q10 -10 62 0t113.5 24.5t61.5 10.5 q7 -7 7 -14q0 -22 -56 -52q-35 -18 -76 -31q-68 -20 -85 -34.5t-29 -55.5q-16 -66 -17 -106q0 -33 9.5 -39t52.5 -6q70 0 135 20q47 16 64.5 16.5t29.5 -16.5q23 -23 10 -41q-8 -12 2 -12q6 0 19 4q31 6 30 -4q2 -4 -7 -10t-29.5 -15.5t-53 -18.5t-79 -21.5t-101.5 -24.5 q-51 -10 -87 -23.5t-64.5 -20.5t-85.5 -11q-80 -4 -111 -13q-5 -1 -9 -1q-14 0 -14 18zM158 498q6 -4 12 14q12 35 12 62q0 12 -2 22q-2 12 -10 -8q-4 -12 -8 -31q-6 -33 -6 -48q0 -9 2 -11zM195 487q-2 -15 -2 -25q0 -15 6 -13q14 2 20 45q2 8 2 14q8 51 0 49 q-10 -2 -26 -70zM242 918q4 -4 10 -9q14 -6 16 6q0 18 -16 19q-10 0 -13 -3q-2 -3 -2 -5t5 -8zM285 455q2 -31 14 12q12 48 12 63q0 7 -2 7q-1 1 -2 1q-3 0 -8 -12q-14 -28 -14 -62v-9zM358 379q-2 -6 11 -8q36 2 63 16q0 6 -16 7h-6q-14 0 -30 -4q-18 -5 -22 -11z" />
<glyph unicode="F" horiz-adv-x="899" d="M62 350q-1 6 0 18q0 30 6 95q8 92 24.5 155.5t24.5 110.5q25 145 67 291q6 20 37 24.5t29 36.5q0 39 4 56q4 14 43 -29q35 -39 55 -40h2q23 0 133 30q123 33 152 33q9 0 9 -3.5t-9 -9.5q-2 -2 -6 -4q-25 -14 8 -14q58 4 74 18q4 4 28.5 1t28.5 9q8 18 43 19q24 0 24 -4.5 t-22 -24.5q-27 -29 -61 -45q-16 -6 -18.5 -11t5 -9t14.5 -10.5t7 -12.5q0 -25 -64.5 -50.5t-167.5 -39.5q-156 -23 -183 -44.5t-27 -123.5v-113l135 39q72 20 104.5 28.5t55 8.5t27.5 -9t5 -30q0 -25 -11 -34t-50 -15q-59 -10 -176 -37q-84 -23 -101.5 -35t-31.5 -63 q-25 -80 -66 -154q-37 -66 -45 -65h-1l-11 14q-16 41 -37 49q-10 2 -10 -10q0 -18 -27 -18q-16 0 -20 22zM102 384q3 -6 8 -6q2 0 4 1q8 4 15 22q12 33 -8 33q-14 0 -19 -24q-2 -9 -2 -15.5t2 -10.5zM242 721l4 -25q2 2 12 37q12 38 12 63q0 11 -2 19q-2 11 -6 11 q-5 0 -12 -27q-8 -32 -8 -65v-13z" />
<glyph unicode="G" horiz-adv-x="1052" d="M61 496q0 195 160 387q76 88 175 151q83 55 130 55q8 0 15 -2q37 -8 43 9q12 20 43 20q14 0 33 -4q57 -14 122 -63q93 -67 93 -105q0 -14 -13 -24q-4 -4 -12 -7q-12 -4 -16.5 -2t0.5 13q1 3 1 6q0 37 -155 37q-74 0 -164 -36t-131 -81q-31 -35 -74 -129t-43 -127 q0 -23 -12 -80q-1 -8 -1 -15q0 -42 36 -85q45 -53 65 -54q25 0 35 -18q10 -12 -10 -10q-43 10 -45 8q-2 -4 2 -10q6 -12 42 -17.5t42 -17.5q8 -16 57 -16t58 16q6 12 23.5 8t17.5 4q0 11 28 11q14 0 35 -3q41 -4 57.5 1.5t30.5 25.5q20 35 41 35q18 0 53 49q29 41 21 41 q-4 0 -15 -4q-18 -8 -18 -2q0 4 20 37q20 31 20.5 42t-22.5 35q-16 20 -39 25q-18 5 -51 5q-12 0 -26 -1q-117 -6 -117 -30q0 -8 12 -15q23 -14 6 -22q-4 -2 -12 -2q-20 0 -66 14q-65 20 -69 37q-1 2 -1 4q0 19 45 60q50 46 95 65q55 25 115 25q78 0 164 -42 q59 -27 73.5 -45t24.5 -75q7 -41 7 -75q0 -88 -46 -134q-39 -39 -39 -61.5t-32.5 -36t-139.5 -33.5q-97 -18 -234 -18h-35q-161 3 -194 26q-41 31 -82 71q-40 37 -50 37q-3 0 -3 -4q2 -14 45 -59q33 -37 27 -39q-2 0 -14 6q-29 16 -82 70q-35 35 -42.5 60.5t-7.5 107.5z M586 672q-2 -5 -2 -9q0 -7 8 -8h3q10 0 14 13q5 16 -5 20t-18 -16zM627 1069q-2 -6 23.5 -12t51 -4t23.5 12q4 16 -53 16q-45 0 -45 -12zM698 696q0 -2 7 -4q11 -4 23 -4t26 4q10 3 10 5t-16 3h-22q-27 0 -28 -4z" />
<glyph unicode="H" horiz-adv-x="1134" d="M68 455q-6 9 -6 22t6 30q12 34 30 34q23 0 23 32q0 20 11 26.5t50 6.5h66q19 208 19 283q0 31 -3 39q-8 18 10.5 54t18.5 40q4 23 9 22.5t21.5 -20.5t19.5 -20t11 18q6 14 21.5 21.5t28 3t12.5 -18.5q10 -324 30 -344q3 -3 16 -3q54 0 273 52q33 8 42 25.5t28 93.5 q8 37 15 86t14.5 83.5t21.5 63.5q10 6 15.5 40t17.5 38q14 0 6.5 -57t9.5 -57q20 0 13 14q-14 20 2 45t38 18q29 -6 35 19q4 12 4 -49q2 -45 2 -119v-33q0 -123 6.5 -146.5t41.5 -41.5q14 -8 24 -15q2 -2 2 -4q0 -5 -10 -12q-14 -8 -33 -61q-14 -47 -51 -64 q-35 -18 -61 -106q-76 -246 -121 -246h-2q-63 4 -35 -19q14 -10 14 -16t-14 -16q-22 -15 -34 -15q-15 0 -15 23q0 8 -7.5 16t-17.5 8q-14 0 -19 8.5t-3 30t11 54t25 84.5q34 101 34 119q0 3 -1 3h-9q-33 0 -110 -12q-88 -14 -104 -16q-47 -4 -62.5 -13.5t-15.5 -30 t-27.5 -95t-27.5 -97.5q-2 -39 -25 -47q-16 -4 -20 21v4q0 35 -10 4q-8 -27 -25 -45q-25 -31 -37 12q-3 12 -3 28.5t3 37.5v26q-4 -4 -27 -63q-33 -94 -51 -95q-14 0 -6 29q33 115 51 238q4 33 4 48t-4 22.5t-14 7.5q-25 0 -16 -23q8 -27 -12.5 -35t-45.5 15q-29 27 -47 8 q-16 -16 -24 -2zM164 544q-3 -5 -4 -10q0 -9 16 -10q23 -4 27 17q2 14 -15 16q-14 5 -24 -13zM664 557q-2 -2 -2 -4q0 -7 40 0q41 8 41 22l-4 13q-55 -14 -75 -31zM776 270q5 -2 9 -2q13 0 19 18q8 24 1 52q-6 31 -25 -14q-11 -27 -11 -40q0 -11 7 -14zM881 817 q-2 -16 -2 -25q0 -15 4 -16h1l3 6q8 18 0 41q-4 14 -6 -6zM889 918q2 -4 4 -4l8 16q5 13 5 27q0 10 -3 20q-2 29 -4 31l-10 -45q-2 -18 -2 -29t2 -16z" />
<glyph unicode="I" horiz-adv-x="620" d="M68 215q-7 9 -7 17q0 21 50 28q18 2 43 2q55 0 59 19q2 8 -18 14q-18 0 -2 12q12 8 18 129t9 323t3 208h-55q-37 0 -44 5t1 32q29 90 168 104q100 12 119 25q18 11 31 11q20 0 30 -26q2 -8 -2 -12t-14 0q-20 8 -23 -21q-2 -33 21 -36q4 -2 8 0q29 0 29 -17q0 -18 -35 -31 q-25 -8 -29 -37.5t-8 -170.5q-4 -219 -17 -332q-4 -51 -4 -81q0 -46 9 -46q16 2 53 -20.5t59 -22.5q39 0 39 -14.5t-41 -14.5q-23 0 -32 -8t-9 -29q0 -59 -95 -77q-26 -5 -50 -4q-66 0 -123 34q-42 25 -73 25q-9 0 -17 -2q-37 -10 -51 14zM305 1065q6 -14 23.5 -16t17.5 16 q2 8 -12 14q-9 3 -15 3q-11 0 -14 -9q-1 -2 -1 -4t1 -4zM420 213q-2 -5 -2 -8q0 -7 8 -8h3q11 0 15 13q2 5 1 9q0 8 -7 10q-2 1 -3 1q-8 0 -15 -17z" />
<glyph unicode="J" horiz-adv-x="1101" d="M61 940q0 18 58 41q260 109 805 227q37 8 64 8q14 0 26 -2q25 -5 25 -9q0 -3 -11 -5q-27 -6 -31 -22q3 -13 17 -15q17 0 17 -7q0 -11 -36 -38q-10 -8 -24 -16q-45 -31 -170 -72q-90 -29 -104.5 -42t5.5 -54q29 -51 36 -169q2 -31 2 -60q0 -82 -15 -152q-8 -35 -14 -75 t-11.5 -61.5t-13.5 -39.5q-4 -4 -23.5 -28.5t-39 -47t-27.5 -25.5q-16 -8 -12 -18q4 -14 -27 -29.5t-85 -25.5t-112 -13h-30q-118 0 -160 29q-47 33 -64 148q-4 30 -4 47q0 26 9 26q4 0 12 -4q6 -2 13 -2q21 0 50 18q37 25 43 27q16 4 19.5 -2t-0.5 -31q-4 -31 2 -32 q4 -2 8 2q18 10 34.5 -29t44.5 -40h2q28 0 91 34q92 51 108 100q7 24 7 84q0 61 -8 160q-8 86 -12.5 125t-11.5 65.5t-13 30.5t-19 4q-66 0 -229 -65q-55 -24 -80 -24q-13 0 -18 7q-4 6 6 14.5t26 12.5q43 10 43 23q-1 12 -34 12q-19 0 -50 -4q-25 -3 -42 -3q-42 0 -42 17z M626.5 478q2.5 0 12.5 9q20 20 12 29q-2 2 -5 0t-8 -7t-7 -13q-7 -18 -4.5 -18zM924 1139q27 2 39 20q2 3 2 5.5t-2 4.5q-3 3 -8 3q-8 0 -23 -9q-17 -15 -17 -20q0 -4 7 -4h2z" />
<glyph unicode="K" horiz-adv-x="1126" d="M62 225q0 92 18 168q25 109 33 406q5 152 5 218q0 22 -1 34q-2 49 -21 57q-31 10 -6 37q18 18 47 18q16 1 35 17q14 12 28 12q5 0 11 -2q8 -6 28.5 -7t28.5 -7.5t2 -28.5q-8 -33 -22.5 -33t-14.5 -16q0 -14 25 -6q14 6 19.5 -5.5t6.5 -48.5q0 -57 33 -266q29 20 126.5 88 t172 121t97.5 74q18 18 28.5 16t26.5 16q18 18 65.5 27.5t67.5 26.5q31 20 37 10q0 -11 29 -11q15 0 37 3q26 4 41 4q20 0 21 -7q0 -1 -1 -3q-14 -31 -150 -64q-31 -8 -88 -61q-201 -188 -200 -213q-2 -18 -66 -90q104 -244 133 -332q23 -68 33 -79t53 -9h8q44 -1 52 -21 q8 -22 -39 -39q-20 -8 -35.5 -19t-32 -17.5t-53.5 -6.5q-61 2 -70 35q-8 29 -28.5 71t-41 70.5t-26.5 24.5q-16 -8 -45 27q-23 25 -20 24q2 2 18 -10q31 -25 31 -8q-4 29 -62 84q-37 35 -52 41t-30 -8q-20 -19 -55 -155q-27 -104 -27 -139q0 -9 2 -13q10 -16 -8 -17 q-16 0 -35 -45q-14 -35 -18 -35t-18 19q-19 26 -38 26l-44 -35q-16 -28 -29 -28q-3 0 -6 2q-16 16 -16 102v6zM324 655q-3 -5 -3 -9q1 -6 9 -7q12 -2 17 13.5t-5 19.5t-18 -17zM387 639q4 -4 10 -8q5 -2 8 -2q7 0 9 8q0 18 -17 18q-10 0 -13 -3q-2 -2 -2 -4q0 -4 5 -9z M504 801l45 28q29 12 41 27q5 6 5 8t-3 2h-2q-12 0 -47 -32zM528 733q0 -16 9 -16q6 0 16 8q14 10 25 29q2 6 4 11t3 8t1 6t-2 5t-4 2q-12 0 -32 -19t-20 -34z" />
<glyph unicode="L" horiz-adv-x="1083" d="M61 139q0 4 2 6q12 20 31 17q17 -1 29 -1q43 0 43 15q0 2 -2 4q-12 20 10 45q18 20 8 21q-6 0 -35 -4q-4 0 -8 -2l-20 -2v2q16 12 10 24q-6 14 14 15q27 0 33 61q27 174 37 281.5t11 150.5v24q0 41 -2 110q-3 91 -3 167q0 33 -4 35q-2 2 -10 -10q-6 -10 -9 -13.5t-5.5 1 t-2.5 16.5q0 31 33 20.5t33 5.5q0 18 63 19q39 0 54.5 -8.5t25.5 -36.5q19 -47 18 -157q-1 -85 -11 -207q-26 -280 -78 -419q-8 -18 28 -22q11 -1 24 -1q47 0 120 17q51 10 113.5 20.5t102.5 14.5t42 -2q-2 -8 9 -13t34 -5t-4 16q-23 14 6 10q6 -2 16 -4q39 -6 37 6 q-8 16 10 17q16 0 62 8l22 4l-2 -2q-20 -6 -20 -33q0 -20 20 -14q6 4 2 -2q-4 -4 -22 -23q-25 -20 -28 -30.5t11 -18.5q25 -16 6 -26q-10 -6 -47 -19q-8 -2 -20 -6l-17 -8q2 0 15 -2q8 -2 14 -2h5q21 0 77 12q50 11 69 11q6 0 9 -1q1 -1 1 -3q0 -7 -32 -19q-66 -25 -178 -37 q-139 -16 -175 -24.5t-144 -49.5q-81 -32 -107 -32q-10 0 -12 5q-6 20 -51 13q-2 0 -41 -5.5t-56 -9.5q-15 -3 -25 -3q-26 0 -26 20q0 35 29 53q8 6 -6 8q-18 2 -60 -2q-25 -1 -42 -1q-34 0 -34 5zM231 315q7 3 23 62q14 52 14 93q0 14 -2 26q-4 43 -16 -13q-4 -18 -8 -49 q-14 -85 -14 -109q0 -10 2 -10h1zM254 102.5q0 -2.5 25 -2.5q33 0 65 15q25 10 25 12t-25 2q-33 0 -65 -14q-25 -10 -25 -12.5zM254 1026q4 -18 22 8q16 20 9 23q-4 4 -8.5 4t-8.5 -3t-7 -8.5t-5 -11.5t-2 -12zM270 600v-9q0 -16 6 -13q10 0 7 26q0 4 -2 6q-2 7 -5 7 q-2 0 -4 -3q-2 -4 -2 -14zM635 301q2 -6 11 -6q7 0 18 4q9 2 9 4t-7 4q-4 2 -11 2q-22 0 -20 -8z" />
<glyph unicode="M" horiz-adv-x="1341" d="M64 370q10 64 65 244q45 150 69 266q16 82 16 116q0 14 -3 20q-6 16 12 16q20 0 58 55q20 33 36.5 42.5t44.5 5.5q41 -8 90.5 -50.5t63.5 -80.5q6 -16 14.5 -24.5t14.5 -6.5q16 10 26 -27q8 -27 9 -63q0 -47 16 -47q8 -2 12 12q2 8 4 31q6 33 13 32q8 -15 8 -97v-36 q-1 -29 -1 -51q0 -69 5 -88q10 -33 14 -37t21 6q22 20 16 26q-1 1 -1 4q0 13 28 62q6 12 47 86t73.5 132.5t71.5 120t58 79.5q41 46 41 62q0 20 14 20q17 0 55 -29q82 -61 109 -133q2 -6 4 -10q25 -74 41 -88q20 -18 12 -27q-2 -2 -2 -12q0 -32 23 -143q20 -102 20 -147.5 t-18 -159.5q-29 -182 -101 -306q-28 -46 -43 -46q-4 0 -8 3q-2 2 -2 6q0 18 39 82q32 53 32 63q0 3 -2 3h-1q-14 -2 -45 -49q-12 -16 -13 -23q0 -18 -16 -12q-2 1 -6 1q-16 -1 -56 -17q-31 -13 -51 -12q-10 0 -18 3q-6 2 -15 7q-16 6 -8 8q20 2 76.5 124t67.5 181q4 26 4 67 q0 60 -8 154q-14 158 -35 205q-14 35 -19.5 38t-19.5 -18q-88 -141 -150.5 -220t-175.5 -193q-141 -141 -152 -141q-1 0 -1 1t2 5q19 28 19 46q0 11 -7 19q-13 16 -13 60q0 11 1 24q1 11 1 21q0 63 -30 132q-35 81 -88 115l-57 37q-27 -72 -56 -196q-27 -115 -68.5 -242 t-64.5 -160q-20 -29 -22 -17.5t18 46.5q16 33 0 49q-18 18 -18 0q0 -14 -25 -20.5t-25 -20.5q0 -18 -24 16q-18 24 -18 64q-1 15 2 32zM240 776v-21q0 -28 4 -28q2 0 4 6q8 22 0 49q-6 23 -8 -6zM383 874q0 -27 29 -40q16 -14 18 -15q2 0 -12 29t-27 35q-8 4 -8 -9z M1071 1090q2 -33 5 -36t11 11q1 2 3 4q16 18 4 42q-7 14 -12 14q-4 0 -9 -7q-3 -5 -3 -16q0 -5 1 -12zM1227 762l-1 -4q0 -12 5 -62q13 -125 28 -125h1q6 2 6 43q0 66 -23 115q-14 33 -16 33z" />
<glyph unicode="N" horiz-adv-x="1079" d="M66 371q-4 61 -4 118q0 165 30 302q40 184 127 276q35 39 72 39q6 0 11 -1q42 -7 63 -63q47 -125 73 -159q4 -4 0 6q-19 67 -19 90q0 12 5 12q4 2 12 -2q27 -8 27 -45q2 -61 72.5 -199.5t103.5 -138.5q23 0 29 -35q14 -47 24 -2q6 31 17 121q14 117 52 244t75 170 q6 8 37 52t45 56v-86l-3 -110q2 0 3 4q4 16 20 27.5t18 37.5q0 18 7 21q2 2 4 -4q6 -20 30 -21q13 0 19 -7q3 -3 3 -8q0 -4 -3 -12q-6 -14 -21 -28q-26 -24 -26 -152v-10q0 -111 -12.5 -202t-28.5 -103q-10 -14 -20.5 -120.5t-26.5 -121.5q-12 -18 -15.5 -26t1.5 -10t22 -2 q33 0 33 -39q0 -40 -29 -48q-5 -1 -11 -2q-25 0 -57 27q-23 20 -24 19l4 -11q18 -29 4 -28q-31 0 -57.5 21.5t-26.5 45.5q0 23 -28.5 54.5t-127.5 119.5l-30 25l8 -10q33 -45 18 -43q-27 0 -106.5 118.5t-124.5 225.5q-37 88 -51 102q-1 1 -2 1q-12 0 -33 -150 q-14 -94 -17 -158q0 -10 -1 -21q0 -68 12 -158q12 -104 26 -130q8 -20 5 -18.5t-21 24.5q-12 16 -18.5 22t-11.5 7t-7 -4t-8 -17q-10 -31 -57 -78q-30 -31 -40 -34h-3q-8 0 -17 18q-16 35 -24 211zM102 207v-9q0 -24 9 -26h2q8 0 14 14q8 23 -6 39q-12 25 -17 11 q0 -6 -2 -29zM137 252q6 -20 25 -29q9 -3 14 -3q4 0 6 2q4 4 -4 18q-4 6 -6 15t-2 13t-4 7.5t-14 3.5q-17 0 -17 -15q0 -5 2 -12zM496 735q0 -18 31.5 -73.5t41.5 -55.5q2 0 0 9.5t-9 25.5t-17 35q-39 76 -45 76q-2 -1 -2 -17zM627 528q8 -16 16 -24t12 -6q8 12 -18 39 q-18 17 -18 11q0 -5 8 -20zM645 434q4 -8 14.5 -8t14.5 8t0 16.5t-14 8.5q-11 -1 -15 -9q-2 -4 -2 -8t2 -8zM774 322q1 -27 17 -27q29 2 12 29q-16 25 -25 10q-4 -4 -4 -12zM844 956h1q13 0 21 74q1 10 1 17q0 15 -3 15h-1q-5 -3 -15 -46q-6 -34 -6 -49q0 -9 2 -11z" />
<glyph unicode="O" horiz-adv-x="1251" d="M66 551q-3 27 -3 56q-1 91 29 191q38 132 113 218q29 37 26 20q0 -4 -2 -8q-8 -29 4 -29q23 2 86 68q29 31 19 31q-33 0 -8 16q23 14 63 23q63 12 127 43q61 27 181 27q10 -1 21 -1q136 -2 161 -30q14 -16 69.5 -37t71.5 -45q4 -4 52 -61.5t80 -108t32 -84.5 q0 -213 -30 -303.5t-150 -212.5q-72 -74 -99.5 -92.5t-56.5 -14.5q-11 2 -22 2q-28 0 -44 -16q-14 -15 -40 -17h-8q-21 0 -33 13q-3 3 -18 3q-27 0 -93 -9q-61 -9 -113 -9q-116 0 -186 45q-45 27 -70.5 65t-72.5 140q-35 74 -39 76q-4 0 -7 -25q0 -53 27 -79q24 -29 8 -29 q-55 0 -75 174zM90 606q0 -25 16 -49q17 -23 17 0q0 25 -17 49q-16 23 -16 0zM260 1071q0 4 2 10q4 7 9 13q3 4 7 4q2 0 4 -1q6 -3 5 -16q2 -10 -11.5 -14t-15.5 4zM307 754q-9 -27 -9 -60q0 -50 21 -112l-8 59q-2 11 -2 22q1 25 11 49q14 32 12 60q-2 23 -6 23 q-2 2 -13 -25q-2 -6 -6 -16zM368 626q17 -85 17 -114q0 -57 61 -119q59 -59 130 -64h13q68 0 165 46q80 39 120.5 78t79.5 112q24 45 33 45q4 0 4 -12q0 -35 17 -8q16 25 16 182q0 113 -6 136.5t-35 37.5q-55 25 -55 15q0 -4 14 -23q6 -8 2 -6q-6 2 -35 31 q-20 20 -36.5 31.5t-25.5 14.5t-28.5 10t-40.5 17q-69 34 -96 34q-18 0 -18 -15q0 -12 -12.5 -18.5t-25 -3.5t-12.5 14q0 10 -8 10q-18 0 -74 -47q-35 -31 -71 -70q-49 -51 -64.5 -83t-27.5 -99q-9 -24 -10 -58q1 -33 9 -74zM675 284q21 0 79 25q41 23 37 33 q-39 -12 -95 -35q-16 -6 -24 -12q-6 -5 -6 -7q-1 -4 9 -4zM844 1067q0 -14 30 -29q20 -10 29 0q2 2 1 4t-5 6.5t-9 8.5t-13 8q-18 7 -26 7q-7 0 -7 -5zM969 868q-1 10 -1 17q0 14 5 16q14 -4 20 -41q6 -29 -2 -33q-4 -2 -12 13q-6 12 -10 28zM985 766q8 20 14 20q8 0 9 -24 q-1 -25 -17 -25q-10 0 -10 11q0 7 4 18zM991 682q-1 3 -1 7t1 9q2 17 6 17q8 0 7 -29q0 -8 -5 -10q-4 -6 -8 6zM1030 492q2 -1 27 24q7 14 7 20q0 4 -3 5q-14 0 -29 -25q-5 -8 -5 -15q0 -5 3 -9z" />
<glyph unicode="P" horiz-adv-x="917" d="M61 201l41 10q43 12 54.5 87t15.5 341q1 59 1 106q0 117 -4 157q-5 56 -26 89q-35 53 -47 60q-14 10 -2 28.5t35 18.5q25 0 12 37q-8 25 -5 27l1 1q4 0 19 -12q10 -12 29.5 -14t36 0t28.5 -7.5t12 -35.5q0 -33 10.5 -36t55.5 13q39 14 92 24.5t87 11.5t38 -7 q0 -14 -21 -23q-10 -6 8 -10q29 0 35 12q6 10 24 10q32 0 99 -33q105 -52 123 -98q6 -25 27 -16q8 6 12 -20q4 -20 4 -58q0 -154 -104.5 -284.5t-247.5 -155.5q-66 -8 -96 -23q-25 -12 -23 -2q0 2 2 9q6 18 -4 18q-16 0 -49 -77q-27 -62 -27 -83q0 -5 2 -8q12 -16 41 -8 q31 8 31 -7.5t-31 -33.5q-14 -8 -18 -19.5t-3 -19.5t-6.5 -16.5t-27.5 -10.5q-12 -2 -10 -2q4 -2 34 2q23 2 36.5 1t18.5 -5t3 -12q-6 -16 -51 -25q-5 -1 -10 -1q-34 -1 -102 21q-79 24 -79 42q0 14 -74 37zM152 1032q0 -20 16 -24q16 -6 16 8q0 20 -16 24q-5 2 -8 2 q-8 0 -8 -10zM209 197q-2 -5 -2 -9q0 -7 8 -8h3q10 0 14 14q6 16 -5 19q-10 4 -18 -16zM315 983q0 -10 3.5 -13t6.5 -2t7 5t8 10q6 14 -6 16q-18 0 -19 -16zM334 890q-1 -7 0 -16q0 -56 22 -180q2 -6 4 -18q18 -109 35 -121q4 -2 11 -2q23 0 79 25q10 6 17 8 q86 39 120.5 67.5t49.5 73.5q11 36 11 60q0 26 -21 73q-16 33 -24.5 49.5t-29 42t-39 34.5t-48 9t-62.5 -18q-47 -25 -82 -31q-39 -4 -43 -56z" />
<glyph unicode="Q" horiz-adv-x="1191" d="M66 582q4 -53 20 -131l6 77q4 33 4 50q0 18 -5 18h-1h-1v1q0 12 50 126q35 80 68 125t96 104q96 87 118 87q2 0 3 -1q16 -10 29 13q20 25 193 36q56 4 95 4q81 0 86 -16q23 -12 84 -18q131 -19 131 -70q0 -25 41 -110q43 -84 47 -232v-46q0 -63 -4 -89q-6 -35 -41 -92 q-72 -123 -106 -123q-18 0 -67.5 -44t-49.5 -63q0 -14 24.5 -29.5t20.5 -31.5t7 -57q8 -27 8 -48q0 -11 -2 -20q-13 -48 -45 -48q-44 0 -123 89q-59 66 -78 75q-7 4 -19 4q-18 0 -47 -9q-93 -32 -153 -32q-21 0 -37 4q-66 15 -185 132q-117 115 -149 181q-23 46 -23 115 q0 32 5 69zM289 508q0 -59 33.5 -128t62.5 -69t4 -14q-23 -14 6 -23q6 -2 15 -4q43 -10 43 -34q0 -23 18 -23q14 0 6 16q-2 6 8.5 10.5t34 5.5t41 1h46h32.5q-11 46 -11 76q0 32 13 45q23 23 14 49q-12 33 13 26q12 -4 32 -16q27 -16 37.5 -52t32.5 -59l41 -45l45 45 q37 37 37 49q0 4 -2 5q-10 4 -49 -31q-45 -43 -45 -29q4 16 57 68q57 57 64 109q2 10 2 21q0 52 -29 144q-39 117 -64 211q-14 59 -26.5 72.5t-63.5 28.5q-65 19 -113 19t-79 -19q-41 -23 -82 -63t-37 -52q1 -2 1 -4q0 -15 -34 -49q-35 -35 -69.5 -131.5t-34.5 -155.5z M512 134q-4 -6 -4 -9q0 -9 16 -10q4 -1 7 -1q17 0 20 17q2 14 -14 16q-14 4 -25 -13zM518 217q0 -18 23.5 -24.5t44.5 6.5q24 14 4 14q-8 0 -45 10q-27 8 -27 -6zM649 350q3 -21 17 -39q16 -20 16 -6q-2 23 -16 39q-16 20 -17 6zM813 168q0 -16 17 -28q11 -8 18 -8q5 0 8 3 q14 0 -16 27q-25 20 -27 6zM852 899q0 -8 4 -27q13 -52 18 -52t5 36q0 45 -17 53q-10 6 -10 -10zM932 666q14 -82 31 -99q1 -2 2 -2q2 0 2 6q-1 14 -9 45q-14 61 -24 72q-4 4 -4 -5q0 -6 2 -17zM936 1010q23 -8 24 6t-16 16h-8h-4q-22 0 -22 -5t26 -17zM991 1016q-9 0 -9 -6 t11 -19q27 -33 31 -12q2 20 -18 33q-7 4 -15 4zM1032 889q4 -6 8 -17q20 -37 35 -79q15 -35 23 -35h2q1 3 1 7q0 18 -21 67q-27 59 -40 63q-4 3 -6.5 3t-2.5 -3q0 -2 1 -6z" />
<glyph unicode="R" horiz-adv-x="1015" d="M63 926q-4 35 -4 62q0 61 19 81q4 6 10 2q8 -4 8 4q0 6 -2 12q-2 10 -9 17.5t-14.5 8.5t-6 7t13.5 19q25 25 64 25q2 0 2 -1q40 0 40 17t8 17q7 0 19 -11q8 -8 16 -19q14 -18 47 -23t132 -9q162 -4 178 -17q6 -6 62 -30.5t61 -49.5q4 -29 22 -47q8 -8 8 -6t-4 19 q-12 29 7.5 27.5t33.5 -34.5q15 -27 15 -74q0 -59 -23 -148q-41 -161 -90 -161q-20 0 -29.5 -27.5t-21.5 -35.5q-33 -20 -11 -39q14 -12 45 -24.5t53.5 -41t84 -74.5t109.5 -82t48 -48q0 -8 -7 -11.5t-17 1t-17 14.5q-6 16 -28 16q-18 0 10 -18q45 -27 20 -45 q-15 -11 -35 -11q-25 0 -57 17q-52 25 -75 25q-22 0 -132 63t-204 131q-69 50 -69 75q0 3 1 5q4 12 1 16t-13 0q-25 -8 -49 -121q-41 -186 -90 -186q-16 0 -33 -24.5t-33 -24.5q-25 0 -25 119q0 193 -39 643zM152 1130q0 -12 5 -14t10 2t9 12q6 14 -6 17q-18 0 -18 -17z M193 350q2 0 4 15q4 22 4 44.5t-4 45.5q-4 27 -4 -2q-3 -47 -3 -73t3 -30zM238 975v-5q0 -73 26 -143q1 17 1 34q0 73 -15 122l-10 29q-2 -2 -2 -37zM281 1049q18 -162 24 -340q4 -119 14 -125q6 -4 21 0q49 14 119.5 55t99.5 70q28 30 28 47q0 18 -18 82q-31 111 -93 151.5 t-195 59.5zM602 889q0 -7 4 -23q10 -35 17 -16q8 25 -9 39q-12 12 -12 0zM659 475q-15 0 -15 -5q0 -6 20 -19q8 -4 18 -11q23 -13 26 -13q2 0 -14 19q-23 29 -35 29zM748 915q-2 -16 -2 -25q0 -15 4 -16h1l3 7q4 9 4 19t-4 22q-2 6 -3 6q-2 0 -3 -13z" />
<glyph unicode="S" horiz-adv-x="952" d="M84 821q47 107 183 197q116 77 197 76q14 0 28 -2q21 -4 36 -4q23 0 29 10q9 14 19 14h2q4 -2 49 -16q20 -8 33.5 -17.5t9.5 -15.5q-6 -14 6 -14q20 0 23 -43t-13 -58q-10 -8 -14 -9t-6 3t-2 16q0 29 -29 17q-27 -12 -94 -25q-139 -23 -140 -57q0 -14 -25.5 -33.5 t-23.5 -44.5q0 -25 -4 -24q-4 0 -10 10q-16 27 -27 0q-10 -27 11 -33q23 -14 0 -27q-20 -13 -20 -31q0 -20 24 -46q46 -52 116 -52q45 0 157 -20q102 -19 152 -19h9q57 -4 53 -14q-16 -10 8 -37q69 -80 69 -159q0 -41 -19 -83q-56 -120 -265 -192q-109 -38 -170 -38 q-49 0 -67 24q-20 25 -31 20q-15 -1 -29 -1q-60 0 -96 28q-20 14 -21.5 22.5t17.5 26.5q29 29 29 12q0 -18 26 -18q10 0 13.5 3t3.5 8v10t4 10.5t12 7.5q29 10 32 8t-3 -23q-10 -27 20 -24q37 4 96 43q221 147 222 186q0 29 -29 -8l-21 -25q-2 0 9 25q20 46 20 75 q0 16 -7 28q-17 31 -66 31h-3q-51 -1 -116 -3q-26 -1 -49 -1q-86 0 -140 17q-201 69 -201 197q0 42 23 92zM190 797q0 -5 -1 -8q0 -17 8 -17q10 2 4 25q0 6 -2 10q-2 2 -4 2q-4 0 -5 -12zM289 567q-2 -2 8 -12q21 -20 31 -10q10 4 -15 16q-15 8 -21 8q-3 0 -3 -2zM573 147 q-1 -3 -1 -4q0 -4 5 -4h3t8 2q26 9 26 17q0 14 -24 2q-12 -4 -17 -13zM697 546q-1 -2 -1 -6q0 -12 11 -38q10 -25 22.5 -26t22.5 24q6 25 -23 41q-16 9 -25 9q-5 0 -7 -4zM795 459q0 -21 16 -25q5 -2 8 -2q8 0 8 10q0 20 -16 25q-5 2 -8 2q-8 0 -8 -10z" />
<glyph unicode="T" horiz-adv-x="1302" d="M61 932q0 23 57.5 58.5t133.5 58.5q47 14 209 77.5t239 73.5q14 2 29 2l57 -8q17 -5 33 -5q24 0 45 11q20 8 35 8q24 0 35 -20q16 -29 27 -12q8 20 55 28q18 5 29 5q6 0 10 -1q12 -4 18 -24q5 -23 21 -27q8 -2 25 -2t42 2t42 2q38 0 38 -12q0 -16 -63 -17q-76 0 -80 -28 q-2 -12 14 -25q27 -16 -4 -8q-7 2 -15 2q-23 0 -49 -18q-27 -16 -145.5 -30.5t-140.5 -23.5l-49 -16q16 -262 55 -397q31 -106 31 -137q0 -13 -6 -14q-1 0 -3 1q-10 6 -32 56l-35 73q18 -178 35 -229l18 39q16 31 23 20q4 -10 10 -55q4 -24 4 -48q0 -57 -23 -112 q-2 -8 -4 -11t-6 -2t-8 6l-12 15q-14 20 -22.5 22.5t-16.5 -13.5q-12 -18 -4 -41l-2 -2q-10 6 -31 24q-45 41 -45 23q0 -20 -25 -21q-31 0 -44 100.5t-17 342.5l-4 309q-16 0 -88 -20t-116 -30q-17 -4 -31 -4q-22 0 -36 9q0 14 -45 14q-31 0 -30 -6q0 -2 8 -8 q20 -14 -19 -21q-4 -2 -12 -2q-8 -1 -16 -1q-31 -1 -61 17q-38 22 -38 52zM815 1147q2 -18 53.5 -16t53.5 16q6 8 -13 12q-22 5 -41 5q-26 0 -47 -9q-8 -4 -6 -8zM995 1081.5q0 -16.5 24.5 -16.5t24.5 16.5t-24.5 16.5t-24.5 -16.5z" />
<glyph unicode="U" horiz-adv-x="997" d="M61 598q0 152 6.5 211t30.5 129q37 109 90 141q27 16 40.5 24.5t22.5 8.5t12 -8.5t3 -24.5q0 -20 6.5 -24t26.5 2q33 10 31 -6q0 -14 -27 -25q-12 -6 -16 -9t-1 -7t13 -11q27 -16 -2 -16q-27 0 -35 -20q-6 -18 -6 -93q0 -59 4 -154q8 -214 23 -296q14 -76 27.5 -97.5 t49.5 -37.5q54 -22 124 -22h16q80 3 110 32q20 20 29.5 57t17.5 51q16 14 25 99q4 47 42 216t40 232q0 31 4 51.5t9 28.5t11 6q8 -2 12.5 3t2.5 14q-4 18 8 23t63 5q35 0 42.5 -6t-1.5 -35q-10 -41 3 -41q16 0 16 -61q0 -41 -4 -45l-8 16q-12 29 -15 13v-25q0 -45 15 -53 q16 -10 16 -60q0 -88 -49 -301q-46 -202 -46 -242q0 -6 1 -8q4 -6 28 0q23 6 23 3q0 -4 -27 -33q-25 -25 -40 -25q-8 0 -13 8q-16 18 -58 13.5t-200 -45.5q-71 -19 -124 -19q-17 0 -31 2q-62 8 -189 66q-72 33 -100.5 68.5t-39 102t-12.5 224.5zM143 268q25 -27 25 -10 q-2 18 -25 47q-24 26 -24 11q0 -18 24 -48zM205 389q0 -3 6 -16q4 -12 10 -19q8 -8 10 4q0 10 -12 23q-14 12 -14 8zM233 999q0 -10 3.5 -13t6.5 -2t7 5t8 10q6 14 -6 17q-18 0 -19 -17zM276 936q8 13 20 13h4q14 -3 15 -23q2 -25 -24 -13q-17 7 -17 16q0 4 2 7zM373 229 q8 -16 53 -16q31 0 33 6q0 2 -13 10q-26 17 -49 17q-11 0 -20 -4q-6 -2 -6 -7q0 -3 2 -6z" />
<glyph unicode="V" horiz-adv-x="1214" d="M63 1122q6 29 46 35q6 1 11 1q17 0 17 -15q0 -11 30 -11q15 0 38 3q12 1 24 1q38 0 74 -10q47 -12 47 -32q0 -14 -12 -7q-4 2 -2 -8q4 -23 31 -75q25 -51 82 -213t105 -291t67 -135h3q24 0 90 134q70 142 120 294q63 195 92.5 244.5t87.5 54.5q63 4 80 20 q14 14 27.5 17.5t22.5 -5t9 -22.5q-2 -43 -129 -338t-172 -363q-43 -61 -142.5 -165.5t-115.5 -104.5q-25 0 -85 62.5t-97 121.5q-39 63 -93.5 139t-93.5 148t-94 205q-18 47 -26.5 106.5t-24.5 104.5q-19 52 -19 85q0 10 2 19zM214 1044q18 -44 40 -69q-16 75 -18 102 q0 20 -17 21q-13 -6 -13 -21q0 -14 8 -33zM219 705q-1 -1 -1 -4q0 -20 46 -99q25 -45 41 -55q10 -6 -4 24q-8 16 -22 45q-50 90 -59 90q-1 0 -1 -1zM260 948q-1 0 -1 -2q0 -8 22 -53q6 -14 14 -27.5t13 -19.5t7 -4h1q2 0 2 3q0 13 -42 81q-14 23 -16 22zM530 217 q0 -20 33 -45q21 -17 29 -17q4 0 4 5q0 20 -33 45q-33 27 -33 12zM582 348q0 -12 14 -37q6 -10 9 -13q1 -1 2 -1t3 2q2 4 2 16q0 31 -16 37q-14 8 -14 -4zM801 401q0 -4 1 -4t3 2q12 13 45 72q43 78 39 90q-4 8 -23 -24q-14 -20 -28 -52q-33 -70 -37 -84zM1014 852h1 q5 0 33 54q30 58 54 120q19 46 20 60q0 4 -2 6q-3 2 -6 2q-9 0 -20 -17q-8 -14 -30 -69.5t-38 -105.5q-13 -40 -13 -48q0 -2 1 -2z" />
<glyph unicode="W" horiz-adv-x="1495" d="M63 863q3 118 23 132q23 14 29 62q0 16 -9 14q-14 -6 -14 10q-2 6 2 9.5t12.5 3.5t17.5 -1t18.5 -2t17.5 -1t12 3t2 9q4 12 27 -15q18 -23 20 -20.5t-4 31.5t-2 30q2 0 33 -36q37 -52 37 -99q4 -156 38.5 -333t88.5 -267q6 0 24 62q4 14 107.5 249.5t105.5 276.5 q0 45 23.5 67.5t50.5 0.5q25 -20 16 -48q-2 -12 2 -14q1 1 2 1q15 0 93 -169q37 -80 47 -117q14 -53 63 -165l74 145q125 242 154 242q2 0 4 -2q4 -4 8 1t4 15q0 23 40 59.5t54 28.5q18 -8 25 12q8 20 42.5 14.5t34.5 10.5q-2 16 17 18q12 0 12 -10q2 -6 -2 -12 q-7 -23 11 -41q9 -9 8 -14q0 -5 -11 -5q-18 0 -18 -24q0 -37 -48 -157q-47 -120 -101 -222q-50 -95 -66 -95q-1 0 -2 1q-8 4 -10 3t2 -9q2 -3 2 -9q0 -33 -50 -168q-12 -35 -18 -81q-8 -57 -17.5 -72.5t-31.5 -7.5q-35 12 -6 -6q16 -10 15 -21.5t-19 -38.5 q-16 -27 -27.5 -32t-32.5 6q-33 18 -32 32q0 16 -91 103q-90 82 -129 168q-31 57 -42 57h-1q-6 -25 -39.5 -112t-35.5 -134q-4 -47 -11 -74q-6 -25 14.5 -27.5t22.5 -15.5q0 -18 -33 -10q-23 4 -26.5 1t2.5 -23q8 -23 -1 -26q-2 -1 -7 -1q-13 0 -45 6q-33 6 -59 16 q-26 11 -50 15q-16 3 -44 3q-14 0 -30 -1q-28 -3 -48 -3q-40 0 -46 11q-2 4 2 7t12.5 5.5t18.5 2.5q39 0 39 8q2 10 -45 53q-49 45 -121 219t-92 297q-13 86 -13 183v37zM113 664q0 -45 4 -41q10 8 4 55q0 8 -2 14q-4 23 -6 -4v-24zM244 926q-3 -26 -3 -41q0 -20 5 -21 q2 0 4 8q8 27 0 58q-2 8 -3 8q-2 0 -3 -12zM322 194q0 -2 22 -28q27 -32 38 -32q2 0 3 1q12 8 -10 31q-10 12 -25 16q-28 14 -28 12zM485 365v-16q0 -39 9 -36q12 6 14 52q0 23 -8 30q-13 1 -15 -30zM768 682q18 -55 29 -92q17 -62 22 -62q1 0 1 5q0 16 -13 85 q-21 87 -33 87q-9 0 -9 -9q0 -6 3 -14zM785 340q0 -3 6 -16q4 -12 10 -19q3 -3 5 -3q3 0 5 7q0 10 -12 23q-14 12 -14 8zM1001 350q9 0 25 41q14 40 14 60q0 7 -2 12q-4 12 -16 -14q-4 -10 -10 -27q-17 -46 -17 -63q0 -9 5 -9h1zM1042 512q0 -2 2 -2q4 0 17 18q26 48 26 65 q0 5 -2 7t-7 -4t-11 -18.5t-11 -24.5t-9.5 -23.5t-4.5 -17.5zM1231 657q12 4 57 91q12 26 12 32q0 2 -1 2h-1h-1q-3 0 -13 -14q-12 -16 -29 -45q-26 -52 -26 -63q0 -3 2 -3z" />
<glyph unicode="X" horiz-adv-x="1144" d="M62 1175q-1 2 0 5q0 10 12 16q25 14 59 -10q25 -16 32 -15.5t13 17.5q10 25 44 25t34 -27q0 -10 4 -14.5t8 -2.5q14 8 37 -24q16 -27 92 -82q68 -49 164 -178q98 -131 104.5 -131t90.5 143q131 233 196 233q23 0 29 21q6 2 10 -16q0 -10 2 -16.5t8.5 -10.5t12.5 -6t16 -3 t16.5 -1h18.5h18q-102 -211 -106 -242q-4 -37 -125 -233q-10 -20 -55 -62q-29 -23 -31 -40v-5q0 -21 12 -84q20 -100 32 -219q9 -88 8 -155q0 -23 -1 -44q-4 -80 -20.5 -80t-16.5 19q0 10 -90 200.5t-102 204.5q-6 6 -43 -26q-57 -52 -222 -146q-149 -85 -174 -85q-3 0 -4 1 q-10 10 13 50q16 25 12 26q-2 2 -20 -12q-33 -23 -35 -14q-2 2 15 18t46 39q78 53 209 193.5t123 158.5q-63 111 -217 289q-113 131 -141 188q-18 41 -64 97q-20 27 -24 40zM420 362v-2t4 2q4 2 16 13q29 24 29 28q0 23 -35 -22q-12 -14 -14 -19zM551 823q0 -16 29 -39 q16 -12 18 -14l-14 25q-6 8 -12.5 17t-11.5 14t-5 8q-4 -7 -4 -11zM600 737q0 -20 16 -24q16 -6 17 8q0 20 -17 24q-16 6 -16 -8zM748 223v-9q0 -13 4 -13h2q10 0 6 26q0 4 -2 6q-4 12 -8 5q-2 -5 -2 -15zM993 1049q0 -9 3 -13q2 -3 5 -3h1q4 1 8 5.5t8 10.5q2 5 2 8 q0 8 -12 8q-15 0 -16 -11q0 -2 1 -5z" />
<glyph unicode="Y" horiz-adv-x="976" d="M70 1063q10 -2 36 -21q27 -18 31 -2q1 5 1 13q0 18 -3 51q-1 15 -1 27q0 34 8 41q4 2 7 2q10 0 23 -17l18 -22h3q15 0 53 -36q41 -40 59 -75q28 -63 28 -78q0 -5 -2 -5t-3 1q-18 12 -15 -2q6 -16 47 -68q43 -53 54 -88q1 -5 5 -5q19 0 97 91q39 45 77 78t50 33 q27 4 21 23q-8 23 17.5 43t63.5 24q33 4 66 27q16 14 20.5 11.5t4.5 -22.5q0 -18 6 -16q8 2 37 29q35 31 34 26q2 -2 -10 -24q-10 -22 -10 -41q0 -12 4 -23q8 -25 -4 -18q-2 0 -4 2q-14 8 -47 -35q-18 -27 -56 -74t-57.5 -74.5t-45.5 -76.5t-42 -109q-27 -94 -59 -139 q-12 -16 -15 -16q-4 0 15 47q24 57 24 67q0 2 -1 2q-8 0 -81 -129q-74 -126 -74 -152q0 -3 1 -5q4 -8 -27 -79q-25 -56 -25 -74q0 -5 2 -7q4 -18 -6 -21q-14 -2 -18 19v8q2 14 -8 14q-14 2 -19 -14q-2 -4 2 -8q8 -14 -24 -43q-19 -17 -34 -17q-23 0 -36 41q-4 12 -4 0 q0 -6 2 -20q4 -37 -3 -37h-1q-2 0 -6 2q-14 9 -14 57q0 28 4 70q14 113 51 221l47 129q-90 111 -152 258q-51 125 -92 185q-28 37 -28 48q0 4 4 4q2 0 4 -1zM348 716q0 -3 6 -16q4 -12 11 -18q10 -8 12 4q0 10 -15 23q-14 12 -14 7zM351 402q7 0 50 90q41 80 41 100 q0 4 -2 6t-5 -2t-8 -13.5t-11 -20.5t-13.5 -26.5t-13.5 -31.5q-39 -88 -39 -100q0 -2 1 -2zM459 629q0 -2 1 -2q5 0 29 32q78 113 80 138q-2 2 -14 -11.5t-28.5 -37t-32 -48t-25.5 -45t-10 -26.5zM485 760q4 2 13 8q29 20 45 55q16 29 10 29q-10 0 -45 -53q-25 -33 -25 -38 q0 -1 1 -1h1zM705 1010q6 -9 18 -11q12 0 6 -16q-8 -16 -4 -16h1q7 0 36 32q22 23 22 28q0 2 -13 2q-8 0 -21 -1q-37 -4 -45 -18z" />
<glyph unicode="Z" horiz-adv-x="1230" d="M61 158q0 2 13 18q137 158 202 258q141 207 226 311q78 96 78 111q0 7 -25 7q-64 0 -291 -46q-122 -25 -158 -25q-12 0 -14 3q-4 12 31 64t35 59q8 27 97 47t300 49q244 35 254 39q52 19 81 19q32 0 38 -23q8 -31 25 -31q19 0 48 39q30 40 41 40q5 0 5 -11q0 -7 -5 -21 q-8 -33 8.5 -33t8.5 -37q-8 -29 2 -24q2 0 6 2q20 12 18 -15q0 -35 -24 -65q-23 -29 -23 -21q0 6 6 29q6 25 3 25q-6 0 -46 -45q-25 -29 -57.5 -75t-51 -82t-11.5 -36q2 -2 15 15.5t32.5 42t38 49t34 40t17.5 11.5q1 -1 1 -2q0 -10 -38 -66q-43 -62 -120 -156t-159 -184 q-147 -163 -147 -171.5t43 7.5q137 56 377 56q78 0 166 -6q29 -4 29 -18q0 -11 -25 -11q-14 0 -20.5 -8t-0.5 -16.5t21 -8.5q25 0 25 -18q0 -19 -33 -11q-23 4 -27 1t2 -23q8 -27 -2 -31q-12 -4 -121 -8q-168 -4 -549 -49q-92 -10 -145 -16.5t-86 -6.5t-44 4.5t-11 12.5 q0 31 225 248q119 115 119 139q4 20 -9 14q-4 -2 -16 -10q-23 -12 -24 -4q0 16 30 28q29 10 94.5 80t85.5 111q10 20 -2 12q-10 -6 -41 -39q-47 -49 -45 -43q2 8 70 88q63 74 107 164q-88 -18 -99 -37q-20 -33 -134 -180t-138 -188q-74 -115 -156 -211t-121 -117 q-39 -18 -39 -14zM170 891q0 -27 20 -8q23 20 37 6q6 -4 6 -3t-4 11q-12 23 -35.5 20t-23.5 -26zM252 197q0 -12 8 -12.5t25 12.5q16 12 28 32q25 33 15 33q-23 -4 -66 -49q-10 -12 -10 -16zM360 221q97 89 105 103q-1 7 -6 7q-18 0 -99 -110zM500 557q-1 0 -1.5 -0.5 t-0.5 0.5t2 4q2 5 12 17q18 23 29 26q6 2 6 -2q-2 -14 -29 -31q-14 -12 -18 -14zM711 778q0 -3 2 -3q10 0 71 71q39 47 41 59q0 13 -16 13q-14 0 -56 -60.5t-42 -79.5z" />
<glyph unicode="^" horiz-adv-x="782" d="M63 688q2 18 46 66q35 39 118.5 146.5t114.5 141.5q49 51 84 43q33 -8 33 -22q0 -10 19.5 -13t41 2t25.5 17t8 6q2 -4 2 -14q0 -18 17.5 -27.5t15.5 -29.5q-2 -27 26.5 -84.5t51.5 -71.5q14 -4 20 -39t19 -39q16 0 16 -16.5t-33 -16.5t-33 -32q0 -39 -29.5 -43.5 t-64.5 28.5q-39 35 -88 133q-18 39 -37.5 64.5t-25.5 21.5q-8 -4 -71 -100t-79 -96q-29 -6 -37 -33q-10 -29 -43 -25t-33 35q0 25 -6 26t-32 -16q-49 -33 -46 -12zM284 773.5q1 -1.5 13 8.5q18 20 10 29q-2 2 -5 0t-7 -7t-6 -13q-6 -16 -5 -17.5zM578 783q-2 -1 6 -17 q4 -12 10 -18q8 -8 10 4q0 10 -12 22q-12 10 -14 9z" />
<glyph unicode="_" horiz-adv-x="1077" d="M61.5 -90.5q1.5 12.5 26.5 37.5q41 41 155 58.5t425 25.5q162 8 236.5 6t111.5 -33q2 0 -1 -6t-13.5 -19.5t-28 -34t-43.5 -53.5q-25 -29 -79 -33.5t-353 -9.5q-283 -2 -344.5 2.5t-77.5 26.5q-16 20 -14.5 32.5zM127 -47q2 -4 33 -35q6 14 0 32.5t-23 16.5 q-23 2 -10 -14z" />
<glyph unicode="`" horiz-adv-x="421" d="M61 1081q2 41 21 37q10 -4 13 2.5t-1 16.5q-8 23 12.5 31t32.5 -11q8 -10 62.5 -42t58.5 -50q10 -31 55 -96q61 -100 35 -99q-4 0 -12 2q-25 10 -35 -20q-12 -37 -49 -41t-80 25.5t-74 81.5q-43 78 -39 163zM170 901q-8 -10 23 -37q16 -14 18 -11t-14 24q-25 24 -27 24z M234 898q-2 -1 6 -17q4 -12 10 -19q10 -8 12 4q0 10 -14 23q-12 10 -14 9z" />
<glyph unicode="a" horiz-adv-x="933" d="M63 318q-3 14 -3 32q0 37 12 90q8 47 90 139.5t135 116.5q46 21 105 21q18 0 36 -2q82 -8 123 -47q61 -55 75.5 -62.5t51.5 10.5q31 16 39 14.5t10 -28.5q7 -100 7 -160q0 -76 -11 -90q-20 -23 -20 -61q0 -13 2 -27q2 -24 14 -22q14 2 21.5 -14.5t23.5 -14.5q20 0 41 -29 l16 -20q0 2 -6 20q-6 29 13 29q35 0 35 -23q0 -8 -5 -20q-7 -17 -72 -17q-13 0 -28 1q-92 4 -133 26q-16 8 -38 8q-25 0 -56 -10q-67 -21 -169 -21q-20 0 -42 1q-47 0 -43 10q4 12 -8 12q-20 -4 -21 -16q0 -8 -9 -8q-17 0 -69 30q-43 25 -74 56q-35 32 -43 76zM283 395 q0 -104 21.5 -126.5t121.5 -22.5q84 0 103.5 26.5t29.5 157.5q7 64 7 95q0 11 -1 19q-4 24 -33 46q-34 31 -77 31q-35 0 -83 -27t-48 -47q0 -18 -21 -27q-20 -6 -20 -125zM444 221q-2 -2 7 -4q9 -4 19 -4t22 4q6 2 6 3q0 2 -13 3q-16 2 -25 2q-15 0 -16 -4z" />
<glyph unicode="b" horiz-adv-x="882" d="M66 1040q4 8 22 2q27 -8 59 15q23 16 42 16q14 0 26 -9q27 -22 27 -79q0 -35 8 -93t20.5 -131t14.5 -87q6 -43 12 -45q6 0 20 22q39 57 154 65q16 1 31 1q97 0 178 -41q68 -35 141 -180l-57 -113q-35 -74 -58.5 -99.5t-74.5 -50.5q-96 -47 -258 -53h-14q-75 0 -75 19 q0 2 1 4q8 25 2 24q-12 0 -58 -47q-46 -48 -59 -48q-6 0 -6 9q0 7 4 21q8 35 -6 41q-16 12 -17 219q-4 217 -28 315q-54 231 -54 287q0 12 3 16zM129 991q4 -8 14.5 -8t14.5 8t0 16.5t-14.5 8.5t-14.5 -8q-2 -4 -2 -8.5t2 -8.5zM291 573q-1 -7 -1 -12q0 -15 9 -16 q12 0 20 22q8 18 -8 27q-18 10 -20 -21zM297 508q4 -4 10 -8q14 -6 17 6q0 18 -17 18q-10 0 -13 -3q-2 -3 -2 -5q0 -4 5 -8zM309 424l8 -14q12 2 5 45q-4 20 -13 20t-9 -12.5t9 -38.5zM315 307q-3 -8 -3 -14q0 -15 22 -14q102 10 184 62t82 148q0 57 -4 76t-21 33 q-30 23 -55 23q-2 -1 -4 -1q-26 -2 -88 -32q-47 -23 -59.5 -37t-12.5 -49q0 -92 -41 -195zM342 614q4 -8 14.5 -8t14.5 8.5t0 16.5t-14.5 8t-14.5 -8q-2 -4 -2 -8.5t2 -8.5zM395 250l19 -2q37 0 57 14q23 14 6 14q-16 -2 -55 -14zM649 262q17 0 35 24q10 14 10 20q0 5 -6 5 q-18 -2 -37 -24q-10 -13 -10 -19t8 -6z" />
<glyph unicode="c" horiz-adv-x="675" d="M61 328q0 133 60.5 232t163.5 136q33 12 111 18q43 3 81 3q33 -1 61 -3q64 -4 64 -14q2 -6 -6 -8t-15.5 -3t-9.5 -6t11 -15q25 -23 20 -35q-6 -10 -27 8q-25 18 -34 2q-8 -16 -56 -25q-39 -4 -92 -63t-88 -137q-25 -56 -25 -84q0 -8 2 -12q8 -26 66 -50q35 -15 88 -15 q19 0 40 2q81 7 89 34q10 31 33 14q16 -14 16 -40q0 -37 -47 -67q-49 -30 -157 -59q-64 -17 -111 -17q-23 0 -43 4q-58 12 -133 73q-41 35 -51.5 55t-10.5 72z" />
<glyph unicode="d" horiz-adv-x="786" d="M64 532q14 110 116 177q57 37 123 58q40 13 60 13q13 0 18 -6q8 -10 20.5 -11t35 2t34.5 3q25 0 33 9t8 36q0 41 26.5 140.5t45.5 127.5q11 20 25 20q7 1 13 -3q22 -12 13 -45q-6 -23 8 -9q4 6 14 17q33 35 41 26q5 -5 5 -28t-5 -65q-10 -83 -30 -154q-18 -61 -24 -175 q-2 -32 -1 -56q0 -62 10 -72q4 -8 18.5 -87t28.5 -90q25 -27 25 -89v-9q0 -27 -10 -26q-2 0 -4 2q-16 8 -27 -9t-25 -17q-5 0 -9 2q-20 8 -36 40q-18 41 -43 41q-23 0 -28 20q-6 18 -186.5 20.5t-221.5 29.5q-74 49 -74 136q1 15 3 31zM135 430q5 -19 25 -27q25 -8 22 -2 q0 4 -22 25q-25 18 -25 4zM250 492q8 -18 10 -42t-2 -28q-8 -14 25 2q27 14 26 8q0 -4 -2 -10q-6 -10 8.5 -14.5t41 -3t51 2.5t53 4t35.5 3v121q0 78 -6.5 102.5t-26.5 34.5q-8 4 -16.5 6t-12.5 2t-4 -4q0 -6 -12 3t-23.5 19.5t-13.5 6.5q-39 -6 -97 -81q-41 -53 -42 -96 q1 -19 8 -36zM362 354q14 -12 29 -10q29 4 10 23q-14 12 -28 10q-19 -2 -19 -10q0 -6 8 -13zM438 369q-2 -2 6 -4q18 -8 41 0q14 4 -6 6q-39 4 -41 -2zM471 731q23 -8 24 6.5t-16 16.5h-8q-26 0 -26 -5.5t26 -17.5zM612 338v-9q0 -14 5 -14h1q8 0 8 16q0 5 -1 11q0 4 -2 6 q-2 7 -5 7q-2 0 -4 -3q-2 -4 -2 -14z" />
<glyph unicode="e" horiz-adv-x="811" d="M63 471q6 82 41 182.5t58 100.5q12 0 80 55q63 53 151 80q57 18 91 22q17 2 29 2q11 0 19 -2q14 -4 44 -21.5t59 -27.5q51 -20 88 -71q23 -29 26 -60q1 -8 1 -20q0 -37 -7 -117q-2 -29 -55 -75t-98 -60q-95 -26 -156 -26q-53 0 -80 20q-19 20 -19 34q0 12 14 21 q30 18 71 18q29 0 31 2l-21 11q-33 14 -57 6q-14 -4 -15.5 -2t9.5 14q18 20 96 29q111 10 153 52q19 19 18 40q0 26 -28 55q-29 28 -69 28q-14 1 -29 -3q-59 -12 -111 -70q-48 -52 -48 -84q0 -6 1 -10q8 -20 5 -21.5t-21 15.5q-23 18 -14.5 36.5t73.5 90.5l47 51 q-82 -15 -84 -31q0 -14 -20 -14q-25 0 -62.5 -64.5t-44.5 -117.5q-3 -25 -4 -46q1 -33 9 -59q12 -42 59 -92q41 -43 59 -49q8 -3 26 -2q23 0 62 4q59 6 88 17.5t62 43.5q53 53 61 53.5t8 -53.5q0 -33 -13 -49t-60 -47q-43 -27 -99.5 -40t-89.5 -34q-27 -16 -76 -20 q-14 -1 -27 -1q-32 0 -58 7q-36 10 -35 29q4 29 -27 37q-33 10 -74 67q-29 39 -35 65q-4 15 -4 48q0 23 2 53zM225 217q0 -13 36 -25q22 -8 33 -7q7 0 11 3q6 8 0 15q-8 8 -28.5 14t-35 6t-16.5 -6zM606 834q0 -4 39 -41q53 -49 60 -80q6 -35 20 -4q3 8 3 17q0 28 -26 60 q-36 44 -69 48q-14 1 -20.5 1t-6.5 -1zM671.5 593q1.5 0 12.5 9q14 14 14 23q0 3 -2 6q-2 2 -4 2q-6 0 -14 -19q-2 -2 -2 -4q-6 -17 -4.5 -17z" />
<glyph unicode="f" horiz-adv-x="710" d="M68 526q-7 9 -7 19q0 29 52 71q45 37 53 60.5t8 109.5q0 100 29.5 178t81.5 113q47 31 182 56q125 25 151 27q7 1 12 1q16 0 19 -6q0 -2 -51 -35t-47 -49q0 -10 -7 -15t-16 -3q-2 1 -4 1q-16 0 -68 -34q-56 -37 -68 -37h-1q-16 0 -16 -20.5t-33 -61.5q-16 -20 -25.5 -48 t-7.5 -47.5t17 -19.5q16 0 16 -26q0 -16 9 -18.5t44 6.5q67 14 125 14q67 0 121 -19q-117 -96 -164 -116q-51 -21 -51 -44.5t39 -95.5q42 -80 42 -160q0 -76 -38 -110q-35 -33 -74 -51q-33 -16 -92 -18h-9q-51 0 -59 16q-4 10 -57 15t-57 18q-4 8 1 12t19 4q59 0 130 58.5 t71 107.5q0 31 -37 90q-23 35 -37 44t-41 3q-53 -14 -90 -14q-47 0 -65 24zM279 1026q6 -2 26 18q37 37 31 44q-2 1 -4 1q-7 0 -20 -11q-17 -17 -31 -46q-3 -4 -3 -5t1 -1zM520 725q-13 -10 -13 -16q0 -7 15 -11q7 -1 14 -1q21 0 29 16q2 4 2 10q0 11 -13 11q-12 0 -34 -9z " />
<glyph unicode="g" horiz-adv-x="733" d="M74 444q-12 46 -12 86q0 48 17 88q32 74 132 142q39 27 72.5 35t105.5 8q39 0 59.5 -1t34 -4t13.5 -8.5t-2 -13.5q-6 -16 -2 -20t24 2q29 8 31 -6q4 -8 -10 -13q-4 -2 -9 -2q-20 0 -2 -12q18 -10 43 -61q27 -57 27 -19q0 41 -12 60q-27 35 -6 34q18 0 49 -30 q31 -35 37 -67t8 -167q0 -127 -7.5 -169t-37.5 -109q-10 -25 -25.5 -46.5t-28 -35t-38 -33t-34.5 -26.5t-43 -28.5t-42 -25.5q-201 33 -232 61q-20 20 -20 101q0 82 37 119q41 41 49 18q6 -14 -17 -55q-20 -35 -18 -44t31 -28q29 -18 56 -18q10 0 20 2q27 6 26 2 q0 -2 -12 -10q-33 -25 -10.5 -25t71.5 25q57 27 85 76.5t40 146.5l10 82q-16 -6 -67 -32t-85 -40t-79 -27q-39 -10 -67 -10h-9q-82 8 -109.5 24.5t-41.5 73.5zM203 586q-9 -28 -9 -43q0 -19 13 -19q18 -2 12 47q-4 18 -8 21q-4 2 -8 -6zM205 377q0 -16 37 -17q27 0 24 7 q0 4 -12 10q-24 17 -36.5 17t-12.5 -17zM238 133q0 -18 16 -18q3 -1 6 -1q7 0 10 5q4 10 -16 20q-14 6 -16 -6zM258 590q-6 -26 -6 -48q0 -42 22 -69q4 -4 9 -8q27 -21 55 -21h6q31 2 102 35q55 25 68 37q9 9 9 28q0 6 -1 13q-10 41 -63.5 86t-102.5 45q-37 0 -45 -6t0 -29 q8 -27 0 -26q-2 0 -8 4q-8 4 -14 4q-22 0 -31 -45z" />
<glyph unicode="h" horiz-adv-x="747" d="M63 1048q3 18 25 37q23 21 34 21h1q11 0 43 -21q35 -20 47 -56t17.5 -93t17.5 -94l20 -101l64 15q104 25 143 25q1 -1 2 -1q39 0 45 -26q8 -33 25 -33q12 -1 12 24q0 27 11 27q10 0 28 -20q23 -29 49 -84q33 -70 38 -96q1 -8 1 -18q0 -23 -8 -58q-20 -66 -21 -136 q0 -66 -18 -66t-10 -22q8 -25 -19 -49q-20 -18 -32.5 -19t-42.5 15q-39 18 -55 18q-4 0 -7 -1q-12 -8 -12 4q-2 14 16 32q19 20 33 148q7 63 7 102q0 40 -7 53q-18 31 -35 31q-14 0 -8 12q8 12 -14 41q-14 23 -27.5 21t-63.5 -33q-29 -18 -42 -28.5t-23 -27t-11 -25.5 t-7.5 -43t-12.5 -62q-23 -102 -63 -170q-28 -43 -28 -54q0 -4 3 -4q4 -2 12 3q14 4 19.5 2t1.5 -13q-6 -20 -57 -30q-17 -3 -30 -3q-28 0 -40 14q-9 10 -9 30t9 49q18 55 18 129v27q0 95 -11 276q-13 209 -23 266q-6 34 -6 53q0 7 1 12z" />
<glyph unicode="i" horiz-adv-x="514" d="M74 758q8 51 20 49q8 -12 123 -12v-152q6 -154 41 -213q25 -42 25 -63q0 -6 -2 -11q-4 -8 -2 -8q4 -2 16 8q25 16 40 14.5t44 -14t43 -12.5q32 0 32 -11q0 -10 -16 -42q-20 -39 -39.5 -47t-44.5 14q-29 27 -41 14.5t11 -26.5q14 -14 -11 -17q-41 0 -111.5 59.5 t-101.5 121.5q-40 81 -40 198q0 69 14 150zM78 1001v6q0 25 24 25q16 0 34 34t34 32q23 0 23 16q-1 14 21 16q5 1 11 1q19 -1 39 -7q28 -8 43 -24q31 -31 39 -23q6 6 6 -2q-4 -37 -33 -78q-23 -27 -83 -59q-47 -25 -61.5 -27t-49.5 19q-45 27 -47 71zM123 696q12 0 18 27 q4 10 0 16q-6 18 -16 -10q-2 -2 -2 -6q-4 -14 -4 -21q0 -6 3 -6h1zM242 1065q0 -10 19.5 -16.5t-3.5 -24.5q-17 -19 -16 -27q0 -5 6 -6q2 -1 3 -1q11 0 30 22q17 19 17 26.5t-24 22.5q-18 11 -26 11q-6 0 -6 -7z" />
<glyph unicode="j" horiz-adv-x="641" d="M62 50q8 11 55 -3q19 -5 38 -5q37 0 78 17q41 23 41 35q-20 6 21 39q57 45 77 126q12 54 12 140q0 44 -3 97q-10 158 -21 229q-8 29 -1.5 37t32.5 8q43 0 51 25q9 21 27 21q13 0 31 -11q20 -14 12 -33q-10 -18 2 -18q51 0 64 -262q3 -55 3 -98q0 -148 -32 -161 q-6 -2 -12 3q-8 6 -11 -7q0 -6 2 -12q1 -4 1 -8q0 -28 -39 -89q-46 -73 -95 -120q-27 -27 -55 -34q-21 -5 -72 -5h-32q-74 0 -100.5 7t-47.5 30q-27 33 -27 47q0 3 1 5zM104 16q6 -2 15 -6q6 -2 9.5 -2t4.5 2q4 10 -16 21q-7 4 -11 2q-16 0 -16 -5q0 -4 14 -12zM246 137 q0 4 2 10q25 43 24 0q2 -10 -11 -14q-4 -1 -7 -1q-7 0 -8 5zM292 1017q25 58 87 93q28 15 35 15q2 0 2 -1q0 -2 -8 -20q-6 -16 -2 -19.5t24 2.5q27 8 50.5 -11t29.5 -56q6 -43 -10 -47q-8 -2 -17 12q-14 14 -14 2q0 -45 -69 -71q-29 -11 -52 -11q-30 0 -49 19q-19 20 -19 47 q0 21 12 46zM403 1053q0 -18 27 -27q25 -10 19 10q-8 27 -33 27q-13 0 -13 -10zM412 983q-2 -5 -2 -8q0 -7 8 -8q12 -2 17 13t-5 19t-18 -16zM420 660q0 -47 22 4q8 23 -6 23.5t-16 -15.5v-12zM438 596v-21q0 -28 4 -28q2 0 4 6q8 22 0 49q-6 23 -8 -6zM485 698 q1 -26 17 -26q29 2 12 28q-16 25 -25 11q-4 -4 -4 -13zM537 1073q0 5 2 5q3 0 12 -13q14 -20 14 -49q0 -9 -2 -9q-4 0 -12 19q-12 27 -14 47z" />
<glyph unicode="k" horiz-adv-x="757" d="M63 227q10 20 41 31q29 8 40.5 24.5t15.5 57.5q6 41 6 101q0 48 -4 108q-8 135 -29 221q-15 62 -25 166q-7 66 -6 100q0 19 2 29q0 8 76 12h24q32 0 38 -4q8 -6 2 -41q-3 -12 -3 -26q1 -30 13 -74q18 -64 33 -64q12 0 32 -86q25 -113 43 -114q10 -2 35 20q37 37 37 55 q8 35 172 183q0 -12 2 -41t3 -48.5t-4 -38t-17 -22.5q-27 -23 -16.5 -39t-16.5 -59q-18 -29 -18 -46.5t18 -62.5q20 -61 82 -118q39 -35 48 -57.5t9 -86.5q0 -76 -17 -97.5t-85 -25.5q-11 -1 -21 -1q-41 0 -41 14q0 12 33 20t33 29q-12 27 -238 243q-20 -193 -41 -239 q-12 -35 -23 -44t-36 -3q-41 8 -47 -6q-8 -15 -46 -17h-10q-30 0 -42 13q-12 12 -29 12q-25 0 -25 13q0 4 2 9zM143 979q-1 -6 -1 -14q0 -32 14 -88q8 -29 10 -29t4 57q0 80 -14 86q-2 1 -5 1q-6 0 -8 -13zM264 231q-4 -7 -4 -11q0 -6 8 -7h4q8 0 12 5q6 7 3.5 16.5 t-8.5 11.5q-6 4 -15 -15zM270 387v-9q0 -16 6 -13q10 0 7 26q0 4 -2 6q-4 12 -9 4q-2 -4 -2 -14zM532 684q20 20 13 29q-2 2 -4 2q-7 0 -15 -19q-2 -2 -2 -4q-5 -14 -5 -16.5t13 8.5zM654 360q4 -4 10 -8q5 -2 8 -2q7 0 8 8q0 18 -16 19q-10 0 -14 -3q-3 -2 -2 -5q0 -3 6 -9 z" />
<glyph unicode="l" horiz-adv-x="583" d="M61 266q4 37 70 82l12 8q74 45 74 56q2 4 -18 16q-33 18 -80 110.5t-47 137.5q0 166 78 368q51 126 85 126q3 0 5 -1q14 -10 6 7q-8 23 26 43q37 26 52 26q10 0 10 -12q0 -14 53 -29q55 -16 94 -90q27 -45 34 -84t7 -129q-2 -215 -110 -407q-33 -59 -33 -75q0 -6 5 -6 q1 0 3 1q14 6 47 -18.5t55.5 -54.5t8.5 -38q-18 -10 -11 -33q6 -18 -18 -18h-4q-53 0 -119 47q-6 4 -10 8l-60 47q-68 -78 -108 -86q-41 -4 -76 -14q-12 -4 -19 -4q-15 0 -12 16zM186 1092q4 -18 25 8q16 20 6 22q-8 8 -19.5 -3t-11.5 -27zM234 846q-6 -53 -6 -99 q0 -100 28 -161q31 -62 45 -62q10 0 20.5 28t40.5 153q12 55 14 131q0 10 1 19q0 65 -15 120q-16 57 -24 66.5t-33 -1.5q-53 -22 -71 -194zM268 1196q0 -18 17.5 -16t23.5 16q6 16 -14 16q-27 -2 -27 -16zM350 1157l33 -43q34 -39 44 -39q5 0 5 10q1 3 1 6q0 24 -42 58 q-21 15 -31 15q-8 0 -10 -7zM385 625l12 14q0 2 2 4q14 24 14 51q0 7 -1 15q-4 18 -8 18h-1q-2 0 -2 -6q-2 -6 -6 -30.5t-6 -35.5q-5 -20 -5 -27q0 -2 1 -3zM389 375q-2 -16 -2 -25q0 -15 4 -16h1l3 6q4 9 4 19.5t-4 21.5q-2 6 -3 6q-2 0 -3 -12z" />
<glyph unicode="m" horiz-adv-x="1159" d="M64 240q-3 4 -3 11q0 16 19 48q29 49 20 57q-4 6 -6 -4l-10 -20q-8 8 18 59q20 34 20 83q0 18 -3 38q-17 104 -19 194v23q0 67 13 78q4 2 9 2q12 -1 28 -17q22 -22 36 -22q27 0 9 -12q-18 -4 -6 -33t22 -14q2 4 4 14q10 25 33 16q2 -1 6 -1q18 0 70 30q60 35 75 35 q2 0 56.5 -1t95.5 -1q106 0 106 -8q0 -6 -14 -17q-35 -27 -18 -24q14 2 45 24q38 23 115 23q31 1 69 -3q131 -14 221 -61q23 -11 23 -87q0 -32 -4 -78q-14 -150 -56 -265q-20 -57 -84 -85q-39 -17 -75 -18q-23 0 -45 7q0 2 40.5 68.5t36.5 78.5q0 25 25 58q26 34 26 106v6 q-1 76 -30 93q-20 12 -16 17t-5 34q-10 20 -28.5 26.5t-65.5 6.5q-100 0 -123.5 -16.5t-31.5 -92.5q-6 -84 -58 -193q-35 -72 -50 -88t-50 -16q-53 0 -51 18q2 4 12 11q6 -6 22 22q29 48 29 65q0 5 -2 7q-2 4 -22 -23q-16 -20 -21 -22l2 12q2 4 4 12q42 116 42 174 q0 7 -1 13q-6 56 -69 82q-32 13 -58 13q-24 0 -45 -11q-27 -14 -33 -28.5t4 -61.5q2 -10 2 -22q1 -44 -27 -122q-36 -98 -36 -127q0 -45 -27.5 -65.5t-89.5 -20.5q-63 1 -75 15zM209 666q0 -5 -1 -9q0 -16 7 -14q10 0 6 27q0 4 -2 6q-4 12 -8 4q-2 -4 -2 -14zM211 268 q1 -2 3 -2q4 0 9 15q16 45 6 47q-8 0 -16 -26q-5 -15 -5 -24q0 -7 3 -10zM256 508q5 -5 8 -5q6 0 8 17q0 37 -16 37t-16 -12.5t16 -36.5zM426 729q-2 -2 6 -4q18 -8 41 0q14 4 -6 6q-16 2 -25 2q-15 0 -16 -4zM621 586q0 -21 5 -21t11 29q8 45 0 45q-16 2 -16 -43v-10z M1048 704q4 -4 11 -8q5 -2 8 -2q7 0 8 8q0 18 -16 19q-9 0 -13 -3q-3 -2 -3 -5q-1 -3 5 -9z" />
<glyph unicode="n" horiz-adv-x="714" d="M61 770q1 26 19 46q17 19 56 18h16q52 -4 81 -31q23 -21 41 -23h6q21 0 76 15q70 18 132 18q30 1 56 -3q86 -12 99 -58q10 -33 10 -87q0 -55 -11 -135q-21 -154 -56 -178q-16 -8 -8 -41q1 -5 1 -9q0 -28 -32 -48q-25 -16 -52 -16q-13 0 -26 4q-29 4 -34 14t5 43 q52 203 56 290q0 6 1 11q1 78 -47 98q-20 8 -49 8q-44 0 -108 -20q12 -68 12 -132q0 -44 -6 -88q-14 -106 -80 -177q-25 -29 -38 -34t-34 5q-33 16 -40 62q-2 16 -2 42q0 46 8 121q8 72 8 122q0 105 -35 120q-25 11 -25 43zM111 786q-1 -16 24 -16q23 -2 25 4q0 4 -10 12 q-18 8 -27.5 8t-11.5 -8zM246 399h1q17 0 21 90q1 12 1 19q0 14 -3 14q-6 0 -18 -53q-5 -37 -4 -54q-1 -13 2 -16z" />
<glyph unicode="o" horiz-adv-x="901" d="M62 515q0 113 69 185q51 55 90 64q35 6 43 39q4 20 28 24q12 2 44 2t82 -2q102 -4 168.5 -20t66.5 -37q-2 -16 45 -10q25 2 27 12q0 2 -2 4q-4 6 6 6q6 0 21 -4q43 -12 59 6q6 10 -8 19q-18 12 -10 31q5 10 12 10q9 0 22 -15q15 -16 15 -41q0 -20 -10 -46 q-22 -58 -78 -107q-45 -39 -55.5 -59.5t-10.5 -79.5q0 -55 -10 -79t-51 -65q-75 -72 -141 -112q-49 -30 -71 -31q-8 0 -12 4q-23 16 -30 8q-3 -4 -11 -4q-24 0 -92 31q-92 41 -133 78q-73 71 -73 189zM227 503q0 -109 140 -159l-58 10q-39 6 -41 2t8 -10q28 -19 61 -20 q66 0 150 82q80 78 80 101q0 2 -1 3q-7 20 -122 20q-129 0 -172 15q-35 10 -40 4t-5 -48zM296 685q-9 -14 -8 -26q0 -19 21 -33q26 -18 74 -18q16 0 35 2q92 10 110 52q8 18 -10 34q-26 20 -66 34q-32 11 -51 12q-5 0 -10 -1q-73 -20 -95 -56zM420 721q18 -4 26 -25 q8 -25 3 -22q-5 -1 -25 22q-10 14 -10 20q0 5 6 5zM506 346v-2v0q1 0 4 2q4 2 16 12q29 25 29 29q0 23 -35 -22q-12 -14 -14 -19zM764 688q19 5 27 25q5 14 5 19q0 3 -2 3h-1q-4 0 -25 -22q-10 -14 -10 -20q0 -5 6 -5z" />
<glyph unicode="p" horiz-adv-x="933" d="M61 -80q0 14 41 14q29 0 34 6.5t-3 34.5q-2 14 -2 26q0 27 12 40q12 12 9.5 33.5t5.5 29.5q10 8 19 56.5t16.5 114t7.5 69.5q6 31 18 157t17 158q6 41 1.5 50.5t-24.5 7.5q-18 -6 -22.5 5t-5.5 28.5t-11 19.5q-14 0 -14 33q0 25 26.5 32t62.5 -3.5t62 -34.5 q20 -20 29.5 -25.5t13.5 -1.5t8 21q8 33 31 24q4 -1 10 -1q21 0 60 17q37 15 72 15h6q37 -2 143 -31q131 -33 169 -86q20 -28 20 -69q0 -38 -17 -87q-39 -123 -150 -205q-107 -79 -225 -79h-6h-86q-29 -236 -57 -295q-12 -27 -2 -25q2 0 6 2q12 8 10 -6q0 -4 -2 -14 q-12 -25 16.5 -32t28.5 -17q0 -23 -29 -26h-9q-25 0 -50 15q-39 25 -47 11q-2 -9 -38 -9q-24 0 -60 4q-95 9 -95 23zM358 844q-2 4 -2 8t2 8q4 8 14.5 8t14.5 -8t0 -16t-14.5 -8t-14.5 8zM362 637q-1 -14 -1 -23q0 -17 4 -18q2 -2 4 6q8 18 0 41q-4 14 -7 -6zM404 600v-53 q0 -75 4 -125q4 -62 16 -62h2q29 0 127 70t106 96q7 19 7 41q0 24 -8 53q-15 54 -44 74q-47 34 -122 34q-39 0 -86 -9q0 -8 -2 -119zM780 750q-2 1 -3 1q-3 0 -3 -3q0 -4 10 -17q4 -8 13 -16q40 -43 47 -43q2 0 2 4q-3 8 -19 33q-18 31 -47 41z" />
<glyph unicode="q" horiz-adv-x="794" d="M70 436q-9 23 -9 51q0 54 33 127q51 113 125 152q78 41 186 41q53 0 113 -10q39 -8 60 -8q25 0 28 10q7 20 19 20q2 0 3 -1q15 -3 15 -27q0 -33 12.5 -42.5t30.5 7.5q20 16 37 8q10 -6 10 -108q0 -150 -22 -509q-4 -51 -7.5 -119.5t-6.5 -105.5t-3 -43q-2 -20 -8 -23 t-18.5 2t-34.5 -5q-17 -8 -27 -8t-12 8q-2 14 29 30q27 16 0 19q-29 0 -37 -17q-8 -10 -16.5 -10t-13.5 10.5t-1 22.5q8 23 -16 31q-27 10 -27 217q0 204 -4 204q-29 -10 -109 -29.5t-102 -19.5q-51 0 -133 45t-94 80zM142 442q4 -4 10 -8q14 -6 16 6q0 18 -16 19 q-10 0 -14 -3q-2 -2 -2 -5q0 -4 6 -9zM201 422q0 -12 34.5 -45t43.5 -29q4 0 4 3q0 11 -58 57q-26 20 -24 14zM264 564q-7 -31 -7 -58q0 -63 40 -100q37 -37 45 -15q6 27 23 2q8 -13 35 -13q19 0 49 7q49 10 61 23.5t29 72.5q14 54 14 96q0 16 -2 31q-8 43 10 54 q12 6 8 24.5t9 24.5q16 12 6 27q-8 14 -21 14h-4h-2q-8 0 -4 -13q6 -18 4 -18t-10 4q-6 2 -11.5 2t-13.5 -5t-13 -9t-13.5 -13.5t-13.5 -14.5t-12 -13t-9 -10l10 36q10 41 -29 37q-29 -2 -75 -26q-78 -41 -103 -147zM578 -16v-13q0 -23 5 -23t17 27q3 8 3 14q0 9 -9 10h-2 q-12 0 -14 -15z" />
<glyph unicode="r" horiz-adv-x="555" d="M72 631q-9 106 -9 160t9 57q12 0 17 33.5t26 25.5q24 -11 24 7q0 15 21 14h10h2q9 0 17 -12q8 -14 13 -38t9 -48.5t8 -52t6 -38.5q152 82 174 99q37 29 54 20q8 -4 6 6q0 2 -2 8q-2 8 2 16.5t14 8.5q21 0 21 -43q0 -40 -19 -86q-10 -23 -79.5 -76t-90.5 -53 q-14 -2 -19 -26.5t-18 -24.5q-27 0 0 -10q25 -6 4 -27q-14 -17 -32 -121q-12 -68 -13 -98q0 -17 4 -23q2 -4 2 -6q0 -7 -15 -8q-18 0 -56 10q-37 10 -55.5 74.5t-34.5 251.5zM127 612q-1 -12 -1 -21q0 -28 5 -28q2 0 4 6q4 11 4 23t-4 26q-3 10 -5 10t-3 -16z" />
<glyph unicode="s" horiz-adv-x="677" d="M62 344q4 38 26 45q20 6 10 -18q-8 -27 17 -27q31 0 150.5 59.5t144.5 85.5q23 25 8 29q-12 4 -80 4q-59 0 -116.5 17.5t-96.5 17.5q-47 1 -57 19q-4 7 -3 20q1 22 9 56q14 58 85.5 128t137.5 92q33 12 83 18q37 4 66 4q11 0 20 -1q36 -2 36 -12q0 -12 -21 -13 q-18 -2 17 -30q39 -35 30.5 -47.5t-67.5 -14.5q-70 -2 -145.5 -44t-75.5 -77q0 -31 18 -32q12 0 14 20q0 18 17 -4q10 -14 147 -27q23 -2 54.5 -4t44 -3t31 -5t23.5 -10t13 -19.5t11 -32t3 -46.5q0 -53 -10 -74t-51 -56q-98 -80 -340 -96q-28 -2 -51 -2q-71 0 -88 19 q-15 19 -15 47q0 7 1 14zM145 680q14 -4 31 20q12 18 -2 29q-19 11 -27 -16q-8 -17 -8 -25q0 -7 6 -8zM248 377q-4 -7 -4 -11q0 -6 7 -6h1q13 0 37 17q10 6 13 9t-1 5t-16 2q-31 0 -37 -16zM444 492q-2 -5 -2 -8q0 -8 11 -9q20 1 24 17q6 16 -8 16q-20 0 -25 -16zM504 844 q-2 4 -2 8t2 8q4 8 14 8t14 -8q2 -4 2 -8t-2 -8q-4 -8 -14 -8t-14 8z" />
<glyph unicode="t" horiz-adv-x="811" d="M76 606q8 4 20 8q23 8 24 13.5t-22 21.5q-18 14 -19 21.5t15.5 17.5t81.5 33q66 16 92.5 44t50.5 103q31 90 68 111q26 13 41 13q8 0 12 -4q12 -11 -12 -48q-8 -14 -12 -21.5t-4 -11.5t3 -5t11 -1q16 0 31.5 33t29.5 33q25 0 5 -21q-18 -29 -29 -74q-10 -41 -6 -47t30 2 q35 11 116 13h27q54 0 54 -9q0 -8 27 -16q10 -4 -35 -29q-37 -18 -94 -43l-152 -65q0 -14 -1 -70v-36q0 -34 1 -60q2 -39 10.5 -47t7 -26.5t15.5 -28.5q25 -18 24 -43q1 -45 103 -67q38 -8 67 -8q49 0 72 23q21 21 21 1q0 -18 -21 -42q-31 -31 -74 -61q-45 -31 -105 -31 q-16 0 -34 2q-82 10 -102 29q-27 20 -92 195q-8 16 -15.5 24t-9.5 6q-1 -1 -1 -3q0 -11 19 -64q23 -53 7 -52q-25 16 -44.5 79t-19.5 126q0 66 -14 76q-4 2 -10 2q-18 0 -60 -22q-30 -17 -58 -17q-19 0 -38 8q-18 8 -18 17t16 18zM123 657q9 -1 17 -1q32 0 59 18q10 6 10 14 q-2 14 -12.5 14t-51.5 -16q-33 -15 -33 -22q0 -5 11 -7zM394 341q-1 0 -1 -1q0 -3 6 -16q4 -12 11 -19q8 -8 10 4q0 10 -12 23q-11 9 -14 9zM438 231q1 -18 17 -18q3 0 5 -1q8 0 11 5q1 2 1 3q0 8 -17 18q-4 2 -8 2q-7 0 -9 -9z" />
<glyph unicode="u" horiz-adv-x="774" d="M68 526q10 78 49 126t98 57q15 2 27 2q31 0 37 -15q4 -12 4 -29q0 -43 -27 -114q-16 -42 -17 -103q0 -8 1 -14q2 -70 20 -94q16 -20 45 -32.5t39 -2.5q8 12 -8 33q-18 20 -6 20q10 -2 41 -20q14 -9 34 -10q28 0 66 20q37 19 37 35q0 6 -6 12q-17 17 -17 51.5t38 151.5 t52 125q22 16 40 16q36 0 49 -73q5 -28 5 -64q0 -27 -3 -59q-4 -51 -4 -78q0 -13 1 -21q3 -22 21 -26q29 -8 29 -40q0 -38 -35 -73q-39 -39 -35 -49q4 -4 -10.5 -4t-34.5 4q-17 2 -38 2q-53 0 -128 -14q-76 -16 -108 -16h-2q-32 0 -91 22q-111 40 -145 98q-23 39 -24 105 q0 32 6 71z" />
<glyph unicode="v" horiz-adv-x="864" d="M80 780q6 10 14 19.5t14.5 12.5t8.5 1q10 -10 -15 -37q-18 -23 -12 -22q4 0 14 4q37 12 70 98q59 -59 80 -59q3 0 6 2q6 6 6 2t-10 -17q-23 -31 2 -51q18 -16 51 -139t43 -139q14 -23 27 -6q8 14 37 73q43 90 113.5 181.5t97.5 91.5q10 0 23.5 -5.5t21.5 -8.5t16 1t12 21 q8 29 38 33t53 -23q11 -14 11 -29q0 -14 -9 -28q-16 -33 -27 -33q-10 0 0 25q6 18 2 18t-16 -12q-25 -25 -25 -43q0 -23 -16 -23q-18 0 -60 -90q-52 -106 -64 -106h-1q-4 0 6 26q6 18 2 21q-4 0 -10 -4q-14 -4 -19.5 -39t-19.5 -39q-12 0 -12.5 -3t12.5 -8q18 -6 18 -24 q-2 -16 -24 -6q-25 10 -25 -17q0 -23 16 -14q18 12 17 -4q-2 -23 -33 -53q-33 -33 -33 -49q0 -14 -30.5 -32t-57.5 -18q-18 0 -36.5 41t-39.5 41q-35 0 -108.5 91.5t-120.5 207.5q-26 63 -26 108q0 37 18 62zM121 623q5 -5 8 -5q6 0 8 17q0 39 -16 45q-16 8 -16 -11 q0 -21 16 -46zM242 842q0 4 2 10q12 22 18 22t6 -22q2 -10 -11 -14t-15 4zM612 754q0 -10 3 -14q2 -3 5 -2h2q4 1 7.5 5.5t7.5 10.5q2 5 2 8q0 7 -8 8q-18 0 -19 -16z" />
<glyph unicode="w" horiz-adv-x="1036" d="M74 674q18 8 8 55q-4 17 -4 29q0 22 14 30q16 11 28 11q17 0 23 -25q6 -27 15 -8q2 6 6 16q6 18 9 25.5t9 8.5t13.5 -5t23.5 -23q23 -14 50.5 -144t39.5 -146q16 -23 29 -6q6 8 27 53q33 76 100 174q70 100 90 100q6 0 8 -8q0 -6 -2 -20q-4 -29 12 -37q8 -2 12.5 7 t8.5 30q5 38 15 38q8 0 20 -22q25 -47 43 -156l8 -63q125 195 168 223q35 24 61 24h5q28 -3 28 -32q0 -33 16 -33t16 -11q0 -8 -9 -22q-23 -33 -123 -143q-59 -63 -86 -137q-6 -20 0 -23q2 -2 12 6q23 18 27 6q0 -18 -23.5 -35.5t-48.5 -17.5q-20 0 -23.5 -8t2.5 -35 q8 -27 4 -31t-26 7q-35 20 -85 84.5t-65 109.5q-12 37 -17 40t-21 -15q-14 -18 -13.5 -40t-11.5 -38q-18 -25 -12 -25q1 0 1 -1q0 -9 -22 -74q-14 -39 -6 -39q10 0 -22 -19q-2 0 -5 -2q-22 -13 -37 -13q-4 0 -7 1q-17 4 -56 35q-47 37 -65 37q-5 0 -7 -2t-13 4t-27.5 20 t-32.5 33q-51 57 -81 145q-15 45 -15 72q0 26 14 35zM199 707q-4 -7 -4 -12q0 -6 8 -7q10 -2 15 5t3 16.5t-8 11.5q-1 1 -2 1q-5 0 -12 -15zM565 514q3 -21 17 -39q9 -12 13 -12q3 0 3 6q-2 23 -16 39q-9 12 -14 12q-3 0 -3 -6z" />
<glyph unicode="x" horiz-adv-x="737" d="M62 210q0 15 22 15q12 0 55 27t79 55.5t30 34.5q-1 1 -2 1q-11 0 -60 -38q-49 -42 -63 -42q-6 0 -4 9q2 27 43 56q6 6 12 8q55 25 148 117l-29 65q-46 92 -46 130q0 16 9 22q2 2 6 2q16 0 2 12q-16 10 -21 52q-1 12 -1 24q0 29 8 55q6 16 20.5 23.5t25.5 1t11 -22.5 q2 -8 25.5 -16t23.5 -29q0 -14 11.5 -39.5t20.5 -44t29.5 -52.5t22.5 -38q-27 127 -45 168q-20 49 -8 51q2 0 6 -2q20 -8 47 -104q20 -78 29 -80q4 0 18 24q27 47 54 72q16 16 20 25.5t-4 13.5q-20 6 -20 24.5t24 6.5q12 -6 18.5 1t7.5 20t5 23.5t12 10.5q12 0 13 -26v-7 q0 -24 -5 -61q-6 -43 -6 -45q4 4 12 30q25 66 39 68q8 2 15 -14q3 -8 3 -20q0 -34 -24 -102q-33 -93 -84 -175q-31 -47 -35 -67.5t9 -43.5q29 -53 59.5 -90t48.5 -39q20 -2 6 -10q-20 -14 -12 -21q12 -4 -16 -30q-33 -33 -37 -6q-4 18 -29 20q-20 0 -14 -25q6 -14 0 -17 q-2 -1 -5 -1q-8 0 -24 6q-45 18 -104 148q-58 -54 -146 -110q-59 -38 -85 -37q-13 0 -19 9q-10 14 12 29q20 16 -14 8q-23 -6 -72 -22q-28 -9 -28 9z" />
<glyph unicode="y" horiz-adv-x="704" d="M61 141q4 20 70 66q51 37 51 43q-2 6 -22 8q-29 4 -15 16q10 8 48 31q47 29 63 61.5t-10 49.5q-14 18 -42 176t-36 176q-21 46 -21 58q0 5 3 5q6 0 26 -18q31 -27 39 -6q4 12 12 12q16 0 49 -65q29 -55 56 -136q43 -125 55 -125q1 0 2 1q10 25 33 47q37 36 90 286 q8 35 12 37q4 0 13 -12q0 -2 2 -4q16 -29 6 -47q-16 -27 14 -33q27 -6 47 14q29 27 37 19q2 -2 2 -7q0 -31 -59 -180q-68 -176 -107 -233q-72 -100 -132 -159q-48 -47 -70 -47q-5 0 -9 3q-20 18 -28 10q-10 -10 -95 -41q-48 -18 -69 -18q-17 0 -15 12zM260 582q6 -25 14 -25 t8 16.5t-8 49.5l-8 16q-9 -1 -9 -24q0 -13 3 -33zM293 420v-9q0 -14 5 -14h1q7 0 7 14q0 5 -1 13q0 4 -2 6q-2 7 -5 7l-3 -3q-2 -4 -2 -14z" />
<glyph unicode="z" horiz-adv-x="743" d="M61 260h7q29 2 20 27q-1 3 -1 6q0 28 69 92q60 56 60 69q0 2 -1 3q-2 2 -18 2q-37 0 -70 -17q-31 -18 -41 0q-4 12 10.5 17.5t9.5 19.5q-6 16 13 21q4 2 73.5 31.5t104.5 33.5q57 8 135 88q72 76 72 84q0 4 -18 4q-20 0 -62 -5q-80 -9 -162 -25.5t-88 -26.5 q-10 -14 -53 -6t-43 24q0 41 235 125q151 53 207 52q27 0 33 -11q0 -12 -21 -20q-8 -4 2.5 -4t30.5 4q12 2 22 2q31 0 31 -20q0 -26 33 -27q30 0 30 -19q0 -6 -3 -14q-8 -23 -43 -74q-46 -70 -46 -84q0 -2 1 -2q4 -4 28 -4q35 0 33 -24q-2 -25 -41 -35q-41 -8 -41 -25 q0 -14 -37 -14q-29 0 -143.5 -90t-114.5 -110.5t21 -0.5q14 10 112.5 30.5t186.5 29.5q9 1 17 1q35 0 44 -22q8 -18 -16 -33q-29 -18 -8 -18q20 0 20 -35q0 -25 -14 -30q-5 -2 -17 -2q-19 0 -55 5q-22 3 -80 3q-57 0 -153 -3q-54 -2 -96 -2q-103 0 -125 11zM212 761 q-1 -1 -1 -2t2 -3q4 -2 16 -2q29 0 29 16q0 23 -33 0q-10 -6 -13 -9zM442 810q-2 -1 -2 -2.5t2 -2.5q4 -2 17 -2q28 0 28 16q0 12 -8 11.5t-24 -11.5q-9 -6 -13 -9zM537 328q-5 -5 -5 -8q0 -7 25 -9q45 0 53 17q2 4 2 6q0 8 -16 8q-6 1 -11 1q-25 0 -48 -15z" />
<glyph unicode="{" horiz-adv-x="604" d="M63 489q4 2 13 3q6 0 35.5 41.5t44 33.5t19.5 10.5t20 -4.5l12 -14q2 0 -4 19q-43 131 -2 258q8 27 16 48t15.5 32.5t9.5 9.5q8 -4 45 41t37 61q0 12 -33 -24q-6 -6 -10 -13q-29 -35 -29 -26q0 4 4 10q37 78 150 127q55 23 70.5 24.5t43.5 -12.5q29 -16 22 -40.5 t-40 -24.5q-31 0 -90 -95q-41 -68 -53.5 -104.5t-16.5 -120.5q-14 -262 14 -369q23 -86 0 -129q-8 -14 -18 -8q-16 8 -6 -67q8 -70 8 -68q0 -20 33 -26.5t51 10.5l14 8l-2 -2q-8 -8 21.5 -46t19.5 -48q-16 -14 -85.5 -20.5t-78.5 5.5q-6 14 -47 15q-80 0 -98 163 q-4 61 -18 121q-2 20 6 23q8 -4 12 6t6 31q0 49 16 78q29 53 -16 53q-12 0 -12 -13q4 -27 -7.5 -27.5t-43.5 19.5q-63 39 -48 51zM260 633q-2 -25 6 -23q10 0 6 27q0 4 -2 6q-4 12 -8 4q-2 -4 -2 -14z" />
<glyph unicode="}" horiz-adv-x="602" d="M61 8q-2 8 5.5 11.5t19.5 0.5q29 -2 77 16.5t34 45.5q-8 31 47 63q49 31 62 74t5 141q-6 92 25 136q33 43 14 55q-18 6 -49 78q-20 47 -22.5 76.5t8 101.5t8.5 100.5t-25 73.5q-33 68 -71 68q-20 0 -23 4q-2 2 8 10q2 0 4 2q16 8 16.5 14t-16.5 17q-18 12 -10 32 q18 29 70.5 15.5t103.5 -58.5q63 -57 77.5 -115.5t-5.5 -166.5l-21 -107q105 -94 103 -106q-10 0 16 -31q16 -16 17.5 -23.5t-7 -13.5t-38.5 -18q-57 -25 -68.5 -47.5t8.5 -87.5q31 -98 -28.5 -217t-118.5 -119q-27 0 -41 -15q-16 -16 -99.5 -21t-85.5 11zM369 338 q-2 -25 6 -23q10 0 6 27q0 4 -2 6q-4 12 -8 4q-2 -4 -2 -14z" />
<glyph unicode="~" horiz-adv-x="772" d="M61 469q0 20 58.5 70.5t73.5 42.5q16 -8 26 10q4 10 3 11t-9 -3q-20 -10 -20 4q-2 10 25.5 22.5t54 18.5t38.5 8q23 -4 160 -141q156 43 190.5 69.5t46 3t-0.5 -52.5q-14 -45 -128 -88t-153 -20q-10 6 -35.5 14t-38 19.5t-12.5 34.5q0 10 -1 17t-4 11t-8 5t-10.5 2 t-13.5 2t-16 3q-23 2 -23 -4q2 -2 -6 -10t-24.5 -21.5t-36.5 -27.5q-80 -53 -107 -37q-29 18 -29 37zM602 590q45 29 45 10q0 -4 -4 -10q-8 -17 -37 -17q-31 0 -4 17z" />
<glyph horiz-adv-x="626" d="M68.5 962.5q25.5 108.5 95.5 157.5q29 20 54.5 13t24.5 -29.5t-28 -46.5q-27 -18 -33 -125q-4 -86 4 -86q2 0 7 6q8 16 18 15t31 -21q61 -55 -6 -101q-33 -23 -76 -10t-72 56q-45 63 -19.5 171.5zM371 815q-37 100 18 225q23 55 62 95q29 31 38 33.5t25 -17.5 q10 -12 16.5 -16.5t8.5 0.5q2 6 6 26q8 29 10 31q6 4 10 -16q8 -25 -24 -58q-20 -20 -52 -107t-32 -122q0 -16 37 -8q59 12 67 -35q8 -49 -45 -82q-10 -6 -20 -10q-90 -35 -125 61z" />
<glyph horiz-adv-x="634" d="M63 1008q-8 20 11 70.5t35 54.5q23 -2 49 13t37 17q14 0 43.5 -23.5t52 -50t16.5 -32.5q-14 -14 -14 -72q0 -59 -55 -129q-82 -106 -82 -51q0 16 -25 -2q-37 -31 -35 -4q2 18 25 47q41 51 33 63q-6 10 -39 -32q-41 -49 -41 -35t49 71q39 45 46 63.5t-13 31.5 q-16 8 -16.5 -6.5t-17 -18.5t-35.5 3t-24 22zM176 1055q6 -6 14 12q12 31 5 31q-4 0 -14.5 -18.5t-4.5 -24.5zM207 870q6 0 24 27q25 41 19 55q-4 12 -23 -18q0 -4 -2 -6q-27 -57 -18 -58zM352 737q-12 6 17 56q31 57 12 63t16 57q33 45 27 54q-2 6 -23 16q-51 29 -22 104 q2 10 10 16.5t12 2.5q6 -4 43 26.5t52 22.5q24 -8 36 -8q23 0 36.5 -35t-1.5 -51q-18 -18 -18 -57q0 -63 -103 -189q-74 -90 -94 -78zM467 1110q0 -29 16 -37q25 -6 13 19q-2 4 -7 12q-4 8 -6 10q-6 10 -9 13t-5 -1t-2 -16z" />
<glyph unicode="&#xa2;" horiz-adv-x="866" d="M68 408q-14 37 8 125t65 161q29 51 57.5 69.5t123.5 51.5q51 18 118.5 24.5t85.5 -3.5q10 -14 40 18.5t53.5 73.5t21.5 49q0 12 55 76q57 66 60 55q0 -4 -2 -23q-2 -14 3 -21t21 -5q29 2 27 -17q-4 -23 -62 -98q-143 -193 -129 -239q4 -27 -6 -25q-2 8 -24 -39 q-76 -156 -119 -295q-8 -31 -4 -31q10 -4 98 35q96 45 96 31q0 -8 -14 -29q-16 -23 -32.5 -8.5t-33.5 -7.5q-12 -16 -11 -18.5t22 4.5q23 8 23.5 6t-23.5 -29q-33 -37 -19.5 -36t51.5 40q49 47 56 31q4 -8 -17 -33q-25 -29 -93 -58.5t-113 -29.5q-33 0 -50.5 -14.5 t-48.5 -67.5q-43 -80 -61 -84q-10 -2 12 47q51 98 35 117q-6 10 -33 -31q-4 -8 -10 -18q-27 -47 -47 -39q-12 4 -15.5 -3t-4.5 -22.5t-5 -21.5q-4 -16 -2 -20.5t17 1.5q25 8 32 -14q4 -12 1 -16t-13 0q-16 4 -33.5 -20.5t-31.5 -22.5q-25 -2 -64 -107q-25 59 -24 97t47 137 l55 127q-88 94 -105 163l-14 50q-2 -2 -4 -33q0 -4 -2 -15q0 -20 -2 -22l-8 18q-2 4 -4 9zM154 -123q-6 4 3 19.5t22.5 25.5t17.5 4q6 -2 -3.5 -17t-22.5 -26.5t-17 -5.5zM172 555q-4 -39 2 -41q2 -2 4 6q8 18 0 41q-4 14 -6 -6zM262 399q14 -23 41 17q11 14 23 37 q8 12 50 76.5t71.5 114.5t35.5 75q-12 0 -84 -27q-68 -23 -112 -98q-70 -119 -25 -195zM387 315q20 -20 41 31q4 14 8 31q6 35 22.5 41t22.5 41q6 49 4 49q-14 0 -60 -92t-38 -101zM453 786q8 -12 39 -10.5t45 15.5q6 6 -9 8q-45 12 -73 -2q-8 -4 -2 -11zM482 525.5 q2 -0.5 22 19.5q29 29 22 35q-10 10 -30 -27q-16 -27 -14 -27.5z" />
<glyph unicode="&#xa3;" horiz-adv-x="948" d="M61.5 224.5q1.5 49.5 24.5 82.5q20 31 77.5 51.5t92.5 10.5q25 -6 45.5 9t40.5 15q31 0 31 17q0 27 -30 62.5t-50 33.5q-127 -12 -139 35q-6 33 -43 32q-31 0 -29 11q4 20 86 32q90 12 72 37q-4 4 -15 11q-20 12 -15 77.5t34 120.5q37 78 100.5 139.5t112.5 67.5 q152 16 202 -8q35 -16 39 -44t-26 -52q-18 -14 -19 -11q0 2 2 7q6 10 -4 27.5t-26.5 21.5t-30.5 -11q-23 -18 -43 -6q-8 4 -11 3t1 -9q10 -16 -52 -59q-51 -35 -78.5 -76t-13.5 -64q10 -20 -8 -43q-23 -29 -8.5 -51t55.5 -22q51 0 58 14q8 16 77 25q96 14 162 39q39 18 49 8 q8 -8 -14 -17q-14 -6 -95 -77.5t-112 -75.5q-37 -14 -43 -32.5t-6 -115.5q0 -129 18 -129q14 2 119 26.5t152 27.5q84 4 86 -11q0 -2 -2 -8q-6 -25 -107.5 -85t-156.5 -73q-53 -10 -132 11q-59 14 -76.5 11t-56.5 -34q-35 -29 -62.5 -37t-90.5 -8q-102 0 -123 21 q-20 23 -18.5 72.5zM240 215q23 2 45 35q8 10 6 16q0 25 -25 6q-12 -10 -22 -26q-18 -35 -4 -31zM438 322q4 -18 23 8q16 20 8 22q-12 6 -22.5 -5t-8.5 -25zM457 438q0 -45 14 -53q8 -4 12 0t2 12q0 20 -14 54q-12 29 -14 12v-25zM524 645q2 -12 31 -2q18 8 -8 10 q-23 0 -23 -8z" />
<glyph unicode="&#xa7;" horiz-adv-x="798" d="M61 588q0 41 44.5 109.5t87.5 95.5q47 27 55 79q8 49 52 118t79 91q59 39 158 47q31 2 61 -22q10 -8 4 -12q-8 -8 -86 -43q-78 -39 -88 -78q-12 -39 -24.5 -39t-14.5 -16.5t5 -37t20 -34.5q25 -25 24.5 -41.5t22.5 -7.5q20 6 52 -28t48 -36q14 -2 22.5 -9t6.5 -15 q-4 -12 8 -13q10 0 27 9q47 16 70.5 -10.5t31.5 -108.5l10 -94l-88 -84q-84 -78 -67 -74q16 10 34.5 -19.5t18.5 -66.5q0 -70 -83 -159t-146 -89q-74 0 -140 63q-55 51 -18 72q2 2 4 2q55 18 55 -12q0 -41 35 -39q39 2 55 49q8 23 12.5 25t6.5 -13q2 -2 2 -4q8 -33 41 -10 q29 18 28 49q0 14 -4 19.5t-14 1.5q-6 -2 -6 2q0 10 16 31q39 53 4 55q-6 0 -98 -25q-25 -6 -35 -4q-29 2 15 25l16 8l65 33l-61 -6q-61 -8 -142 16t-112 59q-29 33 -49.5 88.5t-20.5 102.5zM197 475q-8 -8 28 -41q16 -12 15 -6q-2 6 -15 23q-24 24 -28 24zM242 612 q-14 -63 5 -101t91 -75q51 -27 74.5 -32t46.5 8q76 41 78 125q0 41 -31 79.5t-64 38.5q-23 0 -84 33q-57 27 -78.5 13.5t-37.5 -89.5zM258 416q-2 -4 13.5 -18.5t33 -24.5t19.5 -8q8 2 -35 38q-29 23 -31 13zM625 571q-4 -39 2 -41q2 -2 4 7q8 18 0 41q-4 14 -6 -7z" />
<glyph unicode="&#xa9;" horiz-adv-x="1394" d="M72 537q-23 109 7 204t120 205q57 72 69 53q14 -20 31 15q18 33 102 76t160 57q102 21 133 29q59 16 80 16t39 -16q23 -20 141 -62q129 -43 219.5 -126t124.5 -189q49 -145 25.5 -233.5t-141.5 -200.5q-100 -96 -193 -125q-70 -20 -119 -45q-33 -18 -221 -22.5t-229 9.5 q-31 10 -100.5 68.5t-104.5 68.5q-104 31 -143 218zM111 702q-4 -39 2 -40q2 -2 4 6q8 18 0 41q-4 14 -6 -7zM127 758q4 -10 25 22q36 66 22 72q-12 0 -33.5 -43t-13.5 -51zM139 467l4 -16q12 -49 47 -82q23 -23 23 -16.5t-27 57.5q-59 125 -47 57zM139 535q-2 -25 6 -23 q10 0 7 27q0 4 -2 6q-4 12 -9 4q-2 -4 -2 -14zM203 903q-2 -4 4 0q4 2 16 12q29 25 29 29q0 23 -35 -22q-12 -14 -14 -19zM283 711q-23 -14 6.5 -108.5t56.5 -94.5t6 -14q-25 -16 10 -62q94 -131 215 -175t252 5q84 33 121 33q20 -6 90 61.5t76 69.5q20 10 101 168 q-57 164 -105 215q-41 45 -41 59q0 20 -67.5 80t-120.5 88q-74 39 -167 48.5t-128 -19.5q-14 -10 -62 -23q-70 -16 -161 -126.5t-76 -163.5q8 -33 -6 -41zM367 332q-1 -17 32 -25q31 -8 33 -4t-14 16q-47 29 -51 13zM431 630q1 97 24 136q61 106 157 123l50 16q18 6 95 1 t130 -15q37 -9 37 -29q-2 -6 5 -25.5t15 -40t14.5 -42t1 -34.5t-21.5 -15q-14 0 -14 22.5t-23 40.5q-16 12 -18 8q-2 -6 4 -26q6 -27 2 -27t-45 35q-51 45 -103 45q-43 0 -86 -38t-43 -75q0 -16 -2 -37.5t-2 -31t6.5 -23.5t22.5 -33q35 -41 29 -41q-4 0 -19 4 q-18 4 -28.5 -3t-7.5 -19t22 -19q29 -10 104.5 -0.5t122.5 27.5q43 16 86 15t43 -21q0 -16 -82 -65.5t-125 -59.5q-63 -12 -186 28t-143 81q-23 41 -22 138zM686 1147q-6 -16 8 -17q21 1 25 17q6 16 -8 16q-20 0 -25 -16zM899 1081q-12 0 4 -14q2 0 4 -2q25 -16 41.5 -16 t-8.5 16t-41 16z" />
<glyph unicode="&#xab;" horiz-adv-x="845" d="M61 512q0 39 50.5 106.5t85.5 77.5q27 8 69 37l23 19q-2 2 -31 -7l-41 -10q25 27 73 56.5t50 -3.5q0 -4 6 -5t17.5 1t25.5 7q33 12 45 10t27 -23q16 -20 14 -30.5t-26 -30.5q-16 -14 -52.5 -45t-66 -54.5t-60.5 -44.5q-63 -43 -69 -63q-10 -23 49 -92.5t121 -106.5 q68 -41 67 -51q0 -14 -44 -28.5t-64 -6.5q-27 8 -41 -14q-8 -14 -29.5 0t-69.5 68q-129 137 -129 233zM377 471q162 166 215 213q59 55 59 74q0 16 39 6q41 -10 49.5 14.5t24.5 24.5q12 -2 7 -31t9 -33q16 -12 -49 -110q-57 -82 -88 -108.5t-53 -16.5q-20 6 -21 -15 q0 -23 37 -59.5t58 -36.5q10 0 15 -5t5 -11t5 -11.5t16 -5.5q12 0 32.5 -15t34.5 -33.5t8 -24.5q-2 -2 -9 -5t-18.5 -8.5t-19.5 -9.5q-31 -12 -31 -14t27 -2q35 -2 37 -17q0 -18 -43 -18q-94 0 -254 164zM504 526q-2 -4 4 0q4 2 16 13q29 24 29 28q0 23 -35 -22 q-12 -14 -14 -19zM635 657q-2 -4 4 0q4 2 16 13q29 24 29 28q0 23 -35 -22q-12 -14 -14 -19z" />
<glyph unicode="&#xad;" d="M62.5 588q0.5 10 25.5 35q61 61 309 67q119 4 138 17q8 16 49 -17q41 -39 14 -49q-23 -14 -12 -47q8 -20 -4.5 -29.5t-63.5 -21.5q-102 -25 -222 -37t-122 2q-10 10 -44 19.5t-48 27.5q-20 23 -19.5 33zM532 619.5q1 -33.5 15 -37.5q10 -6 14 14q8 41 -8 57q-2 2 -6 2 q-16 -2 -15 -35.5z" />
<glyph unicode="&#xb0;" horiz-adv-x="743" d="M61 913q0 137 128 215t286 35q51 -16 66.5 -15t25.5 19q29 45 35 -22q2 -10 2 -25q4 -98 43 -59q35 35 35 12q0 -16 -20 -51t-26.5 -52.5t-12 -46t-15.5 -59.5q-14 -47 -46 -69.5t-136 -55.5q-59 -20 -188 15q-131 39 -152 59q-25 25 -25 100zM231 989q2 -18 9.5 -80.5 t7.5 -66.5q6 -10 57 -22.5t62 -6.5q12 8 10 2q0 -4 -2 -8q-8 -16 0 -19q14 -4 20 13q2 4 2 10q2 29 88 82l-96 10q-49 4 -79.5 17.5t-40 22.5t-38.5 46zM332 1032q0 -35 10 -42t61 -7q127 0 66 68q-27 30 -84 30q-37 0 -45 -7t-8 -42zM422 795l37 30q23 16 33 33q6 10 2 10 q-10 2 -41 -37zM496 1118q0 -10 32 -33q23 -16 26 -13t-13 26q-27 45 -41 30q-4 -2 -4 -10z" />
<glyph unicode="&#xbb;" horiz-adv-x="866" d="M70 143q-25 12 8 56q25 31 33 18q10 -6 10 8q0 16 112 129q88 86 95 107q10 29 -43 74q-10 6 -56 43q-53 41 -55 36q0 -4 12 -26q12 -27 11 -27q-2 0 -9 6q-23 23 -33 71t3 71q16 31 35.5 23.5t80.5 -66.5q72 -72 144 -93q49 -14 57 -24t0 -53q-12 -61 -80 -127 q-168 -162 -233.5 -207t-91.5 -19zM367 170q0 18 62.5 79.5t78.5 61.5q14 0 42 23.5t64.5 60.5t44.5 45q-6 6 -32.5 37t-39 44.5t-29.5 39t-28 45.5q-25 49 -55 80q-33 29 -24 43q4 6 20 -4q23 -14 57.5 -11t34.5 19q0 43 25 2q8 -14 16 -35q10 -23 89 -118t85 -105 q12 -84 23 -104q12 -31 -19 -39q-109 -33 -213 -129q-74 -66 -88 -58q0 20 -39 -4q-29 -20 -52 -11t-23 38zM735 377q-6 -15 6.5 -17t17.5 13.5t-5 19.5t-19 -16z" />
<glyph unicode="&#xc0;" horiz-adv-x="944" d="M63 328q-8 16 25 82q35 68 16 88q-16 23 25 39q35 14 60.5 61t74.5 188q51 139 78 193q33 63 39 123q4 23 27 6q8 -6 14 -21q4 -12 7 -15t9 1t19 17q20 23 44.5 10t37.5 -51q8 -27 39 -21q29 8 49 -21.5t59 -142.5q43 -121 74 -147q28 -23 22 -58q-8 -29 16.5 -37 t26.5 -16q0 -10 -26.5 -15t-14.5 -30q16 -35 46 -156.5t32 -150.5q0 -31 19 -45q8 -4 -7 -8q-10 -2 -32 0q-57 4 -69.5 20.5t-12.5 -4.5q-10 -41 -25 -8q-8 20 -8 49q0 41 -7 77t-22.5 82t-21.5 70q-14 59 -29 60q-4 0 -8 -4q-25 -16 -129 -35q-113 -16 -146.5 -31.5 t-91.5 -73.5q-96 -96 -188 -182q70 104 63 119q-10 6 -10 -8q0 -16 -31.5 -18.5t-42.5 14.5zM143 397q4 0 7 2q22 10 36 45q18 33 9 31q-14 -4 -50 -63q-10 -20 -2 -15zM242 1473q-14 53 10 49q10 -2 27 -17q20 -18 22 -12q0 4 -4 18q-8 31 0 37q10 4 20.5 -11t20.5 -13 q16 -2 69.5 -71t69.5 -112q14 -37 1 -66.5t-46 -29.5q-31 0 -92 62q-72 70 -98 166zM391 803q16 10 43 90q10 33 6 37q-2 2 -5 0t-7 -8.5t-6 -14.5t-12.5 -32.5t-12.5 -34.5q-12 -39 -6 -37zM395 1063q0 -4 8 -19q4 -8 6.5 -19t3.5 -18.5t3 -12.5t8 -2t16 16q29 29 17 36 q-8 12 -8 -4q0 -10 -33 15q-18 14 -21 8zM408 623q27 0 107.5 28.5t80.5 38.5q-2 20 -46 129t-58 111q-12 6 -9 -6q0 -4 2 -11q8 -18 -18.5 -116.5t-52.5 -145.5q-18 -28 -6 -28z" />
<glyph unicode="&#xc1;" horiz-adv-x="1017" d="M62.5 310q-1.5 22 11.5 91q18 100 109 303t124 254q14 23 34.5 68t39 74.5t45.5 50.5q57 49 66 18q2 -8 -3 -22q-8 -33 -22 -33t-6 -24q4 -10 6 -13.5t6 -3.5t7 4t12 15q16 23 26 -2q4 -12 12 -39q20 -68 43 -82q6 -4 7 6q0 8 -5 26q-4 16 7 3q41 -61 80 -166q2 -4 2 -7 q8 -23 33.5 -41t48 -20t30.5 12q2 10 23.5 16.5t42 3.5t20.5 -14q0 -14 -49 -34q-76 -31 -33 -58q8 -4 11.5 -2t1.5 11q-6 18 32 34q33 12 33 0q0 -23 -59 -59q-45 -29 -51 -45q0 -16 75.5 -168t94.5 -172q23 -23 34 -64q10 -33 2 -30q-20 2 -80 104q-49 84 -55 84 q-6 -6 21.5 -63.5t42.5 -65.5q18 -14 2.5 -47t-41.5 -33q-57 0 -176 269q-57 129 -62 137q-2 4 -55 -11.5t-123 -39t-111 -41.5q-47 -20 -70.5 -43t-47.5 -70q-31 -66 -64 -109q-16 -25 -22.5 -24.5t-28.5 20.5q-20 20 -21.5 42zM338 684q2 -2 13 -1t35 8t50 18q70 27 83 39 t7 47q-4 23 -67 206q-98 -231 -121 -317zM412 1212q-10 14 6 25q16 6 8 33q-8 16 9.5 33.5t115.5 95.5q88 68 96 51q2 -2 2 -10q0 -18 25 2q18 18 49 10q8 -4 11 -8t-1 -12.5t-14 -19.5t-29 -30q-76 -74 -55 -69q4 0 14 6q16 6 17 -4q0 -16 -33 -33.5t-41 -5.5 q-8 10 -62.5 -12.5t-85.5 -51.5q-20 -18 -32 0zM813 246q0 -21 16 -25q16 -6 17 8q0 20 -17 25q-16 6 -16 -8z" />
<glyph unicode="&#xc2;" horiz-adv-x="987" d="M62 269q-3 38 28 130q31 90 138.5 300t121.5 208q12 -4 35 49.5t64 94.5q41 43 91 42t66 -44q16 -41 34.5 -92.5t43.5 -112.5q80 -199 127 -180q4 2 8 6q18 18 41 18q25 0 -2 -35q-20 -29 -47 -35q-14 -4 -18.5 -9t0 -21.5t14.5 -46.5q2 -2 2 -4q10 -27 50 -119t48 -123 q0 -8 15 -84q18 -84 -21 -78q-47 8 -110 125q-4 4 -7 10q-29 53 -80 152.5t-67 132.5q-246 -63 -283 -78q-14 -2 -69.5 -122t-63.5 -124q-10 0 0 29q8 23 -8 10q-10 -6 -25 -18q-41 -37 -84 -27q-39 8 -42 46zM252 1161q-10 16 76 111.5t149 140.5q49 35 81 38t97 -21 q41 -18 54 -68q10 -49 30 -51q10 -2 13 20q0 6 7 -5t32 -54q27 -49 28.5 -70.5t-21 -44t-30.5 -39.5q-8 -14 -12 -17t-10.5 1t-18.5 20q-20 29 -66.5 110t-78.5 120q-8 -8 -39 -38t-54.5 -53.5t-53 -50t-51.5 -43t-34 -20.5q-20 0 -33 -25q-6 -18 -18 -23t-17.5 5t1.5 29 q8 23 3 25.5t-15.5 -2.5t-18.5 5zM406 618q0 -4 45 5.5t93 21.5t54 19q2 14 -21.5 110.5t-23.5 112.5q0 88 -39 14q-16 -35 -47 -110q-61 -152 -61 -173zM868.5 242q-2.5 -1 5.5 -17q4 -12 11 -18q8 -8 10 4q0 10 -12 22q-12 10 -14.5 9z" />
<glyph unicode="&#xc3;" horiz-adv-x="860" d="M63 547q10 14 41 31q27 12 48.5 48t56.5 126q63 154 80 170q12 16 20 56t25 60q45 59 115 6q18 -16 26 9q4 14 8 2q2 -6 2 -15q10 -47 56.5 -133t52.5 -100q37 -86 71.5 -86t43.5 16q33 39 32 -8q-6 -63 -34 -98q-20 -14 26 -156q47 -139 39 -168q-8 -20 9.5 -28.5 t17.5 -18.5q0 -35 -76 45q-53 57 -98 125l-39 58.5t-33 48.5l-10 16q-2 4 -121 -12.5t-150 -26.5q-27 -8 -88 -145q-66 -152 -98 -148q-12 0 -20 21q-8 20 6 115.5t30 138.5q12 29 -16 28q-37 0 -23 23zM111 1124q61 80 155 129q72 35 101.5 38t76.5 -21q39 -20 88.5 -22.5 t61.5 14.5q8 12 47 8t51 10q23 18 33 9t0 -42q-18 -55 -129 -96t-182 -4q-14 23 -78 16.5t-103 -37.5q-16 -14 -29.5 -20t-26.5 -5t-19 2t-23.5 10t-23.5 11zM317 657q3 -2 7 -2q16 0 90 19q59 14 68.5 39.5t-19.5 101.5q-16 43 -29 90q-10 53 -53 -24q-10 -20 -23 -47 q-68 -152 -41 -177z" />
<glyph unicode="&#xc4;" horiz-adv-x="858" d="M68 219q-14 16 2 84t53 139q121 242 237 578q14 37 21.5 48t19 6t33.5 -30q33 -41 39 -14q6 21 -12 39q-14 14 -17.5 34.5t17.5 26.5q8 0 6 -15t14 -7q10 4 20.5 -10.5t20.5 -44.5q23 -66 99 -209q55 -102 74.5 -126t47.5 -18q41 10 37 -22q-4 -37 -26 -57q-20 -12 8 -91 q25 -80 33 -194q6 -84 0 -78l-2 8q-6 47 -15 45q-16 0 -10 -98q6 -100 -14 -100q-12 0 -23 39l-10 36q-2 -4 -7 -16t-8.5 -19.5t-9.5 -17.5t-12 -15t-12 -5q-10 0 -13.5 6t0 16t13.5 21q12 12 -6.5 117.5t-40.5 148.5q-12 14 -16.5 69.5t-12.5 67.5q-16 8 -145 -24 q-98 -23 -123 -38.5t-70 -84.5q-53 -80 -117 -156q-35 -39 -48 -46t-25 7zM125 1153q2 66 49 102q39 31 60.5 36t76.5 -7q49 -10 49 -43q0 -41 -21.5 -67.5t-55.5 -26.5q-45 0 -70 -17q-10 -6 -13 -9t2 -5t19 -2q33 0 15 -18q-16 -16 -64 -11q-35 4 -42 13.5t-5 54.5z M154 317q2 -6 26.5 27t46 70t15.5 39q-2 6 -27 -27t-46 -70t-15 -39zM385 627q8 -2 42 4t76 15t54 11q-84 236 -106 273q-4 4 -9 -8q-4 -8 -6 -23q0 -4 -15 -70.5t-26.5 -127t-9.5 -74.5zM512 1250q-14 75 4 91q10 10 64.5 18.5t76.5 -1.5q18 -10 38 -4t34 -11 q23 -20 24 -59t-24 -39q-20 0 -14 29q4 14 4 18t-10 -14l-4 -4q-8 -10 -10.5 -24.5t1.5 -16.5q6 -6 -6 -19.5t-33.5 -23.5t-38.5 -10q-27 0 -20 -17q10 -16 -12 -16q-18 0 -37 12q-23 16 -37 91zM584 1262q-5 -15 22 -17q33 -2 33 19q-2 12 -23 14q-23 2 -32 -16zM655 1296 q1 -18 17 -18q12 -2 16 4q4 10 -16 21q-14 6 -17 -7zM760 401q-6 -61 2 -61q2 0 4 8q8 27 0 58q-4 18 -6 -5z" />
<glyph unicode="&#xc7;" horiz-adv-x="1087" d="M61 584q0 55 12.5 116.5t32 98.5t35.5 30q14 -6 15 7q0 4 -2 14q-4 16 0 16q2 2 6 -2q16 -8 39 31q20 39 137 114.5t213 112.5q119 45 235.5 40t153.5 -56q31 -39 -14 -43q-18 0 -18.5 -2t20.5 -10q33 -14 45 -7q6 4 19.5 -13t23.5 -43.5t12 -49.5q4 -41 -47 -39 q-57 4 -131 53l-78 52q-221 -61 -229 -66q-31 -12 -89.5 -73.5t-58.5 -82.5q-6 -12 -26.5 -40.5t-32.5 -59.5t-12 -66q0 -127 2 -129q2 -4 12 5q31 16 33 0q2 -12 -21 -27q-18 -14 -13 -25.5t44 -50.5q43 -41 65.5 -47t98.5 -2q90 4 227 49q162 53 229 47q41 -6 -32 -47 q-41 -23 -43 -35q-2 -16 47 8q29 14 28 13q0 -2 -14 -21q-29 -37 -186 -112q2 -12 9 -67.5t14 -90.5t18 -51q18 -29 -2 -56q-16 -16 -37 -17t-39 -26q-20 -25 -71.5 -32.5t-67.5 -16.5q-25 -12 -80.5 -20t-102.5 -8t-47 10q0 18 39 18q23 -2 66 23.5t59 25.5q31 4 90 58 q41 35 49.5 49t-6.5 31q-23 27 -49 26q-29 0 -65.5 28t-49.5 60q-8 20 -27.5 27.5t-72.5 11.5q-82 6 -164 37q-80 33 -80 23q2 -6 45 -29q37 -25 13 -27q-35 0 -88.5 60.5t-69.5 122.5q-20 78 -21 172zM141 360q25 -33 37 -28q10 2 -6 35q-9 26 -25 26q-31 2 -6 -33z M469 -63q8 18 18 14q4 -2 5 -17q-1 -16 -17 -16q-14 2 -6 19zM518 -31q8 18 19 15q4 -2 4 -17q-1 -16 -17 -16q-14 2 -6 18zM672 930q0 31 16 4q29 -45 10 -45q-4 0 -10 4q-16 8 -16 37zM741 213q2 -12 13 -39q10 -31 22 -6q8 27 -14 45q-25 20 -21 0zM791 1137 q-6 -2 16 -15q11 -8 31 -18q45 -25 65 -12q16 12 -20 26q-12 4 -29 8q-55 14 -63 11zM829 311q25 2 31 17q8 16 3.5 16t-27.5 -16q-20 -14 -7 -17zM950 469q2 10 31 6q18 -4 10 -16q-8 -10 -24.5 -7t-16.5 17z" />
<glyph unicode="&#xc8;" horiz-adv-x="917" d="M67.5 33q-16.5 0 4.5 37q20 35 24 90t-12 63q-14 6 -4 125q8 86 12 389q0 86 2 135.5t4 81t7.5 42t11.5 8.5q12 -4 41.5 12t44.5 8q12 -8 12 8q-2 6 -4 19q-4 16 4 4q6 -10 18 -37q23 -47 31 -54.5t23 7.5q33 25 157.5 53.5t153.5 40.5q76 31 100.5 32t30.5 -22 q6 -20 49 -14q41 10 53 -14q8 -16 -16 -25q-29 -10 -6 -25q45 -25 -33 -36q-25 -2 -55 -5q-109 -4 -109 -10q0 -2 4 -8t-42 -27.5t-102 -40t-77 -18.5q-45 -2 -53 -25.5t8 -93.5l21 -90q63 18 155 35.5t166 40.5q127 35 144 35q57 0 -52 -105q-74 -70 -211 -112 q-135 -45 -174 -41q-27 2 -38 -14.5t-31 -88.5q-27 -109 -25 -110q4 -2 113 34q96 37 200.5 60.5t118.5 9.5q18 -18 -32 -35q-29 -8 -62 -10q-53 0 -90 -16q-14 -8 8 -9q20 0 86 5q127 10 127 -5q-31 -57 -64.5 -75.5t-144.5 -36.5q-156 -25 -221 -25q-78 0 -111 -33 q-45 -45 -43 -26q0 6 5 14q4 10 -2.5 17.5t-16.5 7.5q-12 2 -31.5 -30t-40 -64.5t-37 -32.5zM156 631q0 -233 10 -213q14 55 -10 459v-246zM221 1317q-4 43 15 39q12 -4 16 8t2 26.5t2 23.5t18 1q16 -8 24.5 9.5t23.5 17.5q20 0 56 -53.5t36 -83.5q0 -27 16 -27t31.5 -61.5 t1.5 -75.5q-16 -16 -80 4t-104 55q-45 37 -58 117zM256 283q2 -4 8 8q25 57 25 86q-8 0 -23.5 -44t-9.5 -50zM301 453q-2 -25 6 -23q10 0 6 27q0 4 -2 6q-4 12 -8 4q-2 -4 -2 -14zM311 903h25q45 1 45 15q0 27 -57 0q-29 -12 -13 -15zM319 1397l13 -33q14 -35 27.5 -60.5 t21.5 -25.5t9 20.5t-7 47t-18 38.5q-25 29 -43 23q-8 0 -3 -10zM356 1251q0 -2 11 -16q25 -33 43 -21q4 5 4 13q0 16 -35 22q-23 6 -23 2zM406 532q-2 -12 59 7l24 8q41 16 41 20q2 10 -84 -14q-39 -12 -40 -21zM631 252q4 -12 33 -2q14 6 0 8q-4 2 -11 2q-22 0 -22 -8z M647 1055q4 -12 33 -2q14 6 0 8q-4 2 -10 2q-23 0 -23 -8zM727 696q-23 -14 4 -24q4 -2 10 -4q37 -10 43 8q4 8 -6 18q-20 23 -51 2zM741 1097.5q0 16.5 25 16.5t25 -16.5t-25 -16.5t-25 16.5z" />
<glyph unicode="&#xc9;" horiz-adv-x="950" d="M66 215q10 45 24 218t27 231q23 96 26 254q2 164 58 163q16 0 28 -39q8 -29 26.5 -29.5t78.5 15.5q45 10 141 23.5t162 27.5q133 29 159.5 31t28.5 -12q0 -16 33 -17q35 0 32 -12t-42 -45q-63 -53 -481 -180v-160q20 2 96 10t128 14.5t79 14.5q113 27 100 -12 q-10 -23 22.5 -37.5t32.5 -28.5q0 -27 -82 -27q-31 0 -154.5 -32.5t-154.5 -34.5q-61 -6 -78 -14q-6 -12 -16 -111q-10 -92 0 -94q4 0 20 14q47 41 193 60q43 6 69.5 17t61.5 15q45 6 43 -10q-4 -18 -57 -29q-57 -8 -58 -20q0 -4 11.5 -4t31 2t39.5 6q98 20 101 -4 q0 -6 -19 -19q-25 -16 -2 -16q31 0 -2 -37q-27 -29 -63 -43q-59 -20 -62 -14q0 4 8 16t0 13q-4 0 -16 -5q-33 -12 -45 -12q-6 0 -8 -3t0 -8l4 -10t1 -8.5t-5 -3.5q-2 0 -108.5 -17t-212 -31.5t-113.5 -8.5q-23 12 -39.5 -22.5t-26.5 -34.5q-27 0 12 59q29 45 23 53 q-2 14 -4 15.5t-13 -13.5q0 -2 -2 -4q-14 -29 -32 -28q-14 0 -4 18zM156 457q0 -8 1 -11.5t3 -1.5q4 -2 13 41t13 83.5t-2 54.5q-14 0 -14 -29q0 -33 -10 -94q-2 -16 -3 -25.5t-1 -17.5zM188 797q-2 -25 7 -23q10 0 6 27q0 4 -2 6q-4 12 -9 4q-2 -4 -2 -14zM201 229 q12 -4 32 31q23 41 13 45q-6 2 -33 -35q-26 -41 -12 -41zM205 356q2 -14 14 13q23 53 10 53q-4 4 -12 -12q-14 -31 -12 -54zM367 328q2 -14 30 -2q27 10 17 16q-6 4 -23 2q-24 0 -24 -16zM369 926q4 -8 14 -8t14 8t0 16t-14 8t-14 -8t0 -16zM416 1159q0 53 104 164 q88 90 90 66q0 -4 -6 -16.5t4 -2.5q4 4 10 12q10 14 14.5 26.5t5.5 19t10 13.5t32 17q33 14 45 13t20 -15q14 -23 15 6q0 10 7 19.5t17 9.5q43 -6 -2 -53q-6 -8 -10 -12.5t-8 -10.5t-4 -10q0 -14 28 6q20 14 21 2q-2 -25 -98.5 -100.5t-155.5 -104.5l33 41q10 10 6 8 q-6 -4 -47 -45q-98 -98 -125 -71q-6 6 -6 18zM438 629q4 -10 29 -2q16 4 2 8q-4 2 -10 2q-23 0 -21 -8zM489 639q177 21 197 35q35 31 -121 -12q-51 -14 -76 -23zM678 1343q0 -10 3 -13t6 -2t7 5t8 10q6 14 -6 17q-18 0 -18 -17zM711 1376q20 2 24 19q14 23 3 24.5 t-27 -18.5q-20 -25 0 -25z" />
<glyph unicode="&#xca;" horiz-adv-x="1024" d="M61.5 136.5q-0.5 13.5 4.5 43.5q2 23 6 79t6 77q35 377 59.5 521t61.5 167q6 4 14 -8t12 -33q12 -47 31 -49q10 -2 10 22.5t19.5 34.5t29.5 -6q12 -20 52 -4q88 37 391 63q106 8 112 15q18 16 41 -6q10 -20 -63 -70q78 0 115 -4q-20 -6 -212 -51t-239 -64q-20 -8 -56 -12 t-56.5 -9t-37 -32t-16.5 -80l-6 -92q41 14 88 33q100 39 164 33q25 0 4 -15q-16 -12 16 -18q68 -14 105 -2q6 4 6 6q16 16 39 8q20 -6 -31 -39q-4 0 -6 -2q-49 -35 -33 -37q25 0 64 27q35 20 35 8q0 -45 -207 -90q-135 -31 -135 -21q0 2 14 13l14 14q-2 0 -16 -4 q-61 -16 -84 -21q-47 -8 -68.5 -40.5t-32.5 -110.5q-8 -45 -4 -57.5t25 -12.5q31 0 39 17q16 29 100 50t150 13l-74 -24h-2l-2 -2h-2h-2l-4 -3l-39 -14q4 0 33 4h2q184 23 184 39q0 4 -4 10q-14 16 8 15q6 0 18 -2q39 -8 50.5 -33t-15.5 -41q-39 -20 -24 -31q8 -6 28 -2 q33 6 31 -6q0 -16 -37 -29q-6 -2 -12 -2q-47 -6 -64 -22q-12 -14 -208.5 -49t-243.5 -31q-66 6 -84 -18q-16 -18 -19 -17q-2 2 5 19q2 10 2 14t-4.5 5t-12.5 -1q-20 -6 -28 -35q-4 -12 -4.5 1.5zM86 229q0 -10 3 -13t6 -2t7.5 5t8.5 10q6 14 -7 17q-18 0 -18 -17zM135 1212 q2 6 6 13q16 29 140.5 114.5t146.5 85.5q35 0 35 27q0 25 33 16q106 -31 161 -73q51 -41 80 -45t32 -14.5t-13 -39.5q-27 -43 -65 -42t-124 49l-108 59q-12 -12 -64.5 -60.5t-72.5 -72.5q-20 -23 -33 -27t-19 4t-22.5 12.5t-46.5 -6.5q-70 -27 -66 0zM143 285q7 0 25 49 q18 59 12 80q-4 10 -14 -15q-6 -14 -12 -37q-23 -78 -11 -77zM158 621q-4 -39 2 -41q2 -2 4 6q8 18 0 41q-4 14 -6 -6zM207 948q-4 -39 2 -41q2 -2 4 6q8 18 0 41q-4 14 -6 -6z" />
<glyph unicode="&#xcb;" horiz-adv-x="827" d="M61 342q0 8 9 29q10 27 6 112.5t10 106.5q18 31 4 28q-2 0 -4 -2q-16 -10 -16 7q0 18 22 143q20 113 57 230.5t54 117.5q14 0 14 -43q0 -33 9.5 -37t64.5 4q72 10 98 11q25 0 25 14t-37 6q-27 -6 -27 0q0 16 68 39q66 25 59 4q-2 -10 -22 -25q-16 -12 -19.5 -15t1.5 -5 t26 0q33 0 127 12q84 12 119 -18q32 -29 32 -41q0 -10 -44 -31.5t-66.5 -21.5t-50.5 -15q-37 -20 -144.5 -60t-126.5 -40q-20 0 -20 -90q0 -41 3 -59.5t11 -21.5t17.5 1t31 11t39.5 7q14 0 25.5 4.5t16.5 9.5t3 9q-6 8 15 6q8 0 30 -4q39 -4 41 0q2 2 -10 10q-27 16 2 25 q20 8 82 18q37 6 52.5 2t25.5 -24q12 -23 15 -33t-2 -14t-21 -4q-27 0 -17 -25q6 -14 -2 -24.5t-34.5 -18.5t-70.5 -14.5t-112 -10.5q-166 -10 -174 -28q-2 -8 -12.5 -68.5t-16.5 -69.5q-18 -35 -2.5 -44t88.5 -5q23 2 37.5 3t27.5 3.5t19 5.5t4 5q-4 16 52 12q33 -4 32 -14 q6 -14 78 -6q61 8 203 -50q-289 -76 -512 -84q-113 -4 -132.5 0t-27.5 33q-4 16 -11 25.5t-13 5.5q-8 -6 -9 6zM86 518q-2 -25 6 -22q10 0 6 26q0 4 -2 6q-4 12 -8 4q-2 -4 -2 -14zM147 1274q2 61 37 90q31 25 78 28t64 -20q16 -25 18 -67.5t-14 -53.5q-27 -16 -69 -14 t-56 23q-8 12 -11.5 15t-5.5 -2t0 -20q4 -33 37 -47q25 -10 25 -14t-25 -12q-35 -14 -57.5 12.5t-20.5 81.5zM152 797q-2 -25 6 -23q10 0 6 27q0 4 -2 6q-4 12 -8 4q-2 -4 -2 -14zM207 324q0 -8 16 -13q27 1 35 17q2 23 -27 14q-23 -6 -24 -18zM217 977q-2 -25 6 -23 q10 0 6 27q0 4 -2 6q-4 12 -8 4q-2 -4 -2 -14zM250 1327q0 -10 3 -13t6 -2t7 5t8 10q8 16 -10 16t-14 -16zM258 1294q-37 -14 2 -14t47 14q18 31 -49 0zM283 903q0 -20 8 -26.5t28.5 -3t61.5 19.5l57 20q-66 -6 -131 15q-14 4 -19 -1.5t-5 -23.5zM283 1065q45 29 45 10 q0 -4 -4 -10q-8 -16 -39 -16q-29 0 -2 16zM307 332q143 -5 262 24q-162 4 -262 -24zM448.5 1287q10.5 52 61.5 85q43 31 96 33t64 -25q4 -12 13 -12t17.5 -3t12.5 -22q8 -32 -8 -32q-14 0 -4 -16.5t-33 -38t-101.5 -34t-87.5 -1.5q-41 14 -30.5 66zM520 1272q-6 -16 17 -23 q29 -8 38 8q13 19 52 35q29 12 29.5 14.5t-25.5 2.5q-23 0 -41.5 -15.5t-38.5 -9.5q-25 8 -31 -12zM639 1337q14 -12 29 -10q31 4 10 23q-15 12 -29 10q-29 -4 -10 -23z" />
<glyph unicode="&#xcc;" horiz-adv-x="665" d="M61 326q61 29 140 43q55 10 69.5 27.5t16.5 84.5q29 414 51 426q4 2 8 0q8 -4 12 11q8 31 -6 45q-6 4 -12 0q-20 -8 -77.5 19.5t-57.5 47.5q0 23 46 55.5t95 44.5q53 14 122 12.5t103 -18.5q41 -16 31 -51t-61 -61l-58 -29q-12 -389 -45 -590h92l-38 41q-39 39 -23 39 t63 -41q31 -29 36 -41t-7 -33q-20 -33 -17 -40t36 -7q39 -2 -21 -22q-76 -27 -127 -27q-53 0 -76 -33q-16 -23 -23 -23.5t-22 15.5q-20 25 -96 25q-18 0 -32.5 2t-28 7t-22.5 9t-20.5 13.5t-16.5 13.5t-17 17.5t-17 17.5zM131 291q2 -8 21.5 -8t46 9t39.5 21q12 12 -11 13 h-6q-90 -6 -90 -35zM250 1446q2 29 12 29q18 0 8 14q-6 16 21 33q23 14 54.5 -7.5t103.5 -97.5q82 -86 65 -123q-6 -18 -39 -8q-16 6 -25.5 -2t-7.5 -22.5t17 -24.5q14 -8 8 -24.5t-24.5 -16.5t-83 61.5t-64.5 79.5q0 23 -19 33q-10 8 -10 2q0 -4 4 -12q8 -12 6 -14 q-2 0 -6 2q-10 6 -16 37.5t-4 60.5zM313 420q-2 -25 6 -23q10 0 7 27q0 4 -2 6q-4 12 -9 4q-2 -4 -2 -14zM315 1470q8 -27 33 -26q12 0 12 10q0 20 -24 27q-27 10 -21 -11zM345 1383q1 -3 5 -7t10 -8q14 -6 17 6q0 18 -17 19q-10 0 -13 -3.5t-2 -6.5z" />
<glyph unicode="&#xcd;" horiz-adv-x="665" d="M63 1069.5q-5 10.5 13 30.5q14 18 47 26.5t45 16.5q59 39 164.5 36t189.5 -42l56 -29q-61 -27 -140 -53q-43 -12 -49 -340q0 -10 -2 -27l-4 -35q0 2 -6 25q-2 6 -2 10q-12 53 -15 41q-8 -39 25 -242q14 -94 23 -86q12 6 35.5 0t41 -19t11.5 -24q-8 -14 10 -12q8 0 22 4 q45 10 43 -7t-49 -46q-39 -23 -178 -46.5t-170 -12.5q-25 8 -49 55q-23 39 -11.5 57.5t68.5 32.5q31 8 35 17.5t-8 35.5q-25 66 -16.5 277t36.5 245q14 16 -1 39t-35 15q-25 -8 -82 24q-43 23 -48 33.5zM162 1278q0 16 64.5 65.5t144.5 94.5q117 66 174 51q23 -6 14 -27 q-6 -16 -2 -19t18 3q31 12 29 2q-4 -16 -69 -53q-76 -43 -166 -105q-97 -63 -113 -47q-6 12 -48 16.5t-46 18.5zM213 682q-2 -25 6 -23q10 0 6 27q0 4 -2 6q-4 12 -8 4q-2 -4 -2 -14zM266 547q-6 -98 2 -98q2 2 4 14q8 43 0 90q-4 29 -6 -6zM348 973q-8 -27 6 -41 q16 -23 25 16q8 41 -6 45q-16 10 -25 -20zM362 1022q6 -6 15 12q12 31 4 31q-4 0 -14.5 -18.5t-4.5 -24.5zM369 1376q25 2 30 17q10 16 4.5 16t-28.5 -16q-20 -14 -6 -17z" />
<glyph unicode="&#xce;" horiz-adv-x="737" d="M61 1190q0 8 21 57q37 94 108 117q14 4 36 22.5t43.5 36t45 30.5t46 9t40.5 -30q20 -31 93 -76q80 -47 96 -90q8 -21 -15 -21q-25 0 -41 -28.5t-28 -10.5q-18 23 -193 154l-59 -62q-57 -59 -94 -88.5t-60 -29.5q-37 0 -39 10zM89 1033q9 9 52 32q45 23 132 35t126 28 q0 4 17.5 -4t32 -14t20.5 0q0 14 74 6q51 -2 61 -9t6 -36q-4 -18 -1 -29.5t12.5 -9.5t19.5 17q6 16 27 16q16 0 -2 -25q-18 -23 -9 -41q10 -16 -18 -18q-18 -2 -55 0q-55 4 -69.5 -29.5t-18.5 -181.5q-8 -195 -27 -229l-14 -23q-2 2 22 195q8 72 -2 69q-18 -6 -39 -129 q-31 -182 -12 -227q4 -12 12 0q12 16 15 16q2 0 -15 -61q-6 -23 -7 -33t3 -14t17 -2q45 2 133 -25q0 -2 -4.5 -9t-6.5 -12t-7 -13.5t-8 -14.5t-8 -13t-8 -11.5t-7.5 -7.5t-8.5 -3t-6 4q-12 16 -67 -4q-35 -12 -89.5 -24.5t-118 -13.5t-77.5 26q-29 33 -11.5 64.5t70.5 41.5 l56 11q-33 416 -17 508q12 68 9 81t-33 29q-10 4 -70.5 23.5t-79.5 40.5q-10 14 -1 23zM305 870q14 4 27 41q4 12 0 17q-4 2 -9.5 -3.5t-9.5 -15.5q-16 -41 -8 -39z" />
<glyph unicode="&#xcf;" horiz-adv-x="868" d="M61 195q0 12 48 30q47 16 38 49q-8 29 10.5 40.5t86.5 21.5q70 8 75 14q4 2 -12 94q-18 96 -2 269q10 145 0 196.5t-61 102.5q-29 29 -30 38t19 25q20 14 47 12t48 17q16 12 71.5 27.5t67.5 23.5q23 14 65 4q17 -4 13 -12q-4 -10 12 -14.5t34.5 -7.5t18.5 -11 q8 -14 29 -6q18 12 -12 35q-29 20 -19 20t51 -20q41 -18 41 -41q0 -10 4.5 -12.5t12.5 0.5q16 4 16 -9q2 -27 74 -77q-55 -23 -143 -64q-63 -35 -60 -18q2 6 19 18q20 14 18 19.5t-31 13.5q-39 10 -57 2q-20 -12 -15 -33.5t27 -28.5q33 -8 0 -10q-18 -2 -23 -23.5t-5 -97.5 q0 -57 -11 -282q-10 -150 8.5 -188t104.5 -38q78 0 78 -14q0 -16 -142.5 -58t-218.5 -50q-70 -6 -182.5 10t-112.5 33zM160 1317q0 20 38 56t58 36q27 0 -20 -37q-49 -39 -35 -59q12 -23 30 18q18 35 64 41q37 4 42 15.5t-18 35.5q-10 10 0 11q35 -4 93 -45q6 -4 10 -9 q16 -14 8 -29.5t-53 -58.5q-68 -63 -105 -63q-27 0 -69.5 32.5t-42.5 55.5zM209 272q0 -10 14 -10q20 0 44 12.5t24 22.5t-10.5 11t-42.5 -9q-31 -8 -29 -27zM348 1360q-9 -17 14 -17q20 -2 25 5q8 8 -12 18q-18 6 -27 -6zM410 451q4 1 12 24q20 39 12 131l-6 58 q0 -6 -2 -33q-2 -41 -12 -131q-6 -49 -4 -49zM465 1215.5q-6 19.5 20 82.5q33 76 80 91q47 16 84 0q41 -16 51 4q10 16 21 -17q10 -39 35 -28q26 11 26 -5q0 -20 -90 -59t-137 -41q-39 -2 -37 -6q0 -2 6 -4q20 -6 26.5 -15.5t-3.5 -15.5t-33 -6q-43 0 -49 19.5zM545 328 q-6 16 8 16q20 0 25 -16q6 -16 -9 -17q-20 1 -24 17zM629 1333q-14 -18 18 -22q35 0 37 14q0 20 -23.5 23.5t-31.5 -15.5zM662 1018q-2 -6 10 -10q14 -4 41 -4q41 0 41 6q2 4 -6 8q-23 14 -49.5 14t-36.5 -14z" />
<glyph unicode="&#xd1;" horiz-adv-x="1140" d="M68 217q-14 6 8 250t14 389q-6 88 -3 118t17 36q29 12 17 73q-10 57 8 64q8 2 16 -17q0 -4 2 -8q0 -25 19 -24q14 0 6 16q-10 18 21 29q27 10 34 -8q10 -23 43 6q25 20 13 26q-12 12 8 11q33 0 84 -25q33 -16 39 -29.5t5 -36t11 -45.5q14 -27 40 -85t50.5 -104t54.5 -85 q55 -70 121 -192.5t62 -145.5q-6 -16 12 -29q8 -4 12 25t2 102q-2 162 54 457q16 74 27.5 94.5t54.5 40.5q61 31 110 19q43 -8 47 -16.5t-14 -53.5q-20 -49 -42 -199.5t-22 -234.5q-4 -86 -18 -84q-12 6 -10 -10q0 -12 4 -33q10 -45 -2 -45q-2 0 -4 2q-16 10 -17 -6 q0 -10 11 -47q8 -29 10 -30t12 21q8 20 4 -71q-2 -8 -2 -21q-8 -123 -41 -151q-25 -23 -37 -18t-55 51q-90 96 -147 120q-18 8 -19 -4q0 -18 -110 107q-25 27 -58 65q-18 20 -59 75.5t-90 124.5t-68 93l-10 -162q-10 -182 -55 -347t-91 -191q-14 -8 -38.5 13.5t-14.5 33.5 q6 8 -12.5 35.5t-9.5 38.5q8 16 -4 22zM84 246q2 2 14 20q27 37 4 152q6 -76 -14 -152zM102 1249q-18 29 148 117q119 68 123 35v-6q-2 -6 19.5 -23.5t53.5 -34.5q53 -29 72 -31.5t47 11.5q16 10 24.5 18t6.5 13q-6 6 22 24q76 47 117 49h6q23 -8 70 15q96 43 111 -15 q10 -37 -1.5 -48t-46.5 -3q-25 6 -35 1t-16 -25q-4 -16 -11 -24.5t-15 -6.5q-18 8 -68 -35q-47 -39 -231 -104q-6 4 -39 19t-50.5 23.5t-54.5 21.5t-50 13h-38q-55 -16 -106 -16t-58 12zM156 213q-6 -14 6 -16t17 13t-5 19t-18 -16zM184 532q0 -45 6 -40q10 8 7 53 q-2 10 -4 16q-4 25 -9 -4v-25zM197 961q0 -43 18 -43q10 2 18 22q8 25 -14 43q-14 12 -18 8.5t-4 -30.5zM219 424q-4 -39 2 -41q2 -2 4 6q8 18 0 41q-4 14 -6 -6zM256 1084.5q-11 -17.5 12 -19.5q23 -4 27 16q2 14 -14 17q-14 4 -25 -13.5zM319 1114q-4 -8 2.5 -12t20.5 -4 q29 -2 33 4t-10 12q-31 14 -46 0zM328 1313q4 -12 19 -19.5t38 -13.5t33 -10q20 -8 22 -4q0 2 -6 8q-12 12 -38.5 24.5t-45 16.5t-22.5 -2zM607 466q1 -3 5.5 -7t10.5 -8q14 -6 16 6q0 18 -16 18q-10 0 -13.5 -3t-2.5 -6zM621 647l26 -53q18 -41 31 -49q10 -8 10 6 q0 31 -33 57zM741 344q-8 -8 29 -41q16 -12 14 -6t-14 22q-25 25 -29 25zM852 309q2 -18 16 -22q10 -4 9 6q-1 2 -3 8q-8 25 -16 25q-8 2 -6 -17zM940 1090q8 -16 23 -21q14 -4 12 8q-2 25 -21 35q-4 4 -8 2q-20 0 -6 -24zM1021 1052q1 -1 13 9q18 20 10 29q-2 2 -5 -0.5 t-7 -7.5t-6 -13q-6 -16 -5 -17z" />
<glyph unicode="&#xd2;" horiz-adv-x="1101" d="M63 609.5q7 103.5 33 164.5q37 90 130 167t149 63q27 -8 26 12q0 12 17.5 8t23.5 6q8 18 41 14q12 -2 19.5 -6t5.5 -10q-4 -6 8 -17.5t31.5 -19.5t34.5 -8q18 0 6 27q-6 16 2 16q8 2 51 -18q20 -8 50 -21.5t36 -15.5q18 -8 18 6q2 20 -26 37q-27 14 -14 16q4 2 12 2 q16 2 49 -23.5t45 -25.5q41 0 135 -154.5t94 -224.5q0 -37 -22.5 -113.5t-48.5 -125.5q-45 -88 -307 -187q-131 -49 -189.5 -49t-107.5 47q-53 49 -119 82q-129 66 -172 195q-18 53 -11 156.5zM245.5 507.5q20.5 -56.5 147.5 -145.5q70 -49 99.5 -58t105.5 -7q96 4 150.5 38 t111.5 126q43 68 37 121t-66 135q-55 78 -105 111.5t-126 43.5q-90 12 -111 -16q-23 -29 -32 -14q-8 12 10 35q16 20 6 21t-63 -19q-59 -23 -86 -54.5t-54 -115.5q-45 -145 -24.5 -201.5zM258 360q-2 -14 55 -65q23 -20 22 -15t-32 39q-37 41 -45 41zM319 1337 q14 -10 56.5 33t56.5 39q23 0 73 -57.5t50 -83.5q0 -18 14 -13q14 8 54.5 -17.5t40.5 -41.5t-31 -16q-33 0 -41 -37q-4 -20 -11.5 -23.5t-15.5 5t-19 12.5t-22 -2q-20 -8 -94 53t-102 110q-20 41 -9 39zM418 1380q-2 -12 14.5 -26.5t9.5 -26.5q-6 -16 10.5 -23.5t24.5 9.5 q14 10 -26 51q-31 30 -33 16zM514 932q-16 -10 12 -12q65 -6 88 4q0 10 -43 14t-57 -6zM586 275q0 -1 4 -9q10 -20 24 -19.5t43 23.5q31 23 21 23q-4 0 -29 -8q-53 -18 -57 -11q-6 2 -6 1zM719 934q-31 -2 18 -29q23 -10 82 -49l10 -6q-1 4 -28 31q-53 53 -82 53zM864 414 q14 0 39 32q8 11 6 15q0 23 -20 12q-12 -6 -19 -24q-16 -33 -6 -35zM880.5 752.5q0.5 -0.5 14.5 -27.5q23 -33 30 -25.5t-22 33.5q-23 20 -22.5 19.5zM932 653q-4 -39 2 -41q2 -2 4 6q8 18 0 41q-4 14 -6 -6z" />
<glyph unicode="&#xd3;" horiz-adv-x="1150" d="M66 569q-10 88 0 147.5t49 135.5q47 92 140 168t130 53q16 -6 16 6q0 8 8.5 13.5t17.5 6.5t16.5 6t7.5 15q0 29 95 104.5t240 164.5q154 94 117 41q-4 -6 -10 -13q-20 -23 -8 -22q12 -2 38.5 24t32.5 8q8 -18 109 -18q-45 -43 -161 -105.5t-179 -80.5q-18 -4 -29.5 -12.5 t-7.5 -14.5q6 -16 -10 -18q-27 -2 -73 -9.5t-50 -11.5q-2 -2 32 -11t86 -20.5t97 -19.5q37 -8 104.5 -54t67.5 -65q0 -20 21 -31q10 -8 10 2q0 6 -4 19q-2 8 4 6q12 -4 43 -41q45 -51 59.5 -106.5t14.5 -163.5q0 -238 -336 -441l-92 -55l-140 17q-125 16 -196.5 54 t-161.5 134q-59 61 -74.5 90t-23.5 98zM172 827q4 6 22.5 29t31 40.5t12.5 25.5q0 39 -39 -39q-18 -33 -27 -56zM256 483q35 104 39 107q10 0 0 -111q-2 -20 -2 -37.5t1 -31t6 -25.5t7 -19.5t11.5 -16.5t12.5 -13t17 -12.5t17.5 -10.5t22 -10t22.5 -10l-39 8q-29 6 -27 0 q4 -10 76 -35q39 -14 64.5 -9t90.5 38q98 49 113 49q16 0 93 71.5t93 100.5q16 35 10.5 161t-26 177t-72 91t-110.5 54q-16 4 -48 11.5t-38 9.5q-49 12 -117 -29q-45 -27 -27 -45q8 -12 -40 -41q-61 -37 -113 -141q-43 -92 -4 -92q14 -4 -8 -37q-29 -41 -25 -152zM477 952 q8 18 19 15q4 -2 4 -17q-1 -16 -17 -16q-14 2 -6 18zM489 285q-10 6 5 8q33 4 32 -6q0 -2 -6 -4q-21 -8 -31 2zM614 1032q25 -16 58 -16q35 0 8 16q-24 17 -57 17q-35 0 -9 -17zM623 295q-8 -16 4 -16t37 16q10 6 14 9t0 5t-16 2q-33 0 -39 -16zM828 1023q1 -3 5.5 -7 t10.5 -8q14 -6 16 6q0 18 -16 18q-10 0 -13.5 -3t-2.5 -6zM846 412q-2 -4 4 0q4 2 16 12q27 23 27 29q0 20 -33 -23q-12 -14 -14 -18zM977 856q6 -20 14 -20q18 0 0 51l-8 14q-14 -2 -6 -45z" />
<glyph unicode="&#xd4;" horiz-adv-x="1267" d="M69.5 435.5q-16.5 70.5 2.5 215.5q27 215 188 334q66 47 129.5 81t75.5 28q14 -8 39 2q76 25 223 8q53 -6 73.5 -15.5t28.5 -33.5q17 -39 25 -39t0 24q-10 23 21.5 26t44.5 -17q10 -18 22 -11q14 10 98 -82t121 -155q27 -45 36 -82t9 -109q0 -96 -32.5 -155.5 t-137.5 -155.5q-59 -55 -118.5 -85t-186.5 -69q-147 -45 -151 -47q-45 -12 -56 2q-8 16 -22 6q-12 -6 -41 25q-29 35 -76 41q-47 10 -47 23q-2 8 -22.5 21t-49 29.5t-35.5 20.5q70 -74 131 -108q33 -18 35 -21l-26 4q-100 25 -219 152q-66 72 -82.5 142.5zM96 436 q0 -6 6 -22q16 -51 50 -82q6 -6 6 0q8 6 -39 82q-25 41 -23 22zM223 1079q-12 2 50.5 77t135 147.5t87.5 72.5q20 0 32 25q2 14 61.5 45t59.5 45q0 23 19 6q14 -10 14 -27q0 -29 219 -213q31 -27 35 -39t-8 -34q-20 -35 0 -45q23 -14 14.5 -27.5t-39.5 -13.5q-43 0 -155 106 q-96 90 -128 93t-96 -68q-25 -29 -102.5 -73t-97.5 -62q-33 -29 -101 -15zM262 561q16 -57 27 -94q27 -98 80 -155.5t102 -39.5q29 10 27 2q0 -6 -17 -24q-18 -23 -12 -23q96 -16 106 4q11 15 46 15q16 -4 59 18.5t51 22.5q4 -2 33 21.5t39 19.5q18 0 69.5 67.5t69.5 122.5 q84 268 -127 440q-39 31 -69.5 40.5t-112.5 11.5q-127 6 -147.5 -18.5t-8.5 -39.5q4 -8 -3 -10t-16 1t-16.5 2t-5.5 -11q0 -14 -16 -8q-10 6 -44 -37t-64.5 -99.5t-30.5 -82.5q0 -20 -5.5 -37t-9.5 -24t-1 -17.5t18 -26.5q25 -31 18 -31q-4 0 -18 7q-16 6 -20.5 3t-0.5 -20z M403 213q0 -16 25 -16q23 -2 25 4q0 4 -11 12q-35 16 -39 0zM477 1317q4 0 17 6q34 20 57 45q29 35 12 33q-18 -2 -55 -43q-37 -39 -31 -41zM559 197q-12 0 4 -15q2 0 4 -2q25 -16 41.5 -16t-8.5 16.5t-41 16.5zM702 1071q4 -10 29 -2q16 4 2 8q-4 2 -10 2q-23 0 -21 -8z M1042 338l5 4q24 19 61 72q33 45 29 45q-8 -2 -62 -70q-41 -53 -33 -51z" />
<glyph unicode="&#xd5;" horiz-adv-x="1214" d="M68 604q12 104 98 258t133 154q8 -2 94 39t96 35q12 -8 39 4q57 31 285 2q106 -14 133 -23.5t45 -42.5q25 -43 66 -55q68 -14 88 -188.5t-27 -315.5q-33 -94 -43 -94q-14 0 -14 -29q0 -76 -148.5 -151.5t-216.5 -73.5q-16 6 -188 14q-143 8 -194.5 30.5t-147.5 121.5 q-72 72 -92.5 137.5t-5.5 177.5zM96 479q-2 -49 37 -125q13 -24 19 -22q10 -6 -15 71q-29 90 -39 84q-2 -2 -2 -8zM225 1198q0 6 4 7t10.5 0t11.5 -2t7 1t0 10q-16 72 96 150q80 53 88 53q12 0 23 13q25 25 128 -9.5t120 -70.5q35 -92 233 34q72 45 74 -4q2 -29 -25 -82 q-35 -70 -65.5 -91t-112.5 -29q-145 -16 -239 69q-33 31 -52.5 36t-68.5 -5q-68 -10 -82 -29q-8 -12 -67 -40.5t-75 -28.5q-8 0 -8 18zM246 260q8 -23 43 -43q29 -20 30 -14q0 4 -4 12q-12 29 -51 49q-20 8 -18 -4zM290 557q-1 -121 17 -127q16 -6 17 -41q0 -29 47 -78 t75 -49q23 0 17 -16q-6 -10 20 -15q14 -2 37 -2q70 0 78 -26q16 -25 64.5 -13.5t115 54.5t109.5 94q47 55 71.5 155.5t16.5 196.5q-8 82 -39 163t-55 81q-12 0 -47 35q-49 51 -154 6q-16 -6 -20.5 -4t2.5 16q8 23 -19 23q-18 0 -33 -15q-18 -18 -32 -10q-6 4 0 14 q8 12 7 13.5t-26 -8.5q-23 -6 -6 -35q23 -41 -10 -49q-29 -8 -62 24q-26 22 -26 8q0 -18 16 -26q31 -18 12 -31q-14 -8 -45 -2q-35 8 -43 2t-14 -41q-2 -14 -7 -24.5t-9.5 -15.5t-8.5 -3q-8 4 -20 -18.5t-19.5 -51t-1.5 -36.5q8 -14 -8 -20.5t-17 -127.5zM561 1294 q6 -14 23.5 -16t17.5 16q2 10 -12 15q-25 8 -29 -6q-2 -4 0 -9zM897 1221q4 0 8 2q25 6 25 16q2 20 -31 -2q-23 -16 -2 -16zM928 983q-18 0 2 -25q27 -33 31 -12q2 20 -19 33q-6 4 -14 4zM997 551q-2 -25 7 -23q10 0 6 27q0 4 -2 6q-4 12 -9 4q-2 -4 -2 -14z" />
<glyph unicode="&#xd6;" horiz-adv-x="1251" d="M61 555q0 121 28 189.5t116 160.5q143 147 315 193q43 12 166 8q82 -4 125 -15.5t125 -52.5q88 -43 115.5 -67.5t66.5 -93.5q82 -143 71 -297t-112 -242q-115 -104 -147 -84q-14 8 -24.5 -8.5t-75 -43t-134.5 -40.5q-88 -20 -290 26q-31 8 -30 5t34 -21q59 -35 32 -35 q-20 -2 -73 23q-78 37 -113 43q-90 20 -142.5 114.5t-52.5 237.5zM227 242q-4 -6 31 -17q18 -4 23 0q6 10 -17 19q-10 4 -16 2q-18 0 -21 -4zM255 493q11 -51 44 -51q10 0 15 -4t3 -10q-8 -4 17.5 -32.5t53.5 -56.5t22 -28q-2 -4 -22.5 14.5t-41 34t-22.5 5.5q0 -33 84 -74 t133 -33q274 45 336 107q61 61 88 147q14 45 -4 41q-4 0 -7 -2q-14 -4 -14 0t16 31q27 43 20 139t-42 143t-98.5 91t-90.5 38q-20 -6 -36.5 7.5t-28.5 13.5q-49 -4 -88 -26.5t-55 -29.5q-31 -10 -31 -6q-2 4 12 21q16 16 13 19t-23 -5q-59 -23 -121.5 -94.5t-62.5 -116.5 q0 -33 -23 -55q-25 -20 -43 -105q-14 -72 -3 -123zM260 291q6 -4 88 -70q-58 72 -78 74q-10 -2 -10 -4zM344 1155q-6 8 0 47q6 45 54 100.5t89 53.5q27 -2 34 -13.5t9 -52.5q14 -55 -39 -99t-106 -44q-35 0 -41 8zM401 1274q-10 -20 2 -29q13 0 25 25q4 20 -2 22 q-10 6 -25 -18zM684 1262q0 8 31 43q18 23 34.5 26.5t63.5 -4.5q27 -4 38 -6t18.5 0t6 8t-5.5 19q-8 25 2 24q3 0 7 -2q10 -4 15 -38t17 -38q4 0 5.5 -6t-1 -17t-6.5 -26q-18 -49 -41 -49q-18 0 -19 15.5t15 25.5q16 6 17 27q0 10 -31 -18.5t-59.5 -61.5t-24.5 -31 q0 -2 29 -10q18 -6 -9 -8q-6 -2 -14 -2q-121 -6 -88 129zM721 199q14 -2 70.5 21.5t56.5 31.5t-4 8q-6 0 -70 -31q-57 -27 -53 -30zM741 1229q8 -16 27 -17q20 8 -2 27q-12 8 -18 6q-12 0 -7 -16zM983 918q-12 -8 8 -39q10 -10 33 -64q12 -33 16 -33q2 0 2 9q1 28 -22 77 q-23 53 -37 50z" />
<glyph unicode="&#xd9;" horiz-adv-x="1062" d="M61 565q0 393 66 479q18 29 23 9q4 -18 49 26q45 47 82 39q27 -6 27.5 -11t-15.5 -17q-18 -14 -15 -30t-14 -28q-22 -16 -4 -16q23 0 -4 -66t-20 -164q4 -86 -7 -77q-12 20 -14 -15q-4 -88 33 -205q31 -102 88 -174q25 -33 26 -8q0 20 19 21q12 -4 7 -21.5t1 -34.5 q8 -27 64.5 -26.5t56.5 26.5q0 23 16 13q18 -12 9 -25q-10 -14 6 -14q20 2 69 24q49 20 81 45t32 41q0 8 25 66q57 119 57 321q0 61 20.5 195.5t20.5 142.5q4 43 7 46t26 -13q23 -23 16 -35q-4 -14 6 -14q18 4 25 20q4 23 32 0q25 -20 17 -79q-8 -55 10 -56q10 0 14.5 -35.5 t0 -99t-16.5 -143.5q-16 -109 -16 -160q0 -37 -15 -37q-18 0 -14 -113q4 -92 -6 -122.5t-41 -22.5q-16 4 -20.5 -6t-2.5 -22.5t-4 -19.5t-24 3q-37 8 -43 -10q-12 -14 -25 2q-12 18 -49 0q-29 -16 -163 -12t-181 -2q-66 -12 -115 7t-65 66q-16 39 -47 31q-33 -10 -62 37 q-18 27 -23.5 77t-5.5 197zM100 332q2 -18 25 -47q25 -27 25 -11q-2 18 -25 48q-25 27 -25 10zM238 229q-8 -10 22 -36q16 -14 18.5 -11.5t-14.5 23.5q-24 24 -26 24zM348 221q4 -8 14.5 -8t14.5 8t0 16.5t-14.5 8.5t-14.5 -8.5t0 -16.5zM385 1352q4 4 27 -9q32 -18 32 9 q0 10 5.5 15t11.5 1q16 -6 37 14q20 23 34.5 11.5t45.5 -78.5q72 -162 71 -182q-2 -12 -26 -35q-37 -33 -60.5 -30t-66.5 50q-78 82 -107 197q-8 33 -4 37zM872 322q-2 -25 7 -23q10 0 6 27q0 4 -2 6q-4 12 -9 4q-2 -4 -2 -14zM975 844q0 -45 4 -41q10 8 4 55q0 8 -2 14 q-4 23 -6 -4v-24z" />
<glyph unicode="&#xda;" horiz-adv-x="1099" d="M64 800.5q6 131.5 26 143.5q12 6 16 -14q0 -8 5 4q8 20 16 63q23 90 41 97q14 4 14 -2q0 -4 -12 -25q-16 -35 -10 -55q6 -18 20 14q2 4 4 10q18 47 45 33q16 -10 19.5 -4t-0.5 16.5t-2 18.5t14 2q23 -10 16 -43q-10 -41 -16 -215q-6 -127 4 -201t45 -176q6 -12 2 -14 q-2 0 -16 22q-25 41 -25 17q0 -20 23 -72q29 -68 113 -121q74 -41 75 -2q2 12 25 -6q27 -29 99.5 -10.5t72.5 53.5q0 25 33 49q25 23 73 127q29 66 37 114t10 158q4 160 -10 246q-14 70 4 70q8 -2 12.5 -7.5t4.5 -11.5t2 -16t6 -19q18 -37 31 -16q8 16 0 49q-8 31 -5 35 t23 -12q18 -16 27.5 -14.5t23.5 24.5q23 37 43 37q16 0 -8 -29q-37 -43 -27 -51q4 -2 13 4q18 12 49 -153q6 -29 10 -58q10 -57 -18.5 -221t-55.5 -215q-43 -88 -24 -82q12 4 49 45q55 63 57 37q0 -27 -22 -45q-23 -20 -15 -96q6 -57 -2 -60q-12 -4 -22 43q-4 14 -4 25 q0 25 -5 28t-28 -8q-33 -16 -22 -55q10 -37 -9.5 -48t-101.5 -20q-63 -6 -191 -32q-82 -20 -174 -19.5t-133 23.5q-31 18 -49 -8q-33 -45 -67 24q-12 31 -23 76q-12 55 -50 149.5t-48 173.5q-14 94 -8 225.5zM90 993q-2 7 0 17q2 18 6 16q8 -2 6 -29q0 -8 -4 -10q-4 -6 -8 6 zM197 344q25 -33 36 -29q10 2 -6 35q-8 27 -24 27q-31 2 -6 -33zM205 221q4 -8 14 -8t14.5 8t0 16.5t-14.5 8.5t-14 -8.5t0 -16.5zM219 182q1 -18 17 -18q12 -2 16 4q4 10 -16 20q-14 6 -17 -6zM326 184q0 -14 34 -18q31 -4 56 14q20 14 -13 17h-24q-51 2 -53 -13z M421.5 1243q20.5 37 63.5 41q47 10 138 76q115 84 116 94q2 6 -22 0q-37 -8 -37 8q-2 8 20 17q27 23 61 -6t27 -58q-4 -29 -68.5 -101.5t-115.5 -107.5q-37 -25 -47 -38t-10 -38q-4 -12 -37 -17t-41 -19q-18 -6 -20 32q0 55 -17 62q-31 18 -10.5 55zM455 154q4 -10 28 -2 q16 4 2 8q-4 2 -10 2q-22 0 -20 -8zM500 1321q-8 8 14 22q101 64 107 66q16 0 -52 -51t-69 -37zM913 560.5q1 -1.5 13 8.5q20 20 12 29q-8 8 -18 -16q-2 -2 -2 -4q-6 -16 -5 -17.5z" />
<glyph unicode="&#xdb;" horiz-adv-x="1062" d="M72 348q-23 223 12 545q14 139 24.5 170t38.5 47q43 20 68 -4q20 -18 34.5 -14t14.5 26q0 10 -16 4q-16 -4 -17 6q2 16 19 19h6q23 0 25 -53.5t-19 -73.5q-18 -18 -28.5 -141t6.5 -131q18 -6 0 -23q-14 -12 -19.5 -61.5t4.5 -88.5q8 -41 23 -20q0 2 2 4q10 14 10 4 q0 -8 -4 -24q-18 -82 82 -176.5t164 -55.5q10 8 92 12.5t92 12.5q25 14 76 113.5t69 164.5q20 76 22.5 218.5t-13.5 201.5q-16 55 -4 72q4 6 12 -10q0 -4 2 -7q6 -18 47 -4q82 33 98 -61q12 -63 0 -266t-34 -312q-27 -117 -17 -217q8 -57 5 -75.5t-17 -18.5t-31.5 14.5 t-30.5 10.5q-14 -8 -24 8t-109.5 15t-132.5 -19q-31 -16 -204 -30.5t-193 -2.5q-25 12 -49 12q-66 0 -86 209zM123 467q0 -45 4 -41q10 8 4 55q0 8 -2 15q-4 23 -6 -4v-25zM182 240q1 -27 17 -35q16 -2 16 14q0 25 -16 35q-12 8 -17 -14zM215 1225q0 14 70 74.5t86 60.5 q14 -2 50 31.5t48 33.5q8 -4 23.5 10.5t29 24.5t19.5 0q6 -14 20 -8q20 -2 98 -63.5t99 -65.5q18 -4 37.5 -24.5t26.5 -38t-1 -27.5q-2 -2 19.5 -20.5t13.5 -28.5q-6 -20 -137 41q-125 55 -198 64t-126 -23q-27 -16 -70.5 -29.5t-73.5 -16.5t-34 5zM250 616q-2 7 0 17 q2 18 6 16q8 -2 6 -28q0 -8 -4 -11q-4 -6 -8 6zM635 231q10 2 59 31q49 33 27 31q-31 -2 -62 -31q-39 -35 -24 -31zM739 303q64 69 66 92q0 39 -39 -37q-4 -10 -14 -28q-10 -23 -13 -27zM856 504q2 -14 14 12q23 53 11 53q-4 4 -13 -12q-14 -30 -12 -53zM879 1032 q0 -8 1 -14t4 -16.5t3 -12.5q0 -10 26 19q5 4 7 8q6 6 17 18.5t14 15.5t2 7t-14 3t-40 -7q-10 -2 -15 -7.5t-5 -13.5z" />
<glyph unicode="&#xdc;" horiz-adv-x="960" d="M63 819q-6 225 9 262q14 33 18 17q0 -10 2 -49q2 -53 6 -54q2 0 11 13q6 10 9 42.5t9 56t23 23.5q23 0 23.5 15.5t-19.5 28.5q-16 8 -29.5 -9.5t-26.5 -17.5q-14 0 -15 6t9 27q33 57 58 16q10 -20 28 -2q27 20 60.5 -16.5t33.5 -83.5q0 -53 25 -78q27 -20 8 -39 q-31 -31 -11.5 -213t54.5 -197q18 -6 22.5 -17t-5 -18.5t-27.5 -3.5q-23 4 -26 -1t3 -31q0 -2 17.5 -53.5t9.5 -77.5q-8 -31 41 -43q92 -23 199 18l8 4q47 20 59.5 30.5t1.5 24.5q-20 27 -4 56q35 66 68 263t33 343q0 90 22 84q10 -2 25 -27q16 -23 18 -12q0 18 41 18 q35 4 41 -30.5t2 -208.5q-6 -238 -68 -428q-31 -88 -24 -174q6 -96 -21 -97q-12 -2 -32 19q-27 29 -74 18q-66 -14 -84 6q-6 8 8 19q8 12 -16 14q-20 0 -26.5 -5t-2.5 -19q2 -8 1 -12.5t-13.5 -7.5t-31.5 -4t-54 -1q-106 0 -144 18q-27 14 -26.5 13.5t22.5 -29.5 q35 -37 25 -37q-14 2 -100 88q-90 88 -126 205t-47 348zM211 950q-4 -88 2 -92q2 0 4 14q8 45 0 82q-4 25 -6 -4zM240.5 1322q1.5 42 40.5 79q41 39 71.5 38t71.5 -42q29 -29 34 -46.5t-3 -43.5q-16 -43 -6 -56q4 -4 3 -4t-12 4q-20 8 -28 -6q-10 -18 -58.5 -15t-79.5 25 q-35 25 -33.5 67zM252 344q-14 -2 4 -25q25 -25 35 -24q4 0 6 3t0 9t-8 12q-25 25 -37 25zM291 1327q4 -16 12 -10q15 8 23 43q6 25 -2.5 31t-24.5 -11q-18 -18 -8 -53zM584 1280q0 37 10 56.5t43 45.5q41 35 93 38t63 -27q4 -10 -2.5 -13.5t-24.5 0.5q-25 2 -25 -6 q6 -10 41 -15t41 -20q4 -8 3 -9t-11 3q-6 2 -10 2t-6 -5t-2 -15q0 -31 -37 -49.5t-16.5 -18.5t20.5 -18q0 -10 -14.5 -14.5t-34 1t-31.5 17.5q-31 18 -30 2t28 -39l41 -33q-135 -16 -139 117zM666 1313q0 -27 14 -4.5t49 10.5q27 -12 33 4q8 16 -12 20q-4 2 -15.5 4.5 t-17.5 4.5t-16.5 3t-15.5 -1t-10 -6.5t-7 -13.5t-2 -21zM723 299q2 -47 8 -45q12 2 14 90q0 33 -6 33q-4 0 -10 -21q0 -6 -6 -57zM731 569q2 -41 23 17q30 79 20 102q-6 0 -24.5 -51t-18.5 -68zM801 1219q-12 4 16 45q20 31 25 14q2 -10 -5.5 -26.5t-18.5 -27.5t-17 -5z M829 911q0 -33 18.5 -14.5t10.5 45.5q-4 31 -18 14q-11 -14 -11 -45zM838 1081q-7 -14 5.5 -16t17.5 13.5t-5 19.5t-18 -17z" />
<glyph unicode="&#xe0;" horiz-adv-x="874" d="M63 469q6 94 37 143.5t125 112.5q104 76 113 51q2 -4 2 -10q0 -23 96 -16q72 4 95.5 -4.5t76.5 -57.5q55 -53 65.5 -75.5t10.5 -100.5q0 -104 16 -94q16 6 17 -17q-4 -25 -21 -24q-18 0 -41 -41q-18 -41 4 -41q20 0 46 9t41.5 20.5t11.5 19.5q-4 6 2 11t20 5q51 0 27 -63 q-14 -37 -49 -78q-37 -43 -58.5 -53t-72.5 -10q-74 0 -92 26q-8 16 -24.5 18.5t-59.5 -7.5q-129 -29 -210 -19t-81 55q0 31 -51 82q-35 37 -42.5 60.5t-3.5 97.5zM111 485q-2 -25 6 -22q10 0 6 26q0 4 -2 7q-4 12 -8 4q-2 -5 -2 -15zM170 1210q4 2 20 2q35 0 35 -12t64 -12 q66 -4 90 -29q20 -20 20 -30.5t23 -34.5q35 -35 58.5 -88.5t15.5 -69.5q-6 -12 11 -18.5t-7 -26.5q-18 -16 -31.5 -18.5t-46.5 12.5q-43 16 -106.5 89t-114.5 161q-41 70 -31 75zM193 463q-2 -33 8 -29q16 2 22 41q9 31 -14 33q-16 0 -16 -45zM217 279q-14 -8 33 -35 q27 -14 33 -13q14 0 -17 23q-37 25 -49 25zM217 526q14 -8 21 11q4 10 0 22q-9 23 -21 0q-14 -23 0 -33zM242 344q0 -21 16 -25q16 -6 16 9q0 20 -16 24q-16 6 -16 -8zM278 434q8 -41 39 -41q27 0 7 -26q-14 -18 -9.5 -35t28.5 -25t52 -2q76 16 117 174q33 119 -23 176 q-68 68 -149 -24q-35 -41 -52.5 -98.5t-9.5 -98.5zM297 1102q4 -4 6 -2t3 7t3 10t5.5 7t9.5 -2q14 -6 16 -2q2 6 -16 19q-14 8 -25.5 -9.5t-1.5 -27.5zM391.5 248q4.5 -2 16.5 -2q31 0 38 16q8 16 -4 16.5t-36 -16.5q-10 -6 -14.5 -9t0 -5zM445 480.5q-3 19.5 26 58.5 q37 51 41 51q4 -2 1 -16.5t-14.5 -36t-21.5 -35.5q-29 -41 -32 -21.5zM539 205q2 -4 8 -10q14 -12 61 -17.5t87 6t34 37.5q-8 12 -20 -8q-8 -16 -97 -6q-74 8 -73 -2zM553 430q2 -27 16 0q18 31 13 57q-2 14 -4.5 17.5t-5.5 0.5t-9 -18q-10 -27 -10 -57z" />
<glyph unicode="&#xe1;" horiz-adv-x="964" d="M72 442q16 74 91 158t154 119q98 45 229.5 20.5t164.5 -96.5q18 -41 49 -33q25 6 28 -4q6 -14 9 -184q0 -117 -19 -123q-33 -10 -2 -20q20 -8 58 -7q55 4 67 -12q2 -6 -3 -10t-15 -4q-29 0 -56 -21q-29 -16 -112 17q-57 25 -83 25.5t-77 -15.5q-86 -27 -205 -33 q-84 -8 -109.5 -4t-47.5 27q-31 31 -76 43q-78 16 -45 157zM92 353q2 -19 21 -38q25 -25 24 -8q-2 10 -8 47q-8 70 6 125q4 16 6 30.5t2 23t-4 8.5q-12 0 -35 -101q-14 -68 -12 -87zM285 543q0 -19 16 -19q12 -2 16 4q4 10 -16 21q-14 6 -16 -6zM315 410q4 -31 11.5 -40.5 t25.5 -4.5q18 4 23 0q6 -6 -15 -17q-10 -4 -18 -4q-27 0 -8 -33q12 -23 24.5 -23.5t39 6.5t53.5 5q66 -6 75 23q8 23 29 22q14 -4 22.5 55.5t14.5 124t12 70.5q20 23 -40 48.5t-91 29.5q-20 0 -55 -31t-31 -47q8 -18 -29 -43q-25 -18 -24.5 -21.5t26.5 -5.5q31 0 56 -24 q25 -29 2 -23q-12 4 -37 17q-35 18 -54.5 -7.5t-11.5 -76.5zM408 918q-6 12 4 15t17 5t-11 18q-18 14 21.5 56.5t90 78t62.5 33.5q37 10 37 23q0 18 114 49q41 10 53.5 4t2.5 -33q-6 -16 0 -18q2 0 10 4q16 6 16 -4q0 -19 -10 -19q-4 4 -177 -130t-175 -132q-10 0 -2 29 q8 16 2 19.5t-19 -3.5q-8 0 -12 -1t-9 -1t-9 1t-6 6zM422 399q-10 10 8 33q14 18 14 4l-6 -18q-2 -6 -5 -11.5t-6 -7.5t-5 0zM475 1001q-8 -16 6 -18q12 -2 15.5 13.5t-4.5 19.5t-17 -15zM712 335q1 -3 5 -7.5t10 -8.5q14 -6 16 7q0 18 -16 18q-10 0 -13 -3t-2 -6zM750 565 q-6 -61 2 -61q2 0 4 8q8 26 0 57q-4 18 -6 -4z" />
<glyph unicode="&#xe2;" horiz-adv-x="768" d="M63 481q5 86 25 111q96 119 166 168q100 61 201.5 26.5t158.5 -129.5q23 -39 33 -22q8 14 25 -47q0 -4 2 -8q16 -74 -2 -134q-23 -61 -8 -75q8 -8 12 -3t4 21q0 33 14 41q10 6 11 -86q2 -68 -5.5 -83t-35.5 -19q-39 -8 -74 32q-25 31 -36 33t-50 -18q-51 -27 -180 -31 q-211 -6 -250 98q-16 39 -11 125zM90 913q8 18 117.5 101.5t120.5 95.5q41 53 178 23q45 -8 92 -93q117 -203 98 -213q-2 -16 -133 80q-121 90 -92 94q10 6 -6 9q-12 2 -31 0q-49 -4 -100 -26.5t-72 -47.5q-10 -12 -54 -22.5t-78 -10.5t-40 10zM221 559q2 -33 21 4 q18 37 10 37q-14 14 -27 -16q-4 -13 -4 -25zM266 342q16 -16 86 4q57 16 51 29q0 4 -4 6q-12 10 21 12q41 0 71.5 23.5t22.5 46.5q-10 33 2 90q8 51 2 62.5t-53 29.5q-121 51 -162 2q-20 -27 -26.5 -122t10.5 -128q12 -23 9.5 -30t-20.5 -7q-29 0 -10 -18zM434 705 q2 -10 58 -39l49 -29l-39 33q-20 23 -51 35q-16 4 -17 0z" />
<glyph unicode="&#xe3;" horiz-adv-x="833" d="M63 496q20 135 156 237q59 43 92 47t178 -14q12 -2 39 -29.5t52 -64.5q37 -55 48 -89t11 -87q0 -57 6 -71.5t29 -14.5q70 0 37 -43q-10 -12 -2 -15q4 0 18 4q23 6 36 -11t8 -43t-28 -44q-29 -25 -86 -28t-94 18q-31 16 -74 -17q-41 -35 -129 -34q-137 0 -226 89t-71 210z M96 879q-12 35 97 155q57 59 102 56q59 -4 116.5 -18.5t65.5 -24.5q0 -6 14.5 -9.5t30 -4.5t26.5 -5t9 -12q-14 -23 2 -12q14 10 53 45q52 50 52 75q0 10 4 14.5t10 0.5q27 -14 -8 -91t-86 -112q-31 -23 -55.5 -27t-79.5 4q-86 14 -93 33q-4 18 4 17q6 0 23 -11 q14 -8 24.5 -9t10.5 5q-8 23 -52 24t-100.5 -19.5t-68.5 -47.5q-14 -33 -53.5 -42t-47.5 16zM206 458.5q-1 -55.5 13 -75.5q25 -39 109 -31t137 54q25 20 28 38.5t-12 83.5q-14 61 -25 81t-42 30l-52 16q-12 0 -72.5 -48t-68.5 -66q-14 -27 -15 -82.5zM340 1055q4 -6 49 -29 q57 -29 60 -22q2 2 2 8q0 14 -58 32q-59 18 -53 11zM420 229q29 0 63 33q41 33 23.5 33t-64.5 -33q-43 -33 -22 -33zM569 1040q-6 4 7.5 23.5t31 34t21.5 8.5q6 -2 -7.5 -21.5t-31 -35t-21.5 -9.5z" />
<glyph unicode="&#xe4;" horiz-adv-x="833" d="M61 446q0 55 52.5 157t99.5 142q49 43 63 21q14 -20 35 0q18 18 102.5 19t141.5 -17q106 -33 123.5 -47t13.5 -68q-2 -27 -18.5 -75t-5.5 -89q6 -27 3 -49t9 -34q8 -12 18.5 -60.5t32.5 -62.5q41 -27 33 -48.5t-59 -21.5q-57 0 -105 43q-33 31 -48 34t-60 -14 q-47 -16 -50 -20q0 -6 29 -14q27 -8 0 -6q-12 0 -39 2q-90 8 -153 8q-47 0 -73 12t-73 59q-72 72 -72 129zM209 279q25 -16 49 -17q23 0 0 17q-24 16 -49 16q-23 0 0 -16zM215 989q2 31 41 74t63 45q6 -2 -32 -43q-31 -31 -17 -33q20 0 26.5 14.5t47.5 6.5q37 -10 55 20 q21 26 23 10q0 -18 16 -10q12 8 15 -12q2 -55 -41 -135q-10 -18 -21 -31q-37 -43 -63.5 -44t-67.5 38q-33 31 -41 49t-4 51zM226 438q3 -6 14 -18q63 -78 110 -41q23 16 23 0q0 -18 24 -19q20 4 21 21q-6 10 16.5 17.5t44 13.5t15.5 16q-8 18 10 98q14 55 12 72.5t-22 32.5 q-51 41 -136.5 12t-111.5 -98q-25 -57 -4 -70q20 -14 -2 -20q-10 -4 -13.5 -7.5t-0.5 -9.5zM344 1087q-6 4 6 9q6 2 17 0q18 -2 16 -6q-2 -8 -29 -7q-8 0 -10 4zM526 489q-4 -39 2 -40q2 -2 4 6q8 18 0 41q-4 14 -6 -7zM553 924q0 43 25.5 74.5t52.5 21.5q16 -6 18 2 q0 2 -2 4q-4 8 10 12q47 8 93 -16q4 -2 8 -6q25 -18 6 -53q-12 -23 -26.5 -22t-32.5 -9q-20 -18 -21 -2q-2 14 10 20h6q16 0 17 25q0 33 -23 20q-14 -6 -26 -30q-16 -33 -8 -56.5t34 -23.5q37 0 13 -15q-18 -10 -60 -18q-53 -10 -73.5 5t-20.5 67zM590 973q6 -6 14 12 q12 31 4 31q-4 0 -14 -18.5t-4 -24.5z" />
<glyph unicode="&#xe7;" horiz-adv-x="858" d="M62 325.5q-1 8.5 0 22.5t6 41q14 90 40.5 140.5t84.5 97.5q88 72 188 116.5t176 47.5q90 4 102 16q23 23 35 -16q4 -15 4 -33q0 -35 -34.5 -79t-63.5 -20q-20 8 -47 6.5t-47.5 -15t-11.5 -27.5q6 -16 -15 -17q-25 0 -90 -86q-45 -66 -59.5 -119t14.5 -61q25 -10 162 15.5 t158 43.5q14 12 46.5 24.5t57.5 14.5t29 -6q0 -10 -29 -35q-18 -14 -12 -12q25 4 22 4q4 0 -4 -10q-14 -20 -39 -12q-18 6 -12 -9q14 -20 -12.5 -41.5t-85.5 -37.5q-76 -23 -84 -35q-2 -27 106 -127q-29 -63 -65.5 -104.5t-106.5 -92.5q-63 -45 -89 -55t-40 4 q-23 18 -19.5 48t29.5 56q31 27 25 47q0 4 -2 11l2 -2q18 -33 63 32q25 37 19 37q-4 0 -17 -4q-25 -10 -26 6q4 12 20 15q12 2 -16 16q-8 4 -18 8q-33 16 -43.5 27.5t-4.5 32.5q8 27 -6 26q-16 0 -20 -18q0 -4 2 -8q4 -16 -10 -19q-16 2 -19 23q0 23 -53 41q-16 6 -52 25.5 t-66 30.5t-54 11q-8 0 -12.5 3t-5.5 11.5zM525 4q2 -2 20 16q27 27 20 43q-6 16 -28 -26q-14 -31 -12 -33zM635 715q-2 -25 6 -25q10 2 4 25q0 6 -2 10q-6 8 -8 -10z" />
<glyph unicode="&#xe8;" horiz-adv-x="843" d="M63.5 405.5q-6.5 20.5 2.5 77.5q6 72 40 142q33 63 112 128.5t138 80.5q78 18 150 17t98 -22q31 -23 58 -14q10 2 22 -4t27.5 -19.5t26 -22.5t26.5 -26.5t18 -19.5q-59 -150 -90 -176l-37 -31q41 66 64 98q-6 -4 -22.5 -17t-21.5 -16t-20.5 -13.5t-22.5 -13.5t-21.5 -10 t-27 -10.5t-29.5 -8.5t-36.5 -7t-42.5 -4q-137 -12 -125 14q6 10 39 27q37 18 105.5 80.5t68.5 81.5q4 10 -14 14q-43 14 -72 0q-8 -4 -4 -10q4 -10 -8 -8q-2 0 -8 2q-35 14 -73 -5.5t-67 -64.5q-37 -59 -12 -74q12 -10 11 -12t-17 -2q-57 0 -8 -55l10 -10q23 -23 24 -29 t-16 -17q-18 -8 -13 -19t38 -34q37 -27 61.5 -29t93.5 9q84 12 132 28q8 4 6 -2q-4 -16 -49 -63q-57 -59 -79 -68.5t-85 -7.5q-90 4 -103 21q-16 12 -41 12q-33 0 -2 -10q35 -14 66 -56q10 -14 2 -14q-27 0 -114 51t-119.5 86t-39 55.5zM272 1075q-2 29 22.5 45.5t39.5 -6.5 q14 -20 22 6q16 37 131 -26q16 -8 50 -21q12 0 27.5 -24.5t15.5 -44.5q0 -12 -22.5 -20.5t-14.5 -33.5q10 -33 -23 -30q-47 4 -121 71q-41 37 -82 45q-39 6 -45 39zM385 1092q2 -4 10 -13q19 -18 29 -10q12 4 -14 16q-25 12 -25 7zM415.5 315.5q0.5 -2.5 24.5 -2.5 q33 0 66 15q25 10 25 12t-25 2q-33 0 -66 -14q-25 -10 -24.5 -12.5zM507.5 789.5q-8.5 -17.5 14.5 -19.5q23 -4 25 16q0 14 -15 17q-16 4 -24.5 -13.5zM678 760q2 -21 16 -39q16 -20 17 -6q-2 23 -17 39q-16 20 -16 6z" />
<glyph unicode="&#xe9;" horiz-adv-x="872" d="M61 512q0 88 50 172q37 66 56 84t54 27q51 12 135 39q221 70 332 -15q29 -20 41 -24t16 6q10 27 41 -25q23 -41 25 -80q4 -66 -78 -131t-153 -51q-55 10 -97 -4q-43 -16 -61 8q-12 14 -8.5 18.5t28.5 4.5q33 0 103.5 42t79.5 68q8 20 -16.5 44t-43.5 14q-10 -6 -10 2 q-2 6 2 14q18 25 -16 29q-35 2 -37 -13q0 -12 -66 -16q-63 -2 -79.5 -14.5t-49.5 -71.5q-33 -61 -33 -84t33 -96q57 -135 150 -78q29 20 59 0q18 -10 30.5 -7t33.5 23q33 35 57 17q23 -18 41 0q29 29 27 10q0 -23 -35 -68q-68 -86 -160 -104q-47 -8 -141.5 21.5t-151.5 68.5 q-76 51 -92 43q-16 -10 -31.5 5.5t-25 48t-9.5 73.5zM426 987q-8 31 23 64q25 27 115.5 91.5t119.5 74.5q23 8 45 0q66 -27 -49 -111q-88 -66 -137 -111q-41 -39 -76 -41t-41 33zM590 766q0 -6 28 -37q49 -51 50 -41q0 6 -21 29q-31 31 -16 41q2 4 0 6t-7.5 4t-13.5 2 q-20 0 -20 -4zM731 598q12 -4 33 23q8 8 8 14q12 33 3 32t-32 -34t-12 -35z" />
<glyph unicode="&#xea;" horiz-adv-x="821" d="M78 393q-53 96 43 230.5t252 181.5q45 14 168 3t153 -32q35 -23 43 -14q6 6 13 -23q20 -86 8 -135q-2 -2 -2 -4q-10 -25 -68.5 -56.5t-138.5 -51.5q-78 -23 -119 0q-66 37 -29 47q11 2 25 2q25 0 91.5 29.5t88.5 50.5q14 16 1 41.5t-40 33.5q-31 10 -30 27q0 8 8 12 q6 2 14 2q23 0 59 -45q16 -23 23 -24q2 0 -4 14q-47 96 -105 59q-12 -8 -86.5 -22t-85.5 -31q-8 -16 -24 -16q-23 0 -44.5 -43t-29.5 -107q-6 -55 0 -74.5t37 -48.5q25 -23 46.5 -36t48 -18t44 -6t57.5 1t62 2q37 0 68 27q37 37 53 20q14 -10 -6 -39q-27 -39 -138.5 -71.5 t-181.5 -22.5q-66 10 -162 59.5t-112 77.5zM204 924.5q-7 23.5 38 42.5q35 16 91 65t85 92q25 35 69 33q50 -4 50 19q0 20 14 20q12 0 80.5 -134t68.5 -157q0 -20 -36 -39q-25 -12 -40.5 -4t-60.5 60q-45 49 -62.5 58t-37.5 -1q-16 -8 -45 -36t-41 -34q-25 -8 -66 -28 q-63 -35 -67 -23q-2 4 -2 12q0 16 12 8t37 9q18 12 -6 14h-21q-53 0 -60 23.5zM356 985q-2 -4 4 0q4 2 17 12q29 25 29 29q0 23 -35 -22q-12 -14 -15 -19zM358 535q-2 6 0 16q2 18 7 16q8 -2 6 -28q0 -8 -4 -11q-4 -6 -9 7zM521 1112q1 -6 9 -14q19 -19 27 14l8 35l-14 -7 t-18.5 -12.5t-11.5 -15.5zM569 526q31 0 82 31q43 25 43 29q-2 10 -84 -27q-43 -25 -41 -33zM610 780q2 -12 25 -35q37 -40 43 -40q14 0 -14 47q-10 18 -19 22q-35 27 -35 6z" />
<glyph unicode="&#xeb;" horiz-adv-x="843" d="M61 473q0 59 32 132t79 120q43 43 85 59.5t206 57.5q39 8 153 -13q23 -10 60 -49t61 -51q45 -27 45 -55.5t-52 -67.5t-99 -43q-16 -2 -68.5 -12t-97.5 -15.5t-72 1.5q-47 10 -31 38q14 25 65.5 35.5t92.5 38t41 51.5q0 35 -36 48.5t-91 -0.5q-98 -27 -129 -70t-43 -174 q-6 -63 -1 -78.5t28 -24.5q14 -2 24.5 -11t10.5 -15q0 -12 -17 -6q-16 12 -16 -4q2 -18 22 -35q23 -18 167.5 -15.5t158.5 21.5q10 8 12 -14q0 -18 7.5 -20.5t16.5 6.5t18 12.5t14 -7.5q16 -27 -27 -30q-18 0 -41 4q-31 4 -29 0l4 -2q51 -25 -18 -52q-55 -23 -156 -30 l-112 -10l-117 75q-90 59 -120 100.5t-30 104.5zM291 980q0 28 20 48q27 29 27 16q0 -4 -4 -20q-8 -45 6 -49q10 -4 17.5 13.5t25.5 -7.5q16 -16 15 -20.5t-27 -12.5q-43 -8 -60 -2q-20 6 -20 34zM356 1030q0 12 13 23q14 16 40.5 11t34.5 -26q14 -37 9 -34q-6 0 -23 22 q-12 16 -16 18.5t0 -8.5q0 -4 2 -8q10 -27 -10 -27q-16 -2 -17 17q0 12 -16 6q-16 -10 -17 6zM547 897q-14 23 8 66q8 16 14 12q16 -10 41 3.5t25 31.5q0 14 7 19t16.5 -1t15.5 -20q8 -25 -51 -54q-45 -20 -45 -26q-2 -4 20 -6q14 -2 23.5 -9.5t5.5 -13.5q-10 -14 -40 -15 t-40 13zM733 672q0 -10 3 -13.5t6 -2.5t7.5 5.5t8.5 10.5q6 14 -6 16q-18 0 -19 -16z" />
<glyph unicode="&#xec;" horiz-adv-x="495" d="M68 1124q-18 84 4 84q6 0 14 -14q14 -23 14 6q0 68 82 -24q106 -115 124 -154t-25 -68q-20 -14 -38 -12t-50 23q-104 63 -125 159zM107 452q-13 128 34 263q23 63 52 73q84 33 98 -26q8 -41 22 -41q6 0 11 -111q6 -231 20 -217q6 16 35 -33q31 -57 49 -118 q12 -39 -1 -52.5t-40 7.5q-20 20 -80 6q-39 -8 -58.5 0t-58.5 49q-70 72 -83 200zM233 453q-2 -25 7 -23q10 0 6 27q0 4 -2 6q-4 12 -8 4q-3 -4 -3 -14z" />
<glyph unicode="&#xed;" horiz-adv-x="602" d="M63 559q-8 121 13 168t82 47q47 0 53 14q10 14 31.5 12.5t38.5 -18.5q10 -12 19 -48t16.5 -82t9.5 -58q4 -20 -2.5 -25.5t-15.5 -1.5t-14 -3t1 -29q2 -16 10 -28.5t14 -10.5q8 2 14.5 -5.5t8.5 -19.5q0 -10 34 -78.5t21 -95.5q-18 -37 -30 -27q-10 8 -24.5 -8t-25.5 -8 q-18 8 -49 -12q-20 -12 -35.5 -7t-54.5 33q-59 47 -82.5 104.5t-32.5 186.5zM88 711q2 -20 35 -39q20 -10 20 0q0 8 -14 26q-35 33 -41 13zM111 856q-8 8 74.5 108.5t99.5 100.5q12 0 65 49q35 31 55.5 38t57.5 1q70 -12 78 -31.5t-43 -54.5q-12 -8 -78 -69.5t-121 -100.5 t-76 -23q-10 2 23 48q20 28 8 28q-18 0 -18 -12q0 -14 -57.5 -53t-67.5 -29zM160 715q29 0 41 18q2 6 0 10q-8 8 -31 -6q-31 -25 -10 -22z" />
<glyph unicode="&#xee;" horiz-adv-x="618" d="M70 805q-14 82 10 119t196 206q74 74 70 39q0 -6 -2 -12q-8 -27 23 -90q33 -66 41 -66q8 -2 -9 41q-14 39 -14 72t14 33q8 0 18.5 -12.5t14.5 -30.5q2 -10 68.5 -108.5t54.5 -133.5q-4 -10 -7 -23.5t-5 -21.5t-4 -10q-16 -16 -65.5 25.5t-88.5 105.5l-59 98l-50 -57 q-23 -27 -71.5 -72t-90.5 -76.5t-44 -25.5zM211 602q12 117 25 148q10 31 35.5 36t33.5 -20q8 -10 10 6q4 43 43 19q23 -16 43 -50q35 -55 17 -67q-14 -8 18.5 -114.5t57.5 -137.5q14 -18 22 -62q4 -23 -2 -30.5t-20 -5.5q-14 4 -19.5 -1.5t-1.5 -19.5q8 -27 -49 -49 q-90 -39 -90 14q0 23 -49 68q-94 90 -74 266zM301 633q-2 -25 6 -23q10 0 6 27q0 4 -2 6q-4 12 -8 4q-2 -4 -2 -14z" />
<glyph unicode="&#xef;" horiz-adv-x="673" d="M68.5 922.5q-19.5 70.5 5.5 130.5q18 39 35 45q6 0 7 -6.5t-5 -20.5q-4 -12 -2 -12t43 18q8 4 25.5 12.5t24.5 12.5t22.5 8t18.5 0t12 -11t6 -27.5t-3 -47.5q-6 -51 -16.5 -75.5t-40.5 -51.5q-49 -45 -72 -45q-41 0 -60.5 70.5zM137 1040h49q43 2 47.5 6.5t-12.5 30.5 q-6 10 -14 10t-18.5 -6t-19.5 -14t-18.5 -16.5t-13.5 -10.5zM211 489q-37 131 29 273q12 29 19 32t17 -12q18 -27 58 -22q27 2 33 -11.5t10 -76.5q6 -145 39 -230q10 -27 16 -14q12 18 47 -45q0 -4 2 -6q39 -82 34 -106.5t-62 -24.5q-94 0 -147.5 55t-94.5 188zM357.5 972.5 q21.5 71.5 76.5 102.5q66 37 122 14.5t56 -83.5q0 -39 -75 -88q-74 -45 -108 -55.5t-54 5.5q-39 33 -17.5 104.5zM457.5 1046.5q-2.5 -6.5 7.5 -20.5q8 -8 8 -19.5t-4 -15.5q-2 -4 0 -2q6 0 33 21q45 31 45 43q0 33 -64 10q-23 -10 -25.5 -16.5zM522 992q0 -9 8 -15 q10 -8 18.5 -2t8.5 15t-8 16q-10 8 -18.5 1.5t-8.5 -15.5z" />
<glyph unicode="&#xf1;" horiz-adv-x="798" d="M66 639q6 -2 26 -29q16 -23 17 -6q2 10 -5 51q-10 74 12.5 96.5t67.5 -14.5q27 -20 37 -22t25 14q14 18 73.5 42t106.5 30q29 4 12 22q-8 10 -26 17q-33 6 -43 67q-10 59 -27 68q-14 8 -79.5 -27t-100.5 -69q-61 -61 -62 -33q0 4 4 14q8 25 -6 33q-16 10 4.5 48t59.5 76 t69 46q18 6 93 14q45 4 65.5 -5t67.5 -56q63 -68 80 -45q4 6 10 28.5t24 28.5q10 4 13.5 0t-2.5 -14q-6 -12 10 2q8 6 29 22q51 43 51 35q2 -10 20 4q20 20 27 4q8 -18 -41 -59q-45 -41 -23 -55q16 -10 8 -29.5t-28 -19.5q-16 0 -53 -55.5t-27 -65.5q10 -4 29.5 -9.5 t35 -13.5t31.5 -22q37 -37 62 -15q18 16 22 -14q2 -20 2 -78q0 -233 -71 -393q-23 -49 -39.5 -67.5t-30.5 -16.5q-25 8 -70 -37q-33 -33 -46 -19.5t16 48.5q16 18 12 20q-2 2 -14 -6q-14 -8 -17 -4l2 4q59 127 68.5 167t1.5 118q-8 100 -28.5 144t-61.5 48q-47 4 -104.5 -41 t-49.5 -78q12 -59 19 -122q6 -94 -31 -164q-35 -70 -72 -78q-2 0 -8 -2h-16q0 2 16 14q6 4 8 6q37 29 10 23q-47 -12 -92 -41v164q-2 102 -11 145t-36 90q-45 78 -26 72zM252 285q6 -6 14 14q12 31 2 29q-4 0 -14 -19q-10 -16 -2 -24zM264 485q-2 -25 6 -22q10 0 6 26 q0 4 -2 7q-4 12 -8 4q-2 -5 -2 -15zM297 600q19 -2 31 14q20 25 2 25q-10 -2 -33 -14q-23 -20 0 -25zM336 1032q6 -14 23.5 -16t17.5 16q2 8 -12 15q-25 8 -29 -7q-2 -4 0 -8zM352 672q-8 -16 4.5 -16.5t36.5 16.5q10 6 14.5 9t0 5t-16.5 2q-33 0 -39 -16zM403 721 q25 2 31 16q8 16 3.5 16t-27.5 -16q-20 -14 -7 -16z" />
<glyph unicode="&#xf2;" horiz-adv-x="954" d="M66 418q35 233 61 262q8 8 8 0q0 -4 -4 -16q-4 -18 4 0l10 20q25 47 127 100q90 47 163 51.5t151 -32.5q41 -18 86 -20.5t78 -32.5q27 -27 37 -28t30 19q43 41 68 4q25 -41 -17 -90l-4 -4q-10 -6 -16 -29.5t-8 -56.5t-2 -70.5v-71.5v-61l-76 -65q-31 -27 -49.5 -41 t-27.5 -18.5t-33.5 -13.5t-47.5 -19q-43 -20 -134 -22.5t-187 16.5q-94 18 -160 84q-47 47 -56.5 68.5t-0.5 66.5zM305 1171q27 93 88 25q20 -23 50 -34t53 -40q37 -41 55 -30q14 6 12 -13q-2 -16 14.5 -60t12.5 -69q-6 -41 -42 -38t-114 51q-27 16 -49.5 25t-28.5 12.5 t-15 15.5t-26 43q-25 55 -10 112zM309 422q10 -33 17 -66q8 -31 20 -38t60 -7q137 2 197.5 51.5t64.5 159.5q-201 -49 -265 -41q-61 8 -67 29q-20 23 -27 -8q-4 -25 10 -35q19 -25 5 -25q-8 0 -12.5 -6t-2.5 -14zM336 1169q2 -25 18 -12q20 14 13 31q-2 6 -15 8 q-16 0 -16 -27zM346 563q0 -2 6 -6q27 -16 119 -16q35 0 27 6q-4 4 -88 16q-61 6 -64 0zM370 650.5q-5 -25.5 27 -42.5q23 -12 122 0.5t116 28.5q16 18 -35 70q-49 57 -63 34q-16 -23 -41 2q-16 18 -23.5 18.5t-13.5 -20.5q-10 -29 -49 -49q-35 -16 -40 -41.5zM420 1012 q2 0 7 -5.5t14.5 -11.5t17.5 -12q4 -2 10 -8q14 -10 14 -8t-8 14l-6 6q-25 29 -39 29q-10 -2 -10 -4zM471 285q4 -12 33 -2q14 6 0 8q-4 2 -10 2q-23 0 -23 -8zM600 1026q-2 6 0 16q2 18 6 17q8 -2 6 -29q0 -8 -4 -10q-4 -6 -8 6zM697 695q1 -3 5.5 -7t10.5 -8q14 -6 16 6 q0 18 -16 19q-10 0 -13.5 -3.5t-2.5 -6.5z" />
<glyph unicode="&#xf3;" horiz-adv-x="1019" d="M80 574.5q41 132.5 125 166.5q20 8 60 34t75 32q238 41 395 -72q61 -45 115 -35q29 4 20 29q-6 10 3.5 19.5t21.5 11.5t18 -6q0 -20 19 -13q27 4 26 -24q2 -47 -40 -78q-23 -16 -38.5 -44t-20.5 -48.5t-12 -67.5t-11 -63q-23 -102 -136.5 -162.5t-285.5 -60.5 q-141 0 -198.5 27.5t-117.5 119.5q-59 102 -18 234.5zM305 469q-2 -14 35 -23q33 -8 33 -26q0 -10 -17 -10q-8 2 -8 -11q0 -4 2 -14q6 -23 0 -23q-4 0 -8 5q-18 12 -18 -11q0 -25 20 -41q16 -16 94 -24q90 -10 160 47t70 145q0 35 -19.5 38t-103.5 -15q-74 -12 -152 -12 q-84 -2 -88 -25zM332.5 645.5q19.5 -14.5 13.5 -24.5q-10 -16 123 -13q145 4 147 29q1 8 -30 14q-25 6 -33 30t-27 30q-33 12 -69.5 9t-50.5 -24q-14 -18 -33 -18t-33 -8q-27 -10 -7.5 -24.5zM370 978.5q7 8.5 42 20.5q49 14 146 83t130 110q23 29 48.5 30t90.5 -20 q45 -12 -8 -61q-10 -12 -26 -23q-10 -8 -120 -89t-138 -103q-29 -25 -56 -25q-29 0 -2 41q29 43 0 41q-16 -2 -51 -25q-23 -16 -32 -16t-21 14q-10 14 -3 22.5zM407.5 896q-4.5 13 4.5 15q4 0 10 -2q43 -24 0 -24q-10 -2 -14.5 11zM621 685q-2 -1 6 -17q4 -12 10 -19 q10 -8 12 4q0 10 -14 23q-12 10 -14 9z" />
<glyph unicode="&#xf4;" horiz-adv-x="1019" d="M63 451q-8 53 37 143q43 94 60 94q14 0 4 21q-6 10 -2 10l4 -2q18 -8 38.5 6t0.5 14q-6 0 14 15q41 29 125 69q104 51 148.5 65.5t95.5 10.5q76 -8 76 8q0 4 -51.5 47t-47.5 58q0 20 -10 20q-16 -2 -129 -72q-160 -102 -168 -100q-4 2 -4 16q0 25 -16 31q-8 2 34.5 46 t99 89t77.5 54q12 4 69 57q45 45 87 40t100 -63q37 -37 26 -38q-2 0 -6 2q-16 6 -19.5 0.5t3.5 -21.5q25 -66 67 -104q14 -12 17 -4q8 27 24 6q10 -14 10 -43q0 -37 -20.5 -50.5t-75.5 -11.5l-59 4l82 -77q63 -57 91.5 -65.5t59.5 22.5q20 18 36.5 14t16.5 -29 q0 -20 -45 -74q-29 -31 -40 -61.5t-17 -97.5q-8 -106 -45 -162q-20 -31 -25 -33l2 19q6 14 17 45q6 18 -17 -9q-8 -8 -20 -24q-47 -66 -47 -78q4 -20 -85 -50t-161 -32q-184 -6 -244 51q-39 35 -55 35q-20 0 -62 70.5t-51 118.5zM312.5 452.5q-17.5 -14.5 23.5 -83.5 q51 -86 172 -45q108 36 151 122q23 43 18 50.5t-46 -9.5q-33 -14 -182 -18q-119 -2 -136.5 -16.5zM324.5 942q3.5 -2 35.5 12q41 23 41 33q0 25 -32 2q-12 -8 -25 -22q-23 -23 -19.5 -25zM371.5 711q1.5 -2 27.5 6q37 8 45 22t-4 15q-16 0 -47 -25q-23 -16 -21.5 -18z M373 584q8 -23 86 -6q51 12 120.5 20t88 28.5t-3.5 59.5q-10 20 -30 27.5t-69 7.5q-51 0 -75.5 -10.5t-63.5 -46.5q-61 -57 -53 -80zM438 1016q0 -8 49 37q31 26 19 28q-4 2 -22.5 -12t-34 -31.5t-11.5 -21.5zM477 852q-4 -14 23 -16q33 -2 32 18q-2 12 -22 14 q-23 2 -33 -16zM573 1081q-6 0 1.5 -24.5t20.5 -52t21 -31.5q16 -14 15 4q-10 43 -49 98q-7 10 -9 6zM575 838q-7 -17 7 -19q12 -2 15 13.5t-5 19.5t-17 -14zM637 836q-8 -10 22 -37q16 -14 18.5 -11t-13.5 23q-25 25 -27 25zM698 412q14 4 27 41q4 12 0 16q-4 2 -9 -3 t-9 -15q-16 -41 -9 -39z" />
<glyph unicode="&#xf5;" horiz-adv-x="884" d="M61 459q0 80 58 168q53 84 99 117.5t136 50.5q25 4 47.5 10t31.5 9t20.5 4t23.5 -3t31 -14q27 -12 27 -8t-5 8q-10 18 19 18q51 0 141 -86q20 -18 33.5 -19t42.5 15q35 16 41 14t14 -30q10 -39 -14 -80q-29 -41 -33 -125q-4 -145 -132 -212t-306 -67q-61 0 -90 10.5 t-82 51.5q-76 57 -89.5 79.5t-13.5 88.5zM131 844q-27 47 29.5 115.5t138.5 84.5q88 18 250 -40q106 -39 229 38q37 23 37 9q0 -8 -15.5 -27.5t-8.5 -40.5q8 -27 -41.5 -70t-114.5 -63q-45 -14 -61.5 -10t-51.5 32q-57 47 -92 53.5t-76 -22.5q-63 -45 -57 -29q2 8 20 31 q27 31 13 23q-23 -8 -101 -72q-72 -55 -75 -51q-2 2 -23 39zM242 438q0 -43 45 -79.5t106 -43.5q47 -4 74 3.5t74 39.5q98 68 82 129q-12 35 -127 2q-49 -12 -111 -4q-143 23 -143 -47zM342 573q29 2 80 17q74 23 88 37t-10 41q-18 18 -27.5 19t-19.5 -15q-19 -27 -27 -4 q-10 20 -22.5 17t-51.5 -38q-82 -76 -10 -74zM590 874q4 -12 33 -2q14 6 0 9q-4 2 -11 2q-22 -1 -22 -9zM672 498q-2 -49 4 -49q2 0 4 6q8 22 0 49q-6 23 -8 -6z" />
<glyph unicode="&#xf6;" horiz-adv-x="1040" d="M63.5 493.5q14.5 77.5 60.5 157.5t125 143.5t154 73.5q102 12 221 -9t173 -60q16 -12 52 9t50 15q18 -6 37 11.5t29 17.5q37 0 -9 -53q-14 -16 -34 -35q-43 -37 -48.5 -53.5t9.5 -63.5q29 -92 3 -159.5t-114 -135.5q-63 -47 -173 -86t-185 -39q-104 0 -207 78 q-16 12 -35.5 26.5t-41 30t-28.5 19.5q-53 35 -38.5 112.5zM209 567q4 -18 24 8q16 20 7 23q-8 8 -19.5 -3.5t-11.5 -27.5zM243 948q-1 31 9 60q6 23 65 64.5t84 41.5q16 0 33 -6t24 -14.5t3 -14.5q-8 -14 -2 -14q10 0 37 27q35 35 32 16q-2 -18 -34 -64q-35 -47 -124 -98 t-112 -37q-14 8 -15 39zM276 506q2 -16 21 -51q31 -53 55.5 -74t71.5 -29q90 -16 199.5 55.5t109.5 147.5q0 45 -33 66q-18 14 -26 -9q-2 -14 -164 -10t-168 10q-31 14 -35 -32q-1 -48 17 -56q14 -2 16 -12q2 -12 -10 -12q-10 0 -23 8q-33 20 -31 -2zM346 1028 q-6 -27 21 -14q33 20 39 39q0 8 16 4t16 6q0 29 -47 8q-39 -16 -45 -43zM401 707q20 -10 74 0q16 2 36.5 5t35 6t20.5 3q19 0 19 16q0 14 -60.5 14.5t-99.5 -16.5q-51 -18 -25 -28zM459 1135q6 10 20 8q25 -2 13 -19q-11 -12 -23 -10q-23 4 -10 21zM561 680q-2 -2 6 -4 q18 -8 41 0q14 4 -6 6q-39 4 -41 -2zM578.5 957q-0.5 10 15.5 32q10 12 27.5 50t44.5 46q43 14 104 10.5t82 -20.5q20 -14 18.5 -53t-24.5 -39q-10 0 -2 29q8 23 -33 -11q-6 -6 -16 -14q-63 -51 -99 -55q-18 0 -20 -4q-2 -2 2 -4q2 -2 4 -2q14 -6 18.5 -15.5t-5 -15.5 t-27.5 -6q-29 0 -66 37q-23 25 -23.5 35zM580 803q-14 -2 12 -25q37 -25 49 -24q14 2 -12 24q-37 25 -49 25zM668 999q-4 -20 20 -32q6 -4 12 -4l33 -5q-2 0 -12 11q-12 10 -21 18q-29 29 -32 12zM700 1016q0 -10 16.5 -14.5t33 0t16.5 14.5t-16.5 14t-33 0t-16.5 -14z" />
<glyph unicode="&#xf9;" horiz-adv-x="892" d="M61 557q0 74 8.5 101.5t36.5 62.5q25 31 54.5 45t48.5 41l22 37l11 -49q8 -35 10 -37l10 26q18 70 29 9q8 -51 4 -158q-6 -170 12 -217q14 -35 19 -37q4 -2 10 14q2 2 2 4q12 45 22 4q10 -37 2 -51q-10 -23 17 -24q23 -2 35 16q6 16 49 16q45 0 67.5 46.5t30.5 158.5 q14 188 55 223q10 10 21 -2q6 -10 10 -13t10.5 0t16.5 18q25 29 31 28q4 0 9 -53t7 -123t0 -111q-2 -47 25.5 -101t56 -54t28.5 -12q0 -18 -49 -36t-100 -18q-49 2 -143.5 -43t-135.5 -49q-49 -4 -78.5 3t-91.5 44q-100 59 -136 119.5t-36 171.5zM229 614q0 -45 7 -41 q10 8 6 54q-2 10 -4 16q-4 25 -9 -4v-25zM313 1087q-10 27 0 25q2 0 6 -2q16 -8 37 12q8 10 10.5 15.5t0.5 7.5t-13 2q-23 0 8 24q41 31 44 21q0 -4 -13 -16q-18 -20 -5 -46t36 5q23 23 43 14.5t20 -39.5q0 -14 2.5 -19.5t6.5 -3t14 10.5q23 18 14 45q-6 18 0 18q4 0 6 -2 q14 -14 25 -151q4 -47 -11.5 -126t-27.5 -79q-33 0 -83 54t-73 114q-10 25 -27.5 67.5t-19.5 48.5zM340 262q0 -10 3 -13t6 -2t7.5 5t8.5 10q6 14 -7 17q-18 0 -18 -17zM735 516q2 6 15 8q16 1 16 -26q-2 -25 -18 -13q-20 14 -13 31z" />
<glyph unicode="&#xfa;" horiz-adv-x="892" d="M60 580q1 43 14 43q14 0 40.5 47t18.5 55q-2 2 2 4q8 2 21 -2q23 -6 54.5 18.5t45.5 24.5q16 0 21.5 -34t7.5 -158q0 -193 32 -259q23 -45 36.5 -54t52.5 -7q55 4 73 23q12 12 0 8q-6 0 -14 -4q-18 -8 -14 6q6 12 34 49q39 47 45.5 71.5t1.5 102.5q-8 106 9 98q4 -2 6 0 t4 8.5t2 14.5q0 37 19.5 91t48.5 26q31 -14 63 -7q18 4 26.5 0t5.5 -13t-20 -15q-20 -8 0 -25q18 -12 13 -151q-6 -115 7 -188.5t42 -73.5q39 0 18 -39q-8 -18 -31 -39l-38 -35l-45 49q-31 33 -44.5 37t-31.5 -14q-12 -16 -54.5 -22.5t-52.5 -18.5q-16 -27 -101 -17t-155 45 q-61 31 -80.5 53.5t-44.5 90.5q-16 47 -27.5 107.5t-10.5 103.5zM82 691.5q-2 1.5 6 17.5q4 12 10 18q8 8 11 -4q0 -10 -13 -23q-12 -10 -14 -8.5zM242 262q0 -20 16 -24q16 -6 16 8q0 20 -16 24q-16 6 -16 -8zM377 856q4 33 154.5 139.5t179.5 96.5q25 -8 30 6 q6 10 16.5 14t17.5 1t7 -13q0 -18 -26 -41q-27 -27 -17 -27q6 2 37 19q53 28 55 20q2 -6 -35.5 -33.5t-75.5 -54.5t-36 -35q2 -4 -13.5 -14t-38 -22.5t-44 -23.5t-34.5 -22.5t-9 -15.5q8 -8 -21 -21q-53 -18 -65 2q-2 18 -47 3q-27 -10 -33 -6.5t-2 28.5z" />
<glyph unicode="&#xfb;" horiz-adv-x="858" d="M61 860q-10 10 72 86q104 96 168 156q51 47 71.5 61.5t28.5 1.5q12 -20 23 -8q10 18 -4 31q-25 16 6 39q23 16 45 10q31 -8 31 12q0 12 35 -32q76 -100 79 -103q6 4 19 -16q16 -29 2 -31q-4 0 -12 4q-25 6 -25 -16q0 -10 5 -13.5t11.5 -1.5t11.5 -2t5 -16q0 -20 4 -19 t20 23q20 29 23 16q2 -4 2 -14q0 -31 -20 -61q-12 -20 -10.5 -29.5t20.5 -24.5q33 -23 12 -34q-16 -10 -107.5 44t-91.5 72q0 10 -24 43q-12 16 -18.5 20.5t-13.5 1.5t-21 -18q-31 -31 -119 -86t-105 -55q-16 0 17 27q25 23 12 22q-18 -2 -45 -24.5t-27 -36.5 q0 -16 -34.5 -28.5t-45.5 -0.5zM86 549q0 246 41 272q29 18 29 0q0 -10 -15 -26q-16 -18 -4 -19q8 0 33 4q51 10 57 -20q4 -18 7.5 -19.5t11.5 15.5q2 4 6 14l18 41q0 -63 4.5 -133t11.5 -114t13 -44q14 -23 18 -114q4 -31 10.5 -37.5t26.5 0.5q33 10 33 -13q0 -20 49 -20 q27 -2 36 3t5 17q-4 14 0 17q2 0 6 -2q14 -8 29.5 12t27 59t11.5 78q0 76 17.5 175.5t33.5 109.5q23 16 53.5 -0.5t36.5 -46.5q4 -20 10.5 -24.5t10.5 2.5t11 13.5t11 4.5q6 -6 19 -211q8 -203 28 -219q23 -16 2 -25q-20 -6 -20 -29q0 -27 -19.5 -32t-72.5 8 q-68 14 -201 -8.5t-161.5 -19.5t-86.5 52q-80 66 -80 54q0 -2 7 -13q8 -16 -9 -16q-55 0 -55 254zM195 809q-6 4 6 8q6 2 16 0q27 -2 8 -10q-28 -10 -30 2zM522 301q16 -14 37 14q16 20 0 21q-8 0 -24 -8q-23 -17 -13 -27z" />
<glyph unicode="&#xfc;" horiz-adv-x="841" d="M61.5 613q-0.5 73 16.5 83q16 6 16 86q2 57 8 54q2 0 2 -5q4 -14 21.5 -22t34 -6t16.5 16q0 16 17 17q18 0 10 -23q-10 -23 30 -33q35 -10 39 -24.5t-16 -63.5q-41 -100 10 -229t140 -146q39 -6 40 -2q2 4 -8 11q-18 16 -2 18q20 0 59.5 44t41.5 71q10 281 28 315 q23 45 39 43q14 -2 6 -39q-8 -41 4 -39q18 2 35 41q6 16 4 27q-2 12 11 12q16 -2 47 -24q23 -16 27.5 -37t2.5 -76q-4 -72 7.5 -164t25.5 -131q8 -20 4 -24.5t-20 2.5q-18 8 -21.5 4t4.5 -21q10 -20 15 -69q2 -37 -31 -46.5t-78 17.5q-23 12 -52.5 18t-51 2t-19.5 -16 q2 -10 -40 -16.5t-93 -6.5t-94 7q-47 6 -125 57q-51 33 -64.5 55.5t-27.5 95.5q-18 94 -18.5 167zM143 748q-2 -25 7 -23q10 0 6 27q0 4 -2 6q-4 12 -9 4q-2 -4 -2 -14zM181 953.5q0 15.5 20 56.5q4 8 10 23.5t9 22.5t10.5 17t13.5 12t15 2t22 -6q12 -10 50 4.5t48 8.5 q20 -10 21 -63.5t-19 -94.5q-16 -31 -30.5 -38t-59.5 -5q-68 4 -92 29q-18 16 -18 31.5zM342 1069q0 -14 23 -43q22 -20 24 -6q0 20 -24 45q-25 20 -23 4zM471 991q23 49 46.5 66.5t86.5 15.5q39 0 54.5 -7t25.5 -30q8 -23 -1 -41t-42 -51q-96 -100 -162 -29q-26 31 -8 76z M537 958q10 -23 12 -21.5t12 30.5q10 27 14 28q2 0 9 -16q4 -14 7 -17.5t7 0t12 15.5q2 4 4 6q20 33 2 33q-14 0 -6 16q10 16 -6 17q-29 0 -55 -29q-25 -31 -12 -62zM636 695q1 -3 5 -7t10 -8q14 -6 17 6q0 18 -17 19q-10 0 -13 -3.5t-2 -6.5z" />
<glyph unicode="&#x2000;" horiz-adv-x="774" />
<glyph unicode="&#x2001;" horiz-adv-x="1548" />
<glyph unicode="&#x2002;" horiz-adv-x="774" />
<glyph unicode="&#x2003;" horiz-adv-x="1548" />
<glyph unicode="&#x2004;" horiz-adv-x="516" />
<glyph unicode="&#x2005;" horiz-adv-x="387" />
<glyph unicode="&#x2006;" horiz-adv-x="258" />
<glyph unicode="&#x2007;" horiz-adv-x="258" />
<glyph unicode="&#x2008;" horiz-adv-x="193" />
<glyph unicode="&#x2009;" horiz-adv-x="309" />
<glyph unicode="&#x200a;" horiz-adv-x="86" />
<glyph unicode="&#x2010;" d="M62.5 588q0.5 10 25.5 35q61 61 309 67q119 4 138 17q8 16 49 -17q41 -39 14 -49q-23 -14 -12 -47q8 -20 -4.5 -29.5t-63.5 -21.5q-102 -25 -222 -37t-122 2q-10 10 -44 19.5t-48 27.5q-20 23 -19.5 33zM532 619.5q1 -33.5 15 -37.5q10 -6 14 14q8 41 -8 57q-2 2 -6 2 q-16 -2 -15 -35.5z" />
<glyph unicode="&#x2011;" d="M62.5 588q0.5 10 25.5 35q61 61 309 67q119 4 138 17q8 16 49 -17q41 -39 14 -49q-23 -14 -12 -47q8 -20 -4.5 -29.5t-63.5 -21.5q-102 -25 -222 -37t-122 2q-10 10 -44 19.5t-48 27.5q-20 23 -19.5 33zM532 619.5q1 -33.5 15 -37.5q10 -6 14 14q8 41 -8 57q-2 2 -6 2 q-16 -2 -15 -35.5z" />
<glyph unicode="&#x2012;" d="M62.5 588q0.5 10 25.5 35q61 61 309 67q119 4 138 17q8 16 49 -17q41 -39 14 -49q-23 -14 -12 -47q8 -20 -4.5 -29.5t-63.5 -21.5q-102 -25 -222 -37t-122 2q-10 10 -44 19.5t-48 27.5q-20 23 -19.5 33zM532 619.5q1 -33.5 15 -37.5q10 -6 14 14q8 41 -8 57q-2 2 -6 2 q-16 -2 -15 -35.5z" />
<glyph unicode="&#x2013;" horiz-adv-x="1206" d="M63 -393q-6 16 9 16q20 0 24 -16q6 -16 -8 -17q-21 1 -25 17zM464 551q48 35 255 49q121 6 188.5 20.5t148.5 14.5t83 -17q4 -55 6 -80.5t-1 -44t-9.5 -21.5t-20.5 -5q-76 -8 -190.5 -16.5t-259 -16.5t-197.5 -12q-51 94 -3 129z" />
<glyph unicode="&#x2014;" horiz-adv-x="1646" d="M61 1507.5q0 10.5 16.5 14.5t33 0t16.5 -14.5t-16.5 -14.5t-33 0t-16.5 14.5zM78 442q0 14 37 21q35 4 57 76q23 78 39 90q10 10 10 4q2 -4 -4 -23q-10 -29 1 -33t69 5q39 6 102.5 18t95 16.5t98 13.5t158.5 17q82 8 219.5 22.5t157.5 16.5q211 20 230 8q-4 -2 -246 -35 q284 5 483 -24q0 -143 -20 -143q-86 0 -353.5 -19.5t-339.5 -23.5q-219 -6 -245 -23q-31 -8 -95.5 -8t-109.5 -6q-109 -10 -105 2q10 16 -127 16q-37 0 -67 -2q-43 -4 -45 14zM84 -403q0 4 2 10q25 43 25 0q2 -10 -11.5 -14.5t-15.5 4.5zM233 541q-4 -6 13 -6q57 -2 92 16 q0 4 -27.5 6t-53.5 -3t-24 -13zM774 610q172 -4 246 13l33 12q-4 2 -49 0q-72 0 -230 -25zM1081 629q4 -12 33 -2q14 6 0 8q-4 2 -10 2q-23 0 -23 -8zM1368 565q0 -2 8 -4q27 -8 58 0q18 4 -4 6q-61 6 -62 -2zM1509 567q0 -8 15 -22q29 -29 41 -15q10 11 -13 27 q-41 27 -43 10z" />
<glyph unicode="&#x2018;" horiz-adv-x="935" d="M70 -377q23 -2 39 -16q20 -16 6 -17q-21 3 -39 17q-23 16 -6 16zM600 981q0 14 10.5 43t26.5 60.5t32.5 60.5t31 45t18.5 12q8 -14 37 10q25 18 24 2q0 -18 17 -18q14 0 6 25q-10 25 6 22q12 0 37 -14q25 -17 2 -17q-20 0 -10 -14q8 -20 -25 -72q-33 -53 -31 -74.5 t39 -35.5q80 -29 35 -123q-18 -39 -30.5 -46t-41.5 3q-184 70 -184 131zM684 1020q4 -23 25 27q32 88 28 100q-10 0 -32.5 -54.5t-20.5 -72.5zM805 977q10 -25 31 -25q12 1 6 19q-6 16 -27 24q-20 6 -10 -18z" />
<glyph unicode="&#x2019;" horiz-adv-x="411" d="M61 934q0 20 25 86q16 39 34.5 52t67.5 22q23 4 45.5 9t27.5 8t16.5 0t18.5 -10l26 -26q33 -35 26.5 -79t-61.5 -152q-89 -172 -142 -172q-27 0 -6 20.5t21 34.5q0 18 -21 -2q-12 -12 -22.5 -16t-16.5 1t-6 19q-2 16 15.5 24.5t17.5 22.5q0 18 25 43q41 35 18 45 q-8 2 -23 0q-29 -4 -57.5 18.5t-28.5 51.5zM256 891q21 12 35 45q14 27 10 29q-4 4 -35 -41q-16 -33 -10 -33z" />
<glyph unicode="&#x2022;" horiz-adv-x="718" d="M61 553q2 59 15.5 101t54.5 118q66 121 99.5 148.5t115.5 33.5q137 10 139 7q0 -2 -24 -9q-25 -8 -25 -12q-2 -4 17 -14q10 -6 41 -21q76 -35 79 -16q10 23 25 -4q10 -17 10 -37q0 -31 25 -84q31 -57 20 -57q-2 0 -10 4q-6 2 -15.5 -12.5t-20.5 -38t-20 -47t-16.5 -42 t-9.5 -20.5q-4 -6 2 -6q4 0 12 4q20 10 52 80q25 49 30 47q0 -102 -172 -213q-78 -49 -114.5 -63.5t-106.5 -18.5q-74 -4 -98.5 1t-56.5 32q-33 29 -41.5 52t-6.5 87zM250 885q23 0 55 24q24 23 8 25q-23 0 -55 -25q-25 -23 -8 -24zM346 655q0 -12 5 -14t10.5 2t9.5 12 q6 14 -6 17q-18 0 -19 -17zM561 848q-10 -16 6 -31q2 -4 8 -6q8 -2 10.5 1t-1.5 13q-14 35 -23 23z" />
<glyph unicode="&#x202f;" horiz-adv-x="309" />
<glyph unicode="&#x205f;" horiz-adv-x="387" />
<glyph unicode="&#x20ac;" horiz-adv-x="1120" d="M86 485q-53 20 16 41q20 4 56 13q70 14 84 23t14 44q0 33 -9 38t-48 -1q-53 -8 -56 6q-4 16 68 35l70 16q-164 -6 -172 19q0 14 46 32.5t93 22.5q51 6 84 68q53 94 153.5 172t188.5 98q53 12 150.5 -8.5t113.5 -22.5q10 0 18.5 -2t12.5 -5t2 -7q-4 -12 27.5 -58t27.5 -65 v-2l-6 -20q0 2 -4 16q-8 29 -23 20q-16 -12 -16 5q-2 18 -140.5 10t-154.5 -41q0 -14 -20 -14q-25 0 -75 -27t-69 -49q-14 -16 17 -19q35 -2 178 6q215 10 215 -6t-34 -51t-48 -35q-25 0 -183.5 -17.5t-187.5 -23.5q-39 -8 -39 -59q0 -33 7.5 -40t31.5 -3q82 16 244 31 q227 23 227 0q0 -8 -18 -19q-20 -16 -8 -16q16 0 -2 -19q0 -4 -14.5 -9t-37 -8t-48 -7t-51.5 -7t-46.5 -7.5t-32.5 -9.5t-10 -11q4 -10 -42 -19.5t-94 -17.5t-48 -14q-6 -12 29.5 -45t76.5 -56q35 -18 113 -18t125 18q43 14 32 2q-8 -8 -196 -67q8 0 47 3t56.5 5t52 5t55 6 t46 8.5t43 10.5t30.5 13q51 31 55 19q4 -8 -27 -31q-33 -23 -8 -23q29 0 12.5 -16t-45.5 -16q-35 0 -94 -46q-39 -31 -72.5 -38t-136 -11t-136.5 0t-69 31q-84 55 -145 168q-25 47 -40 54t-75 -1q-111 -16 -123 13q-2 6 2 12q8 16 -16 24zM504 293q-2 -2 8 -12 q8 -8 24.5 -14.5t40 -13.5t31.5 -9q-29 25 -88 47q-14 6 -16 2zM643 1032q25 2 31 17q10 16 4 16t-29 -16q-20 -14 -6 -17zM840 213q25 2 30 16q10 16 4.5 16t-28.5 -16q-20 -14 -6 -16z" />
<glyph unicode="&#x25fc;" horiz-adv-x="849" d="M0 0v850h850v-850h-850z" />
</font>
</defs>
</svg>
